<svg width="2248" height="1150" xmlns="http://www.w3.org/2000/svg" xmlns:xlink="http://www.w3.org/1999/xlink" xml:space="preserve" overflow="hidden"><defs><filter id="fx0" x="-10%" y="-10%" width="120%" height="120%" filterUnits="userSpaceOnUse" primitiveUnits="userSpaceOnUse"><feComponentTransfer color-interpolation-filters="sRGB"><feFuncR type="discrete" tableValues="0 0"/><feFuncG type="discrete" tableValues="0 0"/><feFuncB type="discrete" tableValues="0 0"/><feFuncA type="linear" slope="0.4" intercept="0"/></feComponentTransfer><feGaussianBlur stdDeviation="6.11111 6.11111"/></filter><filter id="fx1" x="-10%" y="-10%" width="120%" height="120%" filterUnits="userSpaceOnUse" primitiveUnits="userSpaceOnUse"><feComponentTransfer color-interpolation-filters="sRGB"><feFuncR type="discrete" tableValues="0 0"/><feFuncG type="discrete" tableValues="0 0"/><feFuncB type="discrete" tableValues="0 0"/><feFuncA type="linear" slope="0.4" intercept="0"/></feComponentTransfer><feGaussianBlur stdDeviation="7.13357 7.13357"/></filter><clipPath id="clip2"><rect x="1326" y="351" width="2248" height="1150"/></clipPath><clipPath id="clip3"><rect x="344" y="182" width="1581" height="474"/></clipPath></defs><g clip-path="url(#clip2)" transform="translate(-1326 -351)"><g filter="url(#fx0)" transform="translate(1386 389)"><g><rect x="19.9999" y="19.75" width="2039" height="744" fill="#CF7612"/></g></g><rect x="1406" y="395" width="2039" height="744" fill="#CF7612"/><g clip-path="url(#clip3)" filter="url(#fx1)" transform="translate(1325 349)"><g><path d="M329.375-366.265C333.24-360.995 335.172-355.374 335.172-349.401 335.172-323.051 298.633-289.147 225.556-247.69 181.288-222.394 128.764-196.922 67.983-171.275 64.4697-122.088 62.713-84.847 62.713-59.551 62.713-54.9837 63.24-48.3962 64.294-39.7885 65.348-31.1808 65.875-24.769 65.875-20.553 65.875-4.743 59.8255 3.162 47.7264 3.162 41.8526 3.162 37.6997 1.054 35.2678-3.162 32.8359-7.378 32.3227-16.5127 33.728-30.566 34.3593-51.2947 35.9403-93.1033 38.471-155.992 36.363-160.559 35.309-163.897 35.309-166.005 35.309-170.221 36.363-173.734 38.471-176.545 40.2277-197.625 42.5113-228.015 45.322-267.716 47.43-313.389 46.903-340.442 43.741-348.874 43.0383-350.631 42.687-352.387 42.687-354.144 42.687-359.765 44.795-365.035 49.011-369.954 53.227-374.873 57.7943-377.332 62.713-377.332 67.2803-377.332 71.4963-375.839 75.361-372.852 79.2257-369.866 83.0903-368.197 86.955-367.846 88.3603-367.846 109.616-369.778 150.722-373.643 195.693-378.21 231.529-380.494 258.23-380.494 298.633-380.494 322.348-375.751 329.375-366.265ZM297.228-343.604C297.228-350.982 282.472-354.671 252.96-354.671 232.934-354.671 207.814-353.09 177.599-349.928 153.708-347.117 137.547-344.834 129.115-343.077 117.521-340.618 101.008-338.685 79.577-337.28L71.672-205.003C115.237-222.57 152.654-239.258 183.923-255.068 259.108-292.661 296.877-322.173 297.228-343.604ZM463.476-223.448C468.395-221.691 470.854-217.124 470.854-209.746 470.854-203.422 466.814-199.206 458.733-197.098 455.923-196.395 451.882-196.922 446.612-198.679 441.342-200.436 437.302-201.314 434.491-201.314 429.924-201.314 425.357-199.909 420.789-197.098 387.764-178.477 350.698-137.898 309.592-75.361 301.863-63.767 297.032-48.1327 295.1-28.458 293.168-8.78333 291.499 1.93233 290.093 3.689 286.931 7.55367 283.067 9.486 278.499 9.486 272.878 9.486 268.135 7.378 264.27 3.162 261.46 0.351333 260.054-4.56733 260.054-11.594 260.054-16.1613 261.108-26.877 263.216-43.741 266.027-63.0643 267.784-80.104 268.486-94.86 269.189-107.859 269.54-119.805 269.54-130.696 269.54-157.397 267.608-178.653 263.743-194.463 259.879-210.273 257.946-216.773 257.946-213.962 257.946-214.665 258.298-215.543 259-216.597 262.865-222.921 267.784-226.083 273.756-226.083 277.621-226.083 281.486-224.326 285.35-220.813 291.674-214.84 295.188-197.625 295.89-169.167 296.242-155.465 296.417-134.209 296.417-105.4 303.795-115.237 311.173-124.548 318.551-133.331 336.469-154.762 352.455-171.978 366.508-184.977 383.724-201.138 394.264-210.624 398.128-213.435 411.83-222.921 425.532-227.664 439.234-227.664 446.964-227.664 455.044-226.259 463.476-223.448ZM592.945-2.635C591.539-0.878333 588.904-0.175667 585.04-0.527 581.175-0.878333 578.189-2.19583 576.081-4.4795 573.973-6.76317 572.216-10.8913 570.811-16.864 544.461 0.702666 521.097 9.486 500.72 9.486 487.72 9.486 477.532 5.62133 470.154-2.108 462.776-9.83733 459.087-19.8503 459.087-32.147 459.087-50.065 465.586-67.7195 478.586-85.1105 491.585-102.501 506.517-112.427 523.381-114.886 549.379-118.399 568.527-101.887 580.824-65.348 586.445-79.7527 589.256-95.7383 589.256-113.305 589.256-137.547 583.459-160.208 571.865-181.288 564.135-195.693 552.366-202.895 536.556-202.895 526.718-202.895 517.32-200.348 508.361-195.253 499.402-190.159 494.571-185.504 493.869-181.288 494.22-179.531 492.815-178.653 489.653-178.653 480.167-178.653 475.072-182.693 474.37-190.774 473.667-199.557 480.342-207.901 494.396-215.806 508.449-223.711 523.381-227.664 539.191-227.664 551.136-227.664 560.973-225.205 568.703-220.286 599.971-200.611 615.606-165.302 615.606-114.359 615.606-90.4683 612.092-65.1723 605.066-38.471 599.796-16.337 595.755-4.39167 592.945-2.635ZM562.906-44.795C552.717-76.415 541.826-91.171 530.232-89.063 514.773-86.2523 502.828-78.6987 494.396-66.402 487.369-56.5647 483.856-45.849 483.856-34.255 483.856-26.1743 485.612-21.08 489.126-18.972 492.639-16.864 496.855-15.81 501.774-15.81 517.935-15.81 538.312-25.4717 562.906-44.795ZM874.118-224.502C874.47-217.475 870.254-213.962 861.47-213.962 859.362-213.962 856.2-214.225 851.984-214.752 847.768-215.279 844.958-215.543 843.552-215.543 819.662-215.543 790.325-211.678 755.543-203.949 747.814-139.655 743.949-85.901 743.949-42.687 743.949-33.201 744.125-24.5933 744.476-16.864 744.476-16.5127 744.916-14.4047 745.794-10.54 746.672-6.67533 747.111-3.51333 747.111-1.054 747.111 8.08066 742.193 12.2967 732.355 11.594 726.031 11.2427 721.113 7.72933 717.599 1.054 714.789-4.56733 713.559-10.7157 713.91-17.391 713.91-36.0117 715.843-72.726 719.707-127.534 721.815-143.695 724.626-167.235 728.139-198.152 719.707-196.044 704.776-191.125 683.344-183.396 675.264-179.531 667.007-174.437 658.575-168.113 652.954-163.897 649.089-162.14 646.981-162.843 636.09-165.648 630.644-170.729 630.644-178.085 630.644-187.198 641.711-195.959 663.845-204.369 676.142-209.277 698.979-216.811 732.355-226.972 734.815-241.344 739.031-274.99 745.003-327.909 745.355-330.012 745.355-333.514 745.003-338.416 745.003-344.724 745.003-349.104 745.003-351.558 745.003-365.227 748.893-372.062 756.672-372.062 767.162-372.062 772.407-359.461 772.407-334.258 772.407-326.21 771.88-316.76 770.826-305.907 768.718-292.606 765.029-267.93 759.759-231.88 788.569-237.501 816.324-239.609 843.025-238.204 852.863-237.853 859.362-237.15 862.524-236.096 869.902-234.339 873.767-230.475 874.118-224.502ZM991.484-139.128C992.186-133.155 992.538-127.183 992.538-121.21 992.538-86.428 979.011-56.389 951.959-31.093 927.717-8.959 902.948 2.108 877.652 2.108 869.922 2.108 863.423 0.702667 858.153-2.108 848.315-7.02667 839.62-16.6005 832.066-30.8295 824.513-45.0585 820.736-60.7807 820.736-77.996 820.736-92.4007 823.722-106.278 829.695-119.629 856.396-180.41 885.557-212.03 917.177-214.489 930.527-215.543 944.229-210.624 958.283-199.733 976.552-186.031 987.619-165.829 991.484-139.128ZM959.337-159.154C955.121-167.937 951.08-174.086 947.216-177.599 941.594-182.518 933.338-185.68 922.447-187.085L922.974-184.45C914.251-182.342 905.879-178.126 897.859-171.802 879.024-156.343 864.024-132.101 852.858-99.076 850.767-93.1033 849.721-86.2523 849.721-78.523 849.721-65.875 852.169-54.4567 857.066-44.268 863.708-31.62 872.626-25.296 883.819-25.296 895.364-25.296 908.306-30.9173 922.644-42.16 936.286-52.3487 945.728-62.713 950.971-73.253 961.115-93.6303 966.188-111.724 966.188-127.534 966.188-138.425 963.904-148.965 959.337-159.154ZM1302.08-11.067C1296.81-11.067 1292.94-13.3507 1290.48-17.918 1286.62-24.9447 1284.69-44.4437 1284.69-76.415 1285.39-99.2517 1285.92-122.088 1286.27-144.925 1286.62-180.761 1282.4-201.138 1273.62-206.057 1271.16-207.462 1262.9-196.922 1248.85-174.437 1233.39-149.492 1219.69-122.615 1207.74-93.806 1198.96-72.3747 1190-44.4437 1180.87-10.013 1176.3 7.55367 1171.03 15.6343 1165.06 14.229 1155.57 11.7697 1149.95 6.14833 1148.19-2.635 1148.19-3.689 1147.49-21.9583 1146.09-57.443 1142.92-144.925 1139.06-190.071 1134.49-192.882 1127.82-197.098 1116.22-180.679 1099.71-143.624 1082.49-105.482 1071.08-68.4029 1065.45-32.3858 1065.45-31.3263 1065.45-23.2045 1065.45-8.02028 1065.45 2.57461 1063.79 9.01938 1060.45 11.314 1057.11 13.6087 1052.63 14.5803 1047.01 14.229 1041.04 13.8777 1037.08 12.2006 1035.15 9.1978 1033.22 6.19499 1032.25-1.30652 1032.25-13.3067 1032.25-25.3125 1035.06-60.9728 1040.69-120.288 1041.74-131.585 1041.92-143.942 1041.21-157.359 1040.16-175.013 1039.63-183.489 1039.63-182.787 1039.63-194.436 1045.08-200.26 1055.97-200.26 1060.18-200.26 1063.52-198.855 1065.98-196.044 1072.31-189.369 1076.52-178.126 1078.63-162.316 1103.22-213.611 1121.49-239.258 1133.44-239.258 1143.63-239.258 1152.06-232.934 1158.73-220.286 1164.36-211.854 1168.92-166.005 1172.44-82.739 1185.39-112.35 1197.64-137.731 1209.19-158.882 1236.84-210.353 1258.36-237.144 1273.77-239.258 1279.37-239.961 1285.75-236.527 1292.93-228.957 1300.1-221.387 1304.57-214.256 1306.32-207.564 1309.46-196.294 1311.39-168.121 1312.09-123.046 1312.44-87.4792 1312.44-63.358 1312.09-50.6826 1312.09-47.8664 1312.97-43.3773 1314.73-37.2153 1316.48-31.0532 1317.36-26.5641 1317.36-23.7479 1317.36-15.294 1312.27-11.067 1302.08-11.067ZM1418.83-368.373C1416.37-363.103 1411.62-352.212 1404.6-335.699 1402.14-329.024 1400.38-321.646 1399.33-313.565 1398.62-307.592 1397.22-303.903 1395.11-302.498 1389.84-296.174 1384.92-295.12 1380.36-299.336 1377.54-301.795 1376.14-307.065 1376.14-315.146 1376.14-326.037 1379.13-337.807 1385.1-350.455 1385.45-351.158 1388.61-359.765 1394.58-376.278 1396.69-382.251 1400.38-385.237 1405.65-385.237 1415.49-385.237 1419.88-379.616 1418.83-368.373ZM1417.77-192.355C1410.39-124.548 1406.18-81.8607 1405.12-64.294 1404.42-50.9433 1405.3-40.4912 1407.76-32.9375 1410.22-25.3838 1411.45-21.08 1411.45-20.026 1411.45-17.5667 1410.92-14.4047 1409.87-10.54 1408.46-5.27 1404.25-2.635 1397.22-2.635 1393-2.635 1388.79-4.30383 1384.57-7.6415 1380.36-10.9792 1378.25-22.3097 1378.25-41.633 1378.25-42.687 1380-80.631 1383.52-155.465 1384.92-180.058 1385.8-193.585 1386.15-196.044 1388.26-208.692 1393-215.192 1400.38-215.543 1405.65-215.894 1410.04-213.874 1413.56-209.482 1417.07-205.091 1418.47-199.382 1417.77-192.355ZM1552.54-375.751C1555.35-372.589 1556.76-367.846 1556.76-361.522 1556.76-355.901 1554.65-339.212 1550.44-311.457 1544.46-270 1539.19-230.299 1534.63-192.355 1528.65-143.52 1525.67-96.0897 1525.67-50.065 1525.67-32.8497 1526.19-17.391 1527.25-3.689 1528.65 19.1477 1524.44 30.566 1514.6 30.566 1510.73 30.566 1506.61 29.0728 1502.21 26.0865 1497.82 23.1002 1495.63 8.60767 1495.63-17.391 1495.63-56.7403 1501.42-136.844 1513.02-257.703 1515.48-285.458 1517.94-313.214 1520.4-340.969 1522.5-362.752 1524.96-374.873 1527.77-377.332 1532.34-381.548 1536.21-383.656 1539.37-383.656 1543.23-383.656 1547.62-381.021 1552.54-375.751Z" fill="#FFFFFF" transform="matrix(1 0 0 1 339.503 595)"/></g></g><text fill="#FFFFFF" font-family="Marydale,Marydale_MSFontService,sans-serif" font-weight="400" font-size="527" transform="matrix(1 0 0 1 1653.17 932)">Pratomil</text></g></svg>