<svg width="1280" height="720" xmlns="http://www.w3.org/2000/svg" xmlns:xlink="http://www.w3.org/1999/xlink" overflow="hidden"><defs><filter id="fx0" x="-10%" y="-10%" width="120%" height="120%" filterUnits="userSpaceOnUse" primitiveUnits="userSpaceOnUse"><feComponentTransfer color-interpolation-filters="sRGB"><feFuncR type="discrete" tableValues="0 0"/><feFuncG type="discrete" tableValues="0 0"/><feFuncB type="discrete" tableValues="0 0"/><feFuncA type="linear" slope="0.4" intercept="0"/></feComponentTransfer><feGaussianBlur stdDeviation="1.77778 1.77778"/></filter><filter id="fx1" x="-10%" y="-10%" width="120%" height="120%" filterUnits="userSpaceOnUse" primitiveUnits="userSpaceOnUse"><feComponentTransfer color-interpolation-filters="sRGB"><feFuncR type="discrete" tableValues="0 0"/><feFuncG type="discrete" tableValues="0 0"/><feFuncB type="discrete" tableValues="0 0"/><feFuncA type="linear" slope="0.4" intercept="0"/></feComponentTransfer><feGaussianBlur stdDeviation="1.77778 1.77778"/></filter><clipPath id="clip2"><rect x="0" y="0" width="1280" height="720"/></clipPath><clipPath id="clip3"><path d="M614.441 317.098 1187.7 103.68 1381.7 624.778 808.439 838.196Z" fill-rule="evenodd" clip-rule="evenodd"/></clipPath><clipPath id="clip4"><path d="M614.441 317.098 1187.7 103.68 1381.7 624.778 808.439 838.196Z" fill-rule="evenodd" clip-rule="evenodd"/></clipPath><clipPath id="clip5"><path d="M614.441 317.098 1187.7 103.68 1381.7 624.778 808.439 838.196Z" fill-rule="evenodd" clip-rule="evenodd"/></clipPath><clipPath id="clip6"><path d="M471.5 311.5 471.5 360.5 809.5 360.5 809.5 311.5ZM1.90735e-05 1.07288e-05 1280 1.07288e-05 1280 720 1.90735e-05 720Z" fill-rule="evenodd" clip-rule="evenodd"/></clipPath><clipPath id="clip7"><rect x="19" y="17" width="302" height="43"/></clipPath></defs><g clip-path="url(#clip2)"><rect x="0" y="0" width="1280" height="720" fill="#FFFFFF"/><g clip-path="url(#clip3)"><g clip-path="url(#clip4)"><g clip-path="url(#clip5)"><path d="M455.256 181.871C530.553 97.3067 503.33 67.7671 503.33 67.7671 494.063 58.4998 479.583 58.4998 470.316 67.7671L250.796 287.286 59.6583 465.682C46.3365 479.004 46.3365 501.014 59.6583 514.914 72.98 528.236 94.9898 528.236 108.891 514.914L283.232 323.776C291.92 327.831 315.088 339.415 322.039 331.885L455.256 181.871Z" stroke="#FCF8EE" stroke-width="5.79206" fill="#FFFFFF" transform="matrix(1.03097 -0.383819 0.348894 0.937162 614.441 317.098)"/><path d="M514.335 465.682 362.004 321.46 338.836 347.524C334.781 351.578 327.831 356.791 316.826 357.37L465.682 514.914C479.583 528.236 501.593 528.236 514.914 514.914 527.657 501.014 527.657 479.004 514.335 465.682Z" stroke="#FCF8EE" stroke-width="5.79206" fill="#FFFFFF" transform="matrix(1.03097 -0.383819 0.348894 0.937162 614.441 317.098)"/><path d="M207.935 275.702C207.935 275.702 218.361 273.385 229.945 275.123L234.579 270.489 274.544 230.524C272.806 219.519 275.123 208.514 275.123 208.514 279.177 183.608 269.331 154.648 239.791 125.109 191.138 76.4552 121.633 31.2771 121.633 31.2771L111.208 41.7029 228.207 158.703C231.683 162.178 231.683 167.391 228.207 170.866 224.732 174.341 219.519 174.341 216.044 170.866L99.0443 53.8662 82.8265 70.084 199.826 187.084C203.301 190.559 203.301 195.772 199.826 199.247 196.351 202.722 191.138 202.722 187.663 199.247L70.6632 82.2473 54.4454 98.4651 171.445 215.465C174.92 218.94 174.92 224.153 171.445 227.628 167.97 231.103 162.757 231.103 159.282 227.628L41.7029 111.208 31.2771 121.633C31.2771 121.633 80.5097 195.772 124.529 240.371 154.069 269.91 183.029 279.757 207.935 275.702Z" stroke="#FCF8EE" stroke-width="5.79206" fill="#FFFFFF" transform="matrix(1.03097 -0.383819 0.348894 0.937162 614.441 317.098)"/></g></g></g><path d="M566 43.5 456.237 75.5741 456.237 11.4259ZM486.314-114.544 436.315-28.0801 381.113-73.4391ZM294-180 333.034-89.8086 254.966-89.8086ZM101.661-114.544 206.887-73.4391 151.685-28.0801ZM22 43.5 131.763 11.4259 131.763 75.5741ZM101.661 201.523 151.685 115.08 206.887 160.439ZM294 267 254.966 176.809 333.034 176.809ZM486.314 201.523 381.113 160.439 436.315 115.08ZM158 43.5C158-18.2178 218.889-68.25 294-68.25 369.111-68.25 430-18.2178 430 43.5 430 105.218 369.111 155.25 294 155.25 218.889 155.25 158 105.218 158 43.5Z" stroke="#FCF8EE" stroke-width="4" stroke-miterlimit="8" fill="#FFFFFF" fill-rule="evenodd"/><g clip-path="url(#clip6)"><g filter="url(#fx0)" transform="translate(468 304)"><g><rect x="7.50006" y="7.50006" width="338" height="49" stroke="#FEFCF8" stroke-miterlimit="8" fill="#CF7612"/></g></g><g clip-path="url(#clip7)" filter="url(#fx1)" transform="translate(474 300)"><g><path d="M12.2656-0.71875C12.2135-0.541667 12.1458-0.398438 12.0625-0.289062 11.9792-0.179688 11.8438-0.0963542 11.6562-0.0390625 11.4688 0.0182292 11.2135 0.0546875 10.8906 0.0703125 10.5677 0.0859375 10.1458 0.09375 9.625 0.09375 9.20833 0.09375 8.85156 0.0911458 8.55469 0.0859375 8.25781 0.0807292 8.00521 0.0677083 7.79688 0.046875 7.58854 0.0260417 7.41927-0.00520833 7.28906-0.046875 7.15885-0.0885417 7.04948-0.140625 6.96094-0.203125 6.8724-0.265625 6.80469-0.341146 6.75781-0.429688 6.71094-0.518229 6.66667-0.630208 6.625-0.765625L0.609375-18.6875C0.484375-19.0625 0.408854-19.3594 0.382812-19.5781 0.356771-19.7969 0.408854-19.9609 0.539062-20.0703 0.669271-20.1797 0.890625-20.2474 1.20312-20.2734 1.51562-20.2995 1.95312-20.3125 2.51562-20.3125 2.99479-20.3125 3.36979-20.3021 3.64062-20.2812 3.91146-20.2604 4.11979-20.224 4.26562-20.1719 4.41146-20.1198 4.51302-20.0417 4.57031-19.9375 4.6276-19.8333 4.68229-19.7031 4.73438-19.5469L9.65625-3.95312 9.67188-3.95312 14.5-19.4688C14.5417-19.6458 14.5938-19.7891 14.6562-19.8984 14.7188-20.0078 14.8255-20.0938 14.9766-20.1562 15.1276-20.2188 15.3438-20.2604 15.625-20.2812 15.9062-20.3021 16.2917-20.3125 16.7812-20.3125 17.2604-20.3125 17.6328-20.2969 17.8984-20.2656 18.1641-20.2344 18.3464-20.1589 18.4453-20.0391 18.5443-19.9193 18.5755-19.75 18.5391-19.5312 18.5026-19.3125 18.4219-19.0208 18.2969-18.6562ZM31.0771-0.484375C31.0771-0.338542 31.025-0.223958 30.9208-0.140625 30.8167-0.0572917 30.6526 0.00260417 30.4286 0.0390625 30.2047 0.0755208 29.874 0.09375 29.4365 0.09375 28.9677 0.09375 28.6266 0.0755208 28.413 0.0390625 28.1995 0.00260417 28.0484-0.0572917 27.9599-0.140625 27.8714-0.223958 27.8271-0.338542 27.8271-0.484375L27.8271-1.59375C27.2542-0.979167 26.6005-0.5 25.8661-0.15625 25.1318 0.1875 24.3167 0.359375 23.4208 0.359375 22.6812 0.359375 22.0016 0.263021 21.3818 0.0703125 20.762-0.122396 20.2255-0.408854 19.7724-0.789062 19.3193-1.16927 18.9677-1.64062 18.7177-2.20312 18.4677-2.76562 18.3427-3.42187 18.3427-4.17188 18.3427-4.98438 18.5016-5.6901 18.8193-6.28906 19.137-6.88802 19.6109-7.38281 20.2411-7.77344 20.8714-8.16406 21.6552-8.45312 22.5927-8.64062 23.5302-8.82812 24.6187-8.92188 25.8583-8.92188L27.2177-8.92188 27.2177-9.76562C27.2177-10.2031 27.1734-10.5859 27.0849-10.9141 26.9964-11.2422 26.8505-11.5156 26.6474-11.7344 26.4443-11.9531 26.1734-12.1146 25.8349-12.2188 25.4964-12.3229 25.0771-12.375 24.5771-12.375 23.9208-12.375 23.3349-12.3021 22.8193-12.1562 22.3036-12.0104 21.8479-11.849 21.4521-11.6719 21.0562-11.4948 20.7255-11.3333 20.4599-11.1875 20.1943-11.0417 19.9781-10.9688 19.8115-10.9688 19.6969-10.9688 19.5953-11.0052 19.5068-11.0781 19.4182-11.151 19.3453-11.2552 19.288-11.3906 19.2307-11.526 19.1865-11.6927 19.1552-11.8906 19.124-12.0885 19.1083-12.3073 19.1083-12.5469 19.1083-12.8698 19.1344-13.125 19.1865-13.3125 19.2385-13.5 19.3375-13.6693 19.4833-13.8203 19.6292-13.9714 19.8844-14.138 20.249-14.3203 20.6135-14.5026 21.0406-14.6719 21.5302-14.8281 22.0198-14.9844 22.5536-15.112 23.1318-15.2109 23.7099-15.3099 24.3062-15.3594 24.9208-15.3594 26.0146-15.3594 26.9495-15.2526 27.7255-15.0391 28.5016-14.8255 29.1396-14.4974 29.6396-14.0547 30.1396-13.612 30.5042-13.0417 30.7333-12.3438 30.9625-11.6458 31.0771-10.8177 31.0771-9.85938ZM27.2177-6.45312 25.7177-6.45312C25.0823-6.45312 24.5406-6.40625 24.0927-6.3125 23.6448-6.21875 23.2802-6.07812 22.999-5.89062 22.7177-5.70312 22.512-5.47656 22.3818-5.21094 22.2516-4.94531 22.1865-4.64062 22.1865-4.29688 22.1865-3.71354 22.3714-3.25521 22.7411-2.92188 23.1109-2.58854 23.624-2.42188 24.2802-2.42188 24.8323-2.42188 25.3401-2.5625 25.8036-2.84375 26.2672-3.125 26.7385-3.53646 27.2177-4.07812ZM57.2073-0.53125C57.2073-0.427083 57.176-0.335938 57.1135-0.257812 57.051-0.179688 56.9469-0.114583 56.801-0.0625 56.6552-0.0104167 56.4573 0.0286458 56.2073 0.0546875 55.9573 0.0807292 55.6396 0.09375 55.2542 0.09375 54.8583 0.09375 54.5354 0.0807292 54.2854 0.0546875 54.0354 0.0286458 53.8349-0.0104167 53.6839-0.0625 53.5328-0.114583 53.4286-0.179688 53.3714-0.257812 53.3141-0.335938 53.2854-0.427083 53.2854-0.53125L53.2854-8.79688C53.2854-9.26562 53.2411-9.69271 53.1526-10.0781 53.0641-10.4635 52.9286-10.7943 52.7464-11.0703 52.5641-11.3464 52.3349-11.5599 52.0589-11.7109 51.7828-11.862 51.4521-11.9375 51.0667-11.9375 50.5979-11.9375 50.124-11.7552 49.6448-11.3906 49.1656-11.026 48.6448-10.4948 48.0823-9.79688L48.0823-0.53125C48.0823-0.427083 48.051-0.335938 47.9885-0.257812 47.926-0.179688 47.8193-0.114583 47.6682-0.0625 47.5172-0.0104167 47.3167 0.0286458 47.0667 0.0546875 46.8167 0.0807292 46.5042 0.09375 46.1292 0.09375 45.7437 0.09375 45.426 0.0807292 45.176 0.0546875 44.926 0.0286458 44.7255-0.0104167 44.5745-0.0625 44.4234-0.114583 44.3167-0.179688 44.2542-0.257812 44.1917-0.335938 44.1604-0.427083 44.1604-0.53125L44.1604-8.79688C44.1604-9.26562 44.1161-9.69271 44.0276-10.0781 43.9391-10.4635 43.8062-10.7943 43.6292-11.0703 43.4521-11.3464 43.2229-11.5599 42.9417-11.7109 42.6604-11.862 42.3323-11.9375 41.9573-11.9375 41.4781-11.9375 40.999-11.7552 40.5198-11.3906 40.0406-11.026 39.525-10.4948 38.9729-9.79688L38.9729-0.53125C38.9729-0.427083 38.9417-0.335938 38.8792-0.257812 38.8167-0.179688 38.7099-0.114583 38.5589-0.0625 38.4078-0.0104167 38.2073 0.0286458 37.9573 0.0546875 37.7073 0.0807292 37.3896 0.09375 37.0042 0.09375 36.6187 0.09375 36.301 0.0807292 36.051 0.0546875 35.801 0.0286458 35.6005-0.0104167 35.4495-0.0625 35.2984-0.114583 35.1917-0.179688 35.1292-0.257812 35.0667-0.335938 35.0354-0.427083 35.0354-0.53125L35.0354-14.4688C35.0354-14.5729 35.0615-14.6641 35.1135-14.7422 35.1656-14.8203 35.2594-14.8854 35.3948-14.9375 35.5302-14.9896 35.7047-15.0286 35.9182-15.0547 36.1318-15.0807 36.4-15.0937 36.7229-15.0938 37.0562-15.0937 37.3323-15.0807 37.551-15.0547 37.7698-15.0286 37.9391-14.9896 38.0589-14.9375 38.1786-14.8854 38.2646-14.8203 38.3167-14.7422 38.3687-14.6641 38.3948-14.5729 38.3948-14.4688L38.3948-12.8594C39.1656-13.6927 39.9339-14.3177 40.6995-14.7344 41.4651-15.151 42.2646-15.3594 43.0979-15.3594 43.6708-15.3594 44.1865-15.2995 44.6448-15.1797 45.1031-15.0599 45.512-14.888 45.8714-14.6641 46.2307-14.4401 46.5406-14.1719 46.801-13.8594 47.0615-13.5469 47.2802-13.1979 47.4573-12.8125 47.874-13.2604 48.2828-13.6458 48.6839-13.9688 49.0849-14.2917 49.4807-14.5547 49.8714-14.7578 50.262-14.9609 50.6526-15.112 51.0432-15.2109 51.4339-15.3099 51.8323-15.3594 52.2385-15.3594 53.1656-15.3594 53.9469-15.2031 54.5823-14.8906 55.2177-14.5781 55.7307-14.1536 56.1214-13.6172 56.512-13.0807 56.7906-12.4531 56.9573-11.7344 57.124-11.0156 57.2073-10.2552 57.2073-9.45312ZM75.1292-7.64062C75.1292-6.45312 74.9729-5.36979 74.6604-4.39062 74.3479-3.41146 73.874-2.56771 73.2385-1.85938 72.6031-1.15104 71.8062-0.604167 70.8479-0.21875 69.8896 0.166667 68.7698 0.359375 67.4885 0.359375 66.249 0.359375 65.1708 0.1875 64.2542-0.15625 63.3375-0.5 62.5771-1 61.9729-1.65625 61.3687-2.3125 60.9208-3.11979 60.6292-4.07812 60.3375-5.03646 60.1917-6.13021 60.1917-7.35938 60.1917-8.54688 60.3505-9.63281 60.6682-10.6172 60.9859-11.6016 61.4625-12.4453 62.0979-13.1484 62.7333-13.8516 63.5276-14.3958 64.4807-14.7812 65.4339-15.1667 66.551-15.3594 67.8323-15.3594 69.0823-15.3594 70.1656-15.1901 71.0823-14.8516 71.999-14.513 72.7568-14.0156 73.3557-13.3594 73.9547-12.7031 74.4-11.8958 74.6917-10.9375 74.9833-9.97917 75.1292-8.88021 75.1292-7.64062ZM71.0823-7.48438C71.0823-8.17188 71.0276-8.80469 70.9182-9.38281 70.8089-9.96094 70.624-10.4635 70.3635-10.8906 70.1031-11.3177 69.7568-11.651 69.3245-11.8906 68.8922-12.1302 68.3479-12.25 67.6917-12.25 67.1083-12.25 66.5979-12.1432 66.1604-11.9297 65.7229-11.7161 65.3635-11.4036 65.0823-10.9922 64.801-10.5807 64.5901-10.0859 64.4495-9.50781 64.3089-8.92969 64.2385-8.27083 64.2385-7.53125 64.2385-6.84375 64.2958-6.21094 64.4104-5.63281 64.525-5.05469 64.7099-4.55208 64.9651-4.125 65.2203-3.69792 65.5667-3.36719 66.0042-3.13281 66.4417-2.89844 66.9833-2.78125 67.6292-2.78125 68.2229-2.78125 68.7385-2.88802 69.176-3.10156 69.6135-3.3151 69.9729-3.625 70.2542-4.03125 70.5354-4.4375 70.7437-4.92969 70.8792-5.50781 71.0146-6.08594 71.0823-6.74479 71.0823-7.48438ZM88.0146-4.46875C88.0146-3.67708 87.8661-2.97917 87.5693-2.375 87.2724-1.77083 86.8531-1.26562 86.3115-0.859375 85.7698-0.453125 85.1292-0.148437 84.3896 0.0546875 83.65 0.257812 82.8479 0.359375 81.9833 0.359375 81.4625 0.359375 80.9651 0.320312 80.4911 0.242188 80.0172 0.164062 79.5927 0.0651042 79.2177-0.0546875 78.8427-0.174479 78.5302-0.296875 78.2802-0.421875 78.0302-0.546875 77.8479-0.664062 77.7333-0.773438 77.6188-0.882812 77.5302-1.05469 77.4677-1.28906 77.4052-1.52344 77.374-1.86979 77.374-2.32812 77.374-2.63021 77.3844-2.8724 77.4052-3.05469 77.426-3.23698 77.4573-3.38281 77.499-3.49219 77.5406-3.60156 77.5927-3.67448 77.6552-3.71094 77.7177-3.7474 77.7958-3.76562 77.8896-3.76562 78.0042-3.76562 78.1734-3.70052 78.3974-3.57031 78.6214-3.4401 78.9-3.29687 79.2333-3.14062 79.5667-2.98438 79.9547-2.83854 80.3974-2.70312 80.8401-2.56771 81.3427-2.5 81.9052-2.5 82.2594-2.5 82.5745-2.53646 82.8505-2.60938 83.1266-2.68229 83.3661-2.78646 83.5693-2.92188 83.7724-3.05729 83.926-3.22917 84.0302-3.4375 84.1344-3.64583 84.1865-3.88542 84.1865-4.15625 84.1865-4.46875 84.0901-4.73698 83.8974-4.96094 83.7047-5.1849 83.4495-5.38021 83.1318-5.54688 82.8141-5.71354 82.4547-5.86979 82.0536-6.01562 81.6526-6.16146 81.2411-6.32292 80.8193-6.5 80.3974-6.67708 79.9859-6.88021 79.5849-7.10938 79.1839-7.33854 78.8245-7.61979 78.5068-7.95312 78.1891-8.28646 77.9339-8.6875 77.7411-9.15625 77.5484-9.625 77.4521-10.1875 77.4521-10.8438 77.4521-11.5104 77.5823-12.1224 77.8427-12.6797 78.1031-13.237 78.4781-13.7135 78.9677-14.1094 79.4573-14.5052 80.0536-14.8125 80.7568-15.0312 81.4599-15.25 82.249-15.3594 83.124-15.3594 83.5615-15.3594 83.9859-15.3281 84.3974-15.2656 84.8089-15.2031 85.1813-15.125 85.5146-15.0312 85.8479-14.9375 86.1292-14.8359 86.3583-14.7266 86.5875-14.6172 86.7516-14.5234 86.8505-14.4453 86.9495-14.3672 87.0198-14.2891 87.0615-14.2109 87.1031-14.1328 87.1344-14.0391 87.1552-13.9297 87.176-13.8203 87.1943-13.6849 87.2099-13.5234 87.2255-13.362 87.2333-13.1615 87.2333-12.9219 87.2333-12.6406 87.2255-12.4115 87.2099-12.2344 87.1943-12.0573 87.1682-11.9167 87.1318-11.8125 87.0953-11.7083 87.0458-11.638 86.9833-11.6016 86.9208-11.5651 86.8479-11.5469 86.7646-11.5469 86.6708-11.5469 86.525-11.6016 86.3271-11.7109 86.1292-11.8203 85.8818-11.9375 85.5849-12.0625 85.288-12.1875 84.9443-12.3047 84.5536-12.4141 84.163-12.5234 83.7177-12.5781 83.2177-12.5781 82.8635-12.5781 82.5563-12.5417 82.2958-12.4688 82.0354-12.3958 81.8219-12.2917 81.6552-12.1562 81.4885-12.0208 81.3635-11.862 81.2802-11.6797 81.1969-11.4974 81.1552-11.3021 81.1552-11.0938 81.1552-10.7708 81.2542-10.5 81.4521-10.2812 81.65-10.0625 81.9104-9.86979 82.2333-9.70312 82.5563-9.53646 82.9234-9.38021 83.3349-9.23438 83.7464-9.08854 84.163-8.92969 84.5849-8.75781 85.0068-8.58594 85.4234-8.38542 85.8349-8.15625 86.2464-7.92708 86.6135-7.64583 86.9365-7.3125 87.2594-6.97917 87.5198-6.58073 87.7177-6.11719 87.9156-5.65365 88.0146-5.10417 88.0146-4.46875ZM112.233-7.70312C112.233-6.46354 112.101-5.34635 111.835-4.35156 111.569-3.35677 111.181-2.51042 110.671-1.8125 110.16-1.11458 109.525-0.578125 108.765-0.203125 108.004 0.171875 107.134 0.359375 106.155 0.359375 105.749 0.359375 105.377 0.320312 105.038 0.242188 104.699 0.164062 104.371 0.0442708 104.054-0.117188 103.736-0.278646 103.421-0.479167 103.108-0.71875 102.796-0.958333 102.473-1.23958 102.14-1.5625L102.14 5C102.14 5.10417 102.108 5.19792 102.046 5.28125 101.983 5.36458 101.877 5.4349 101.726 5.49219 101.574 5.54948 101.374 5.59375 101.124 5.625 100.874 5.65625 100.556 5.67188 100.171 5.67188 99.7854 5.67188 99.4677 5.65625 99.2177 5.625 98.9677 5.59375 98.7672 5.54948 98.6161 5.49219 98.4651 5.4349 98.3583 5.36458 98.2958 5.28125 98.2333 5.19792 98.2021 5.10417 98.2021 5L98.2021-14.4688C98.2021-14.5729 98.2281-14.6641 98.2802-14.7422 98.3323-14.8203 98.4234-14.8854 98.5536-14.9375 98.6839-14.9896 98.8557-15.0286 99.0693-15.0547 99.2828-15.0807 99.551-15.0937 99.874-15.0938 100.186-15.0937 100.449-15.0807 100.663-15.0547 100.877-15.0286 101.048-14.9896 101.179-14.9375 101.309-14.8854 101.4-14.8203 101.452-14.7422 101.504-14.6641 101.53-14.5729 101.53-14.4688L101.53-12.8281C101.936-13.2448 102.335-13.612 102.726-13.9297 103.116-14.2474 103.515-14.513 103.921-14.7266 104.327-14.9401 104.746-15.099 105.179-15.2031 105.611-15.3073 106.072-15.3594 106.561-15.3594 107.582-15.3594 108.452-15.1589 109.171-14.7578 109.89-14.3568 110.476-13.8073 110.929-13.1094 111.382-12.4115 111.713-11.599 111.921-10.6719 112.129-9.74479 112.233-8.75521 112.233-7.70312ZM108.14-7.42188C108.14-8.01562 108.095-8.58594 108.007-9.13281 107.918-9.67969 107.767-10.1667 107.554-10.5938 107.34-11.0208 107.059-11.362 106.71-11.6172 106.361-11.8724 105.926-12 105.405-12 105.145-12 104.887-11.9609 104.632-11.8828 104.377-11.8047 104.116-11.6771 103.851-11.5 103.585-11.3229 103.311-11.0938 103.03-10.8125 102.749-10.5312 102.452-10.1823 102.14-9.76562L102.14-5.17188C102.692-4.47396 103.218-3.9349 103.718-3.55469 104.218-3.17448 104.739-2.98438 105.28-2.98438 105.791-2.98438 106.226-3.11458 106.585-3.375 106.944-3.63542 107.239-3.97656 107.468-4.39844 107.697-4.82031 107.866-5.29688 107.976-5.82812 108.085-6.35938 108.14-6.89062 108.14-7.42188ZM127.244-0.484375C127.244-0.338542 127.192-0.223958 127.088-0.140625 126.983-0.0572917 126.819 0.00260417 126.595 0.0390625 126.371 0.0755208 126.041 0.09375 125.603 0.09375 125.134 0.09375 124.793 0.0755208 124.58 0.0390625 124.366 0.00260417 124.215-0.0572917 124.127-0.140625 124.038-0.223958 123.994-0.338542 123.994-0.484375L123.994-1.59375C123.421-0.979167 122.767-0.5 122.033-0.15625 121.298 0.1875 120.483 0.359375 119.588 0.359375 118.848 0.359375 118.168 0.263021 117.548 0.0703125 116.929-0.122396 116.392-0.408854 115.939-0.789062 115.486-1.16927 115.134-1.64062 114.884-2.20312 114.634-2.76562 114.509-3.42187 114.509-4.17188 114.509-4.98438 114.668-5.6901 114.986-6.28906 115.304-6.88802 115.778-7.38281 116.408-7.77344 117.038-8.16406 117.822-8.45312 118.759-8.64062 119.697-8.82812 120.785-8.92188 122.025-8.92188L123.384-8.92188 123.384-9.76562C123.384-10.2031 123.34-10.5859 123.252-10.9141 123.163-11.2422 123.017-11.5156 122.814-11.7344 122.611-11.9531 122.34-12.1146 122.002-12.2188 121.663-12.3229 121.244-12.375 120.744-12.375 120.088-12.375 119.502-12.3021 118.986-12.1562 118.47-12.0104 118.015-11.849 117.619-11.6719 117.223-11.4948 116.892-11.3333 116.627-11.1875 116.361-11.0417 116.145-10.9688 115.978-10.9688 115.864-10.9688 115.762-11.0052 115.673-11.0781 115.585-11.151 115.512-11.2552 115.455-11.3906 115.397-11.526 115.353-11.6927 115.322-11.8906 115.291-12.0885 115.275-12.3073 115.275-12.5469 115.275-12.8698 115.301-13.125 115.353-13.3125 115.405-13.5 115.504-13.6693 115.65-13.8203 115.796-13.9714 116.051-14.138 116.416-14.3203 116.78-14.5026 117.207-14.6719 117.697-14.8281 118.186-14.9844 118.72-15.112 119.298-15.2109 119.877-15.3099 120.473-15.3594 121.088-15.3594 122.181-15.3594 123.116-15.2526 123.892-15.0391 124.668-14.8255 125.306-14.4974 125.806-14.0547 126.306-13.612 126.671-13.0417 126.9-12.3438 127.129-11.6458 127.244-10.8177 127.244-9.85938ZM123.384-6.45312 121.884-6.45312C121.249-6.45312 120.707-6.40625 120.259-6.3125 119.811-6.21875 119.447-6.07812 119.166-5.89062 118.884-5.70312 118.679-5.47656 118.548-5.21094 118.418-4.94531 118.353-4.64062 118.353-4.29688 118.353-3.71354 118.538-3.25521 118.908-2.92188 119.278-2.58854 119.791-2.42188 120.447-2.42188 120.999-2.42188 121.507-2.5625 121.97-2.84375 122.434-3.125 122.905-3.53646 123.384-4.07812ZM140.155-13.1719C140.155-12.7969 140.145-12.4896 140.124-12.25 140.103-12.0104 140.072-11.8229 140.03-11.6875 139.989-11.5521 139.934-11.4583 139.866-11.4062 139.798-11.3542 139.712-11.3281 139.608-11.3281 139.525-11.3281 139.431-11.3464 139.327-11.3828 139.223-11.4193 139.106-11.4583 138.976-11.5 138.845-11.5417 138.702-11.5807 138.546-11.6172 138.39-11.6536 138.218-11.6719 138.03-11.6719 137.811-11.6719 137.593-11.6276 137.374-11.5391 137.155-11.4505 136.929-11.3125 136.694-11.125 136.46-10.9375 136.215-10.6875 135.96-10.375 135.705-10.0625 135.431-9.67708 135.14-9.21875L135.14-0.53125C135.14-0.427083 135.108-0.335938 135.046-0.257812 134.983-0.179688 134.877-0.114583 134.726-0.0625 134.574-0.0104167 134.374 0.0286458 134.124 0.0546875 133.874 0.0807292 133.556 0.09375 133.171 0.09375 132.785 0.09375 132.468 0.0807292 132.218 0.0546875 131.968 0.0286458 131.767-0.0104167 131.616-0.0625 131.465-0.114583 131.358-0.179688 131.296-0.257812 131.233-0.335938 131.202-0.427083 131.202-0.53125L131.202-14.4688C131.202-14.5729 131.228-14.6641 131.28-14.7422 131.332-14.8203 131.426-14.8854 131.561-14.9375 131.697-14.9896 131.871-15.0286 132.085-15.0547 132.298-15.0807 132.567-15.0937 132.89-15.0938 133.223-15.0937 133.499-15.0807 133.718-15.0547 133.936-15.0286 134.106-14.9896 134.226-14.9375 134.345-14.8854 134.431-14.8203 134.483-14.7422 134.535-14.6641 134.561-14.5729 134.561-14.4688L134.561-12.7344C134.926-13.2552 135.27-13.6849 135.593-14.0234 135.916-14.362 136.223-14.6302 136.515-14.8281 136.806-15.026 137.098-15.1641 137.39-15.2422 137.681-15.3203 137.973-15.3594 138.265-15.3594 138.4-15.3594 138.546-15.3516 138.702-15.3359 138.858-15.3203 139.02-15.2943 139.186-15.2578 139.353-15.2214 139.499-15.1797 139.624-15.1328 139.749-15.0859 139.84-15.0365 139.897-14.9844 139.955-14.9323 139.996-14.875 140.022-14.8125 140.048-14.75 140.072-14.6641 140.093-14.5547 140.114-14.4453 140.129-14.2812 140.14-14.0625 140.15-13.8437 140.155-13.5469 140.155-13.1719ZM153.71-0.484375C153.71-0.338542 153.658-0.223958 153.554-0.140625 153.45-0.0572917 153.286 0.00260417 153.062 0.0390625 152.838 0.0755208 152.507 0.09375 152.07 0.09375 151.601 0.09375 151.26 0.0755208 151.046 0.0390625 150.833 0.00260417 150.682-0.0572917 150.593-0.140625 150.505-0.223958 150.46-0.338542 150.46-0.484375L150.46-1.59375C149.887-0.979167 149.234-0.5 148.499-0.15625 147.765 0.1875 146.95 0.359375 146.054 0.359375 145.315 0.359375 144.635 0.263021 144.015 0.0703125 143.395-0.122396 142.859-0.408854 142.406-0.789062 141.953-1.16927 141.601-1.64062 141.351-2.20312 141.101-2.76562 140.976-3.42187 140.976-4.17188 140.976-4.98438 141.135-5.6901 141.453-6.28906 141.77-6.88802 142.244-7.38281 142.874-7.77344 143.505-8.16406 144.289-8.45312 145.226-8.64062 146.164-8.82812 147.252-8.92188 148.492-8.92188L149.851-8.92188 149.851-9.76562C149.851-10.2031 149.807-10.5859 149.718-10.9141 149.63-11.2422 149.484-11.5156 149.281-11.7344 149.078-11.9531 148.807-12.1146 148.468-12.2188 148.13-12.3229 147.71-12.375 147.21-12.375 146.554-12.375 145.968-12.3021 145.453-12.1562 144.937-12.0104 144.481-11.849 144.085-11.6719 143.69-11.4948 143.359-11.3333 143.093-11.1875 142.828-11.0417 142.611-10.9688 142.445-10.9688 142.33-10.9688 142.229-11.0052 142.14-11.0781 142.052-11.151 141.979-11.2552 141.921-11.3906 141.864-11.526 141.82-11.6927 141.789-11.8906 141.757-12.0885 141.742-12.3073 141.742-12.5469 141.742-12.8698 141.768-13.125 141.82-13.3125 141.872-13.5 141.971-13.6693 142.117-13.8203 142.262-13.9714 142.518-14.138 142.882-14.3203 143.247-14.5026 143.674-14.6719 144.164-14.8281 144.653-14.9844 145.187-15.112 145.765-15.2109 146.343-15.3099 146.94-15.3594 147.554-15.3594 148.648-15.3594 149.583-15.2526 150.359-15.0391 151.135-14.8255 151.773-14.4974 152.273-14.0547 152.773-13.612 153.137-13.0417 153.367-12.3438 153.596-11.6458 153.71-10.8177 153.71-9.85938ZM149.851-6.45312 148.351-6.45312C147.716-6.45312 147.174-6.40625 146.726-6.3125 146.278-6.21875 145.914-6.07812 145.632-5.89062 145.351-5.70312 145.145-5.47656 145.015-5.21094 144.885-4.94531 144.82-4.64062 144.82-4.29688 144.82-3.71354 145.005-3.25521 145.374-2.92188 145.744-2.58854 146.257-2.42188 146.914-2.42188 147.466-2.42188 147.973-2.5625 148.437-2.84375 148.901-3.125 149.372-3.53646 149.851-4.07812ZM176.71-0.484375C176.71-0.338542 176.658-0.223958 176.554-0.140625 176.45-0.0572917 176.286 0.00260417 176.062 0.0390625 175.838 0.0755208 175.507 0.09375 175.07 0.09375 174.601 0.09375 174.26 0.0755208 174.046 0.0390625 173.833 0.00260417 173.682-0.0572917 173.593-0.140625 173.505-0.223958 173.46-0.338542 173.46-0.484375L173.46-1.59375C172.887-0.979167 172.234-0.5 171.499-0.15625 170.765 0.1875 169.95 0.359375 169.054 0.359375 168.315 0.359375 167.635 0.263021 167.015 0.0703125 166.395-0.122396 165.859-0.408854 165.406-0.789062 164.953-1.16927 164.601-1.64062 164.351-2.20312 164.101-2.76562 163.976-3.42187 163.976-4.17188 163.976-4.98438 164.135-5.6901 164.453-6.28906 164.77-6.88802 165.244-7.38281 165.874-7.77344 166.505-8.16406 167.289-8.45312 168.226-8.64062 169.164-8.82812 170.252-8.92188 171.492-8.92188L172.851-8.92188 172.851-9.76562C172.851-10.2031 172.807-10.5859 172.718-10.9141 172.63-11.2422 172.484-11.5156 172.281-11.7344 172.078-11.9531 171.807-12.1146 171.468-12.2188 171.13-12.3229 170.71-12.375 170.21-12.375 169.554-12.375 168.968-12.3021 168.453-12.1562 167.937-12.0104 167.481-11.849 167.085-11.6719 166.69-11.4948 166.359-11.3333 166.093-11.1875 165.828-11.0417 165.611-10.9688 165.445-10.9688 165.33-10.9688 165.229-11.0052 165.14-11.0781 165.052-11.151 164.979-11.2552 164.921-11.3906 164.864-11.526 164.82-11.6927 164.789-11.8906 164.757-12.0885 164.742-12.3073 164.742-12.5469 164.742-12.8698 164.768-13.125 164.82-13.3125 164.872-13.5 164.971-13.6693 165.117-13.8203 165.262-13.9714 165.518-14.138 165.882-14.3203 166.247-14.5026 166.674-14.6719 167.164-14.8281 167.653-14.9844 168.187-15.112 168.765-15.2109 169.343-15.3099 169.94-15.3594 170.554-15.3594 171.648-15.3594 172.583-15.2526 173.359-15.0391 174.135-14.8255 174.773-14.4974 175.273-14.0547 175.773-13.612 176.137-13.0417 176.367-12.3438 176.596-11.6458 176.71-10.8177 176.71-9.85938ZM172.851-6.45312 171.351-6.45312C170.716-6.45312 170.174-6.40625 169.726-6.3125 169.278-6.21875 168.914-6.07812 168.632-5.89062 168.351-5.70312 168.145-5.47656 168.015-5.21094 167.885-4.94531 167.82-4.64062 167.82-4.29688 167.82-3.71354 168.005-3.25521 168.374-2.92188 168.744-2.58854 169.257-2.42188 169.914-2.42188 170.466-2.42188 170.973-2.5625 171.437-2.84375 171.901-3.125 172.372-3.53646 172.851-4.07812ZM201.867-7.70312C201.867-6.46354 201.734-5.34635 201.468-4.35156 201.203-3.35677 200.815-2.51042 200.304-1.8125 199.794-1.11458 199.158-0.578125 198.398-0.203125 197.637 0.171875 196.768 0.359375 195.789 0.359375 195.382 0.359375 195.01 0.320312 194.671 0.242188 194.333 0.164062 194.005 0.0442708 193.687-0.117188 193.369-0.278646 193.054-0.479167 192.742-0.71875 192.429-0.958333 192.106-1.23958 191.773-1.5625L191.773 5C191.773 5.10417 191.742 5.19792 191.679 5.28125 191.617 5.36458 191.51 5.4349 191.359 5.49219 191.208 5.54948 191.007 5.59375 190.757 5.625 190.507 5.65625 190.19 5.67188 189.804 5.67188 189.419 5.67188 189.101 5.65625 188.851 5.625 188.601 5.59375 188.401 5.54948 188.249 5.49219 188.098 5.4349 187.992 5.36458 187.929 5.28125 187.867 5.19792 187.835 5.10417 187.835 5L187.835-14.4688C187.835-14.5729 187.861-14.6641 187.914-14.7422 187.966-14.8203 188.057-14.8854 188.187-14.9375 188.317-14.9896 188.489-15.0286 188.703-15.0547 188.916-15.0807 189.184-15.0937 189.507-15.0938 189.82-15.0937 190.083-15.0807 190.296-15.0547 190.51-15.0286 190.682-14.9896 190.812-14.9375 190.942-14.8854 191.033-14.8203 191.085-14.7422 191.137-14.6641 191.164-14.5729 191.164-14.4688L191.164-12.8281C191.57-13.2448 191.968-13.612 192.359-13.9297 192.749-14.2474 193.148-14.513 193.554-14.7266 193.96-14.9401 194.38-15.099 194.812-15.2031 195.244-15.3073 195.705-15.3594 196.195-15.3594 197.216-15.3594 198.085-15.1589 198.804-14.7578 199.523-14.3568 200.109-13.8073 200.562-13.1094 201.015-12.4115 201.346-11.599 201.554-10.6719 201.762-9.74479 201.867-8.75521 201.867-7.70312ZM197.773-7.42188C197.773-8.01562 197.729-8.58594 197.64-9.13281 197.552-9.67969 197.401-10.1667 197.187-10.5938 196.973-11.0208 196.692-11.362 196.343-11.6172 195.994-11.8724 195.559-12 195.039-12 194.778-12 194.52-11.9609 194.265-11.8828 194.01-11.8047 193.749-11.6771 193.484-11.5 193.218-11.3229 192.945-11.0938 192.664-10.8125 192.382-10.5312 192.085-10.1823 191.773-9.76562L191.773-5.17188C192.325-4.47396 192.851-3.9349 193.351-3.55469 193.851-3.17448 194.372-2.98438 194.914-2.98438 195.424-2.98438 195.859-3.11458 196.218-3.375 196.578-3.63542 196.872-3.97656 197.101-4.39844 197.33-4.82031 197.499-5.29688 197.609-5.82812 197.718-6.35938 197.773-6.89062 197.773-7.42188ZM213.955-13.1719C213.955-12.7969 213.945-12.4896 213.924-12.25 213.903-12.0104 213.872-11.8229 213.83-11.6875 213.789-11.5521 213.734-11.4583 213.666-11.4062 213.598-11.3542 213.513-11.3281 213.408-11.3281 213.325-11.3281 213.231-11.3464 213.127-11.3828 213.023-11.4193 212.906-11.4583 212.776-11.5 212.645-11.5417 212.502-11.5807 212.346-11.6172 212.19-11.6536 212.018-11.6719 211.83-11.6719 211.611-11.6719 211.393-11.6276 211.174-11.5391 210.955-11.4505 210.729-11.3125 210.494-11.125 210.26-10.9375 210.015-10.6875 209.76-10.375 209.505-10.0625 209.231-9.67708 208.94-9.21875L208.94-0.53125C208.94-0.427083 208.908-0.335938 208.846-0.257812 208.783-0.179688 208.677-0.114583 208.526-0.0625 208.374-0.0104167 208.174 0.0286458 207.924 0.0546875 207.674 0.0807292 207.356 0.09375 206.971 0.09375 206.585 0.09375 206.268 0.0807292 206.018 0.0546875 205.768 0.0286458 205.567-0.0104167 205.416-0.0625 205.265-0.114583 205.158-0.179688 205.096-0.257812 205.033-0.335938 205.002-0.427083 205.002-0.53125L205.002-14.4688C205.002-14.5729 205.028-14.6641 205.08-14.7422 205.132-14.8203 205.226-14.8854 205.361-14.9375 205.497-14.9896 205.671-15.0286 205.885-15.0547 206.098-15.0807 206.367-15.0937 206.69-15.0938 207.023-15.0937 207.299-15.0807 207.518-15.0547 207.736-15.0286 207.906-14.9896 208.026-14.9375 208.145-14.8854 208.231-14.8203 208.283-14.7422 208.335-14.6641 208.361-14.5729 208.361-14.4688L208.361-12.7344C208.726-13.2552 209.07-13.6849 209.393-14.0234 209.716-14.362 210.023-14.6302 210.315-14.8281 210.606-15.026 210.898-15.1641 211.19-15.2422 211.481-15.3203 211.773-15.3594 212.065-15.3594 212.2-15.3594 212.346-15.3516 212.502-15.3359 212.658-15.3203 212.82-15.2943 212.986-15.2578 213.153-15.2214 213.299-15.1797 213.424-15.1328 213.549-15.0859 213.64-15.0365 213.697-14.9844 213.755-14.9323 213.796-14.875 213.822-14.8125 213.848-14.75 213.872-14.6641 213.893-14.5547 213.914-14.4453 213.929-14.2812 213.94-14.0625 213.95-13.8437 213.955-13.5469 213.955-13.1719ZM227.51-0.484375C227.51-0.338542 227.458-0.223958 227.354-0.140625 227.25-0.0572917 227.086 0.00260417 226.862 0.0390625 226.638 0.0755208 226.307 0.09375 225.87 0.09375 225.401 0.09375 225.06 0.0755208 224.846 0.0390625 224.633 0.00260417 224.482-0.0572917 224.393-0.140625 224.305-0.223958 224.26-0.338542 224.26-0.484375L224.26-1.59375C223.688-0.979167 223.034-0.5 222.299-0.15625 221.565 0.1875 220.75 0.359375 219.854 0.359375 219.115 0.359375 218.435 0.263021 217.815 0.0703125 217.195-0.122396 216.659-0.408854 216.206-0.789062 215.753-1.16927 215.401-1.64062 215.151-2.20312 214.901-2.76562 214.776-3.42187 214.776-4.17188 214.776-4.98438 214.935-5.6901 215.253-6.28906 215.57-6.88802 216.044-7.38281 216.674-7.77344 217.305-8.16406 218.089-8.45312 219.026-8.64062 219.964-8.82812 221.052-8.92188 222.292-8.92188L223.651-8.92188 223.651-9.76562C223.651-10.2031 223.607-10.5859 223.518-10.9141 223.43-11.2422 223.284-11.5156 223.081-11.7344 222.878-11.9531 222.607-12.1146 222.268-12.2188 221.93-12.3229 221.51-12.375 221.01-12.375 220.354-12.375 219.768-12.3021 219.253-12.1562 218.737-12.0104 218.281-11.849 217.885-11.6719 217.49-11.4948 217.159-11.3333 216.893-11.1875 216.628-11.0417 216.411-10.9688 216.245-10.9688 216.13-10.9688 216.029-11.0052 215.94-11.0781 215.852-11.151 215.779-11.2552 215.721-11.3906 215.664-11.526 215.62-11.6927 215.589-11.8906 215.557-12.0885 215.542-12.3073 215.542-12.5469 215.542-12.8698 215.568-13.125 215.62-13.3125 215.672-13.5 215.771-13.6693 215.917-13.8203 216.062-13.9714 216.318-14.138 216.682-14.3203 217.047-14.5026 217.474-14.6719 217.964-14.8281 218.453-14.9844 218.987-15.112 219.565-15.2109 220.143-15.3099 220.74-15.3594 221.354-15.3594 222.448-15.3594 223.383-15.2526 224.159-15.0391 224.935-14.8255 225.573-14.4974 226.073-14.0547 226.573-13.612 226.938-13.0417 227.167-12.3438 227.396-11.6458 227.51-10.8177 227.51-9.85938ZM223.651-6.45312 222.151-6.45312C221.516-6.45312 220.974-6.40625 220.526-6.3125 220.078-6.21875 219.714-6.07812 219.432-5.89062 219.151-5.70312 218.945-5.47656 218.815-5.21094 218.685-4.94531 218.62-4.64062 218.62-4.29688 218.62-3.71354 218.805-3.25521 219.174-2.92188 219.544-2.58854 220.057-2.42188 220.714-2.42188 221.266-2.42188 221.773-2.5625 222.237-2.84375 222.701-3.125 223.172-3.53646 223.651-4.07812ZM222.276-21.3125C222.349-21.4271 222.438-21.526 222.542-21.6094 222.646-21.6927 222.776-21.7578 222.932-21.8047 223.089-21.8516 223.286-21.8854 223.526-21.9062 223.766-21.9271 224.057-21.9375 224.401-21.9375 224.88-21.9375 225.258-21.9167 225.534-21.875 225.81-21.8333 226.008-21.7734 226.128-21.6953 226.247-21.6172 226.302-21.526 226.292-21.4219 226.281-21.3177 226.229-21.2083 226.135-21.0938L223.104-17.4688C223.021-17.3646 222.938-17.2786 222.854-17.2109 222.771-17.1432 222.664-17.0885 222.534-17.0469 222.404-17.0052 222.24-16.974 222.042-16.9531 221.844-16.9323 221.594-16.9219 221.292-16.9219 220.927-16.9219 220.638-16.9375 220.424-16.9688 220.211-17 220.062-17.0495 219.979-17.1172 219.896-17.1849 219.862-17.2708 219.878-17.375 219.893-17.4792 219.948-17.599 220.042-17.7344ZM239.419-1.90625C239.419-1.44792 239.39-1.09635 239.333-0.851562 239.276-0.606771 239.2-0.434896 239.106-0.335938 239.012-0.236979 238.874-0.148438 238.692-0.0703125 238.51 0.0078125 238.296 0.0755208 238.052 0.132812 237.807 0.190104 237.541 0.234375 237.255 0.265625 236.968 0.296875 236.679 0.3125 236.388 0.3125 235.606 0.3125 234.929 0.213542 234.356 0.015625 233.783-0.182292 233.309-0.486979 232.934-0.898438 232.559-1.3099 232.283-1.82812 232.106-2.45312 231.929-3.07812 231.841-3.81771 231.841-4.67188L231.841-11.8125 230.169-11.8125C229.971-11.8125 229.82-11.9349 229.716-12.1797 229.611-12.4245 229.559-12.8333 229.559-13.4062 229.559-13.7083 229.572-13.9635 229.598-14.1719 229.624-14.3802 229.664-14.5443 229.716-14.6641 229.768-14.7839 229.833-14.8698 229.911-14.9219 229.989-14.974 230.08-15 230.184-15L231.841-15 231.841-18.1094C231.841-18.2135 231.869-18.3073 231.927-18.3906 231.984-18.474 232.088-18.5443 232.239-18.6016 232.39-18.6589 232.593-18.7005 232.848-18.7266 233.104-18.7526 233.419-18.7656 233.794-18.7656 234.179-18.7656 234.499-18.7526 234.755-18.7266 235.01-18.7005 235.21-18.6589 235.356-18.6016 235.502-18.5443 235.606-18.474 235.669-18.3906 235.731-18.3073 235.763-18.2135 235.763-18.1094L235.763-15 238.794-15C238.898-15 238.989-14.974 239.067-14.9219 239.145-14.8698 239.21-14.7839 239.263-14.6641 239.315-14.5443 239.354-14.3802 239.38-14.1719 239.406-13.9635 239.419-13.7083 239.419-13.4062 239.419-12.8333 239.367-12.4245 239.263-12.1797 239.158-11.9349 239.007-11.8125 238.809-11.8125L235.763-11.8125 235.763-5.26562C235.763-4.50521 235.882-3.9349 236.122-3.55469 236.361-3.17448 236.789-2.98438 237.403-2.98438 237.611-2.98438 237.799-3.0026 237.966-3.03906 238.132-3.07552 238.281-3.11719 238.411-3.16406 238.541-3.21094 238.651-3.2526 238.739-3.28906 238.828-3.32552 238.908-3.34375 238.981-3.34375 239.044-3.34375 239.104-3.32552 239.161-3.28906 239.218-3.2526 239.262-3.17969 239.294-3.07031 239.325-2.96094 239.354-2.8125 239.38-2.625 239.406-2.4375 239.419-2.19792 239.419-1.90625ZM246.273-0.53125C246.273-0.427083 246.242-0.335938 246.179-0.257812 246.117-0.179688 246.01-0.114583 245.859-0.0625 245.708-0.0104167 245.507 0.0286458 245.257 0.0546875 245.007 0.0807292 244.69 0.09375 244.304 0.09375 243.919 0.09375 243.601 0.0807292 243.351 0.0546875 243.101 0.0286458 242.901-0.0104167 242.749-0.0625 242.598-0.114583 242.492-0.179688 242.429-0.257812 242.367-0.335938 242.335-0.427083 242.335-0.53125L242.335-14.4375C242.335-14.5417 242.367-14.6328 242.429-14.7109 242.492-14.7891 242.598-14.8568 242.749-14.9141 242.901-14.9714 243.101-15.0156 243.351-15.0469 243.601-15.0781 243.919-15.0937 244.304-15.0938 244.69-15.0937 245.007-15.0781 245.257-15.0469 245.507-15.0156 245.708-14.9714 245.859-14.9141 246.01-14.8568 246.117-14.7891 246.179-14.7109 246.242-14.6328 246.273-14.5417 246.273-14.4375ZM246.57-19.1875C246.57-18.3958 246.408-17.849 246.085-17.5469 245.763-17.2448 245.164-17.0938 244.289-17.0938 243.403-17.0938 242.807-17.2396 242.499-17.5312 242.192-17.8229 242.039-18.349 242.039-19.1094 242.039-19.901 242.197-20.4505 242.515-20.7578 242.833-21.0651 243.434-21.2188 244.32-21.2188 245.195-21.2188 245.789-21.0703 246.101-20.7734 246.414-20.4766 246.57-19.9479 246.57-19.1875ZM260.716-2.75C260.716-2.47917 260.708-2.2526 260.692-2.07031 260.677-1.88802 260.656-1.73438 260.63-1.60938 260.604-1.48438 260.572-1.38281 260.536-1.30469 260.499-1.22656 260.419-1.1276 260.294-1.00781 260.169-0.888021 259.955-0.742188 259.653-0.570312 259.351-0.398438 259.007-0.244792 258.622-0.109375 258.236 0.0260417 257.817 0.135417 257.364 0.21875 256.911 0.302083 256.445 0.34375 255.966 0.34375 254.893 0.34375 253.942 0.177083 253.114-0.15625 252.286-0.489583 251.591-0.981771 251.028-1.63281 250.466-2.28385 250.041-3.07812 249.755-4.01562 249.468-4.95312 249.325-6.02604 249.325-7.23438 249.325-8.63021 249.499-9.83594 249.848-10.8516 250.197-11.8672 250.684-12.7083 251.309-13.375 251.934-14.0417 252.674-14.5365 253.528-14.8594 254.382-15.1823 255.32-15.3438 256.341-15.3438 256.757-15.3438 257.166-15.3073 257.567-15.2344 257.968-15.1615 258.343-15.0625 258.692-14.9375 259.041-14.8125 259.354-14.6719 259.63-14.5156 259.906-14.3594 260.101-14.224 260.216-14.1094 260.33-13.9948 260.411-13.8984 260.458-13.8203 260.505-13.7422 260.541-13.6406 260.567-13.5156 260.593-13.3906 260.614-13.237 260.63-13.0547 260.645-12.8724 260.653-12.651 260.653-12.3906 260.653-11.7865 260.601-11.362 260.497-11.1172 260.393-10.8724 260.257-10.75 260.091-10.75 259.914-10.75 259.726-10.8229 259.528-10.9688 259.33-11.1146 259.096-11.276 258.825-11.4531 258.554-11.6302 258.231-11.7917 257.856-11.9375 257.481-12.0833 257.033-12.1562 256.513-12.1562 255.492-12.1562 254.71-11.763 254.169-10.9766 253.627-10.1901 253.356-9.03646 253.356-7.51562 253.356-6.76562 253.424-6.10417 253.559-5.53125 253.695-4.95833 253.895-4.47917 254.161-4.09375 254.427-3.70833 254.76-3.41927 255.161-3.22656 255.562-3.03385 256.028-2.9375 256.559-2.9375 257.101-2.9375 257.567-3.01823 257.958-3.17969 258.348-3.34115 258.69-3.52083 258.981-3.71875 259.273-3.91667 259.518-4.09635 259.716-4.25781 259.914-4.41927 260.08-4.5 260.216-4.5 260.309-4.5 260.388-4.47396 260.45-4.42188 260.513-4.36979 260.562-4.27344 260.598-4.13281 260.635-3.99219 260.664-3.8125 260.684-3.59375 260.705-3.375 260.716-3.09375 260.716-2.75ZM275.19-0.484375C275.19-0.338542 275.138-0.223958 275.034-0.140625 274.93-0.0572917 274.766 0.00260417 274.542 0.0390625 274.318 0.0755208 273.987 0.09375 273.55 0.09375 273.081 0.09375 272.74 0.0755208 272.526 0.0390625 272.313 0.00260417 272.162-0.0572917 272.073-0.140625 271.985-0.223958 271.94-0.338542 271.94-0.484375L271.94-1.59375C271.367-0.979167 270.714-0.5 269.979-0.15625 269.245 0.1875 268.43 0.359375 267.534 0.359375 266.795 0.359375 266.115 0.263021 265.495 0.0703125 264.875-0.122396 264.339-0.408854 263.886-0.789062 263.433-1.16927 263.081-1.64062 262.831-2.20312 262.581-2.76562 262.456-3.42187 262.456-4.17188 262.456-4.98438 262.615-5.6901 262.933-6.28906 263.25-6.88802 263.724-7.38281 264.354-7.77344 264.985-8.16406 265.769-8.45312 266.706-8.64062 267.644-8.82812 268.732-8.92188 269.972-8.92188L271.331-8.92188 271.331-9.76562C271.331-10.2031 271.287-10.5859 271.198-10.9141 271.11-11.2422 270.964-11.5156 270.761-11.7344 270.558-11.9531 270.287-12.1146 269.948-12.2188 269.61-12.3229 269.19-12.375 268.69-12.375 268.034-12.375 267.448-12.3021 266.933-12.1562 266.417-12.0104 265.961-11.849 265.565-11.6719 265.17-11.4948 264.839-11.3333 264.573-11.1875 264.308-11.0417 264.091-10.9688 263.925-10.9688 263.81-10.9688 263.709-11.0052 263.62-11.0781 263.532-11.151 263.459-11.2552 263.401-11.3906 263.344-11.526 263.3-11.6927 263.269-11.8906 263.237-12.0885 263.222-12.3073 263.222-12.5469 263.222-12.8698 263.248-13.125 263.3-13.3125 263.352-13.5 263.451-13.6693 263.597-13.8203 263.742-13.9714 263.998-14.138 264.362-14.3203 264.727-14.5026 265.154-14.6719 265.644-14.8281 266.133-14.9844 266.667-15.112 267.245-15.2109 267.823-15.3099 268.42-15.3594 269.034-15.3594 270.128-15.3594 271.063-15.2526 271.839-15.0391 272.615-14.8255 273.253-14.4974 273.753-14.0547 274.253-13.612 274.617-13.0417 274.847-12.3438 275.076-11.6458 275.19-10.8177 275.19-9.85938ZM271.331-6.45312 269.831-6.45312C269.196-6.45312 268.654-6.40625 268.206-6.3125 267.758-6.21875 267.394-6.07812 267.112-5.89062 266.831-5.70312 266.625-5.47656 266.495-5.21094 266.365-4.94531 266.3-4.64062 266.3-4.29688 266.3-3.71354 266.485-3.25521 266.854-2.92188 267.224-2.58854 267.737-2.42188 268.394-2.42188 268.946-2.42188 269.453-2.5625 269.917-2.84375 270.381-3.125 270.852-3.53646 271.331-4.07812ZM284.696-6.625C284.685-6.52083 284.654-6.42708 284.602-6.34375 284.55-6.26042 284.459-6.1901 284.328-6.13281 284.198-6.07552 284.021-6.03125 283.797-6 283.573-5.96875 283.3-5.95312 282.977-5.95312 282.644-5.95312 282.367-5.96875 282.149-6 281.93-6.03125 281.756-6.07552 281.625-6.13281 281.495-6.1901 281.404-6.26042 281.352-6.34375 281.3-6.42708 281.269-6.52083 281.258-6.625L280.852-20.8125C280.852-20.9479 280.883-21.0677 280.946-21.1719 281.008-21.276 281.12-21.362 281.282-21.4297 281.443-21.4974 281.662-21.5469 281.938-21.5781 282.214-21.6094 282.56-21.625 282.977-21.625 283.394-21.625 283.737-21.6068 284.008-21.5703 284.279-21.5339 284.495-21.4818 284.657-21.4141 284.818-21.3464 284.933-21.263 285-21.1641 285.068-21.0651 285.102-20.9479 285.102-20.8125ZM285.18-2.04688C285.18-1.61979 285.146-1.26042 285.078-0.96875 285.011-0.677083 284.891-0.442708 284.719-0.265625 284.547-0.0885417 284.321 0.0390625 284.039 0.117188 283.758 0.195312 283.404 0.234375 282.977 0.234375 282.55 0.234375 282.193 0.195312 281.907 0.117188 281.62 0.0390625 281.394-0.0885417 281.227-0.265625 281.06-0.442708 280.943-0.677083 280.875-0.96875 280.808-1.26042 280.774-1.61979 280.774-2.04688 280.774-2.48438 280.808-2.85156 280.875-3.14844 280.943-3.44531 281.06-3.6849 281.227-3.86719 281.394-4.04948 281.62-4.17969 281.907-4.25781 282.193-4.33594 282.55-4.375 282.977-4.375 283.404-4.375 283.758-4.33594 284.039-4.25781 284.321-4.17969 284.547-4.04948 284.719-3.86719 284.891-3.6849 285.011-3.44531 285.078-3.14844 285.146-2.85156 285.18-2.48438 285.18-2.04688Z" fill="#FFFFFF" transform="translate(26.1599 46)"/></g></g></g><rect x="471.5" y="311.5" width="338" height="49" stroke="#FEFCF8" stroke-width="1.33333" stroke-miterlimit="8" fill="#CF7612"/><text fill="#FFFFFF" font-family="Calibri,Calibri_MSFontService,sans-serif" font-weight="700" font-size="32" transform="translate(496.16 346)">Vamos para a prática!</text></g></svg>