<svg width="1280" height="720" xmlns="http://www.w3.org/2000/svg" xmlns:xlink="http://www.w3.org/1999/xlink" overflow="hidden"><defs><filter id="fx0" x="-10%" y="-10%" width="120%" height="120%" filterUnits="userSpaceOnUse" primitiveUnits="userSpaceOnUse"><feComponentTransfer color-interpolation-filters="sRGB"><feFuncR type="discrete" tableValues="0 0"/><feFuncG type="discrete" tableValues="0 0"/><feFuncB type="discrete" tableValues="0 0"/><feFuncA type="linear" slope="0.4" intercept="0"/></feComponentTransfer><feGaussianBlur stdDeviation="1.77778 1.77778"/></filter><filter id="fx1" x="-10%" y="-10%" width="120%" height="120%" filterUnits="userSpaceOnUse" primitiveUnits="userSpaceOnUse"><feComponentTransfer color-interpolation-filters="sRGB"><feFuncR type="discrete" tableValues="0 0"/><feFuncG type="discrete" tableValues="0 0"/><feFuncB type="discrete" tableValues="0 0"/><feFuncA type="linear" slope="0.4" intercept="0"/></feComponentTransfer><feGaussianBlur stdDeviation="2.05579 2.05579"/></filter><filter id="fx2" x="-10%" y="-10%" width="120%" height="120%" filterUnits="userSpaceOnUse" primitiveUnits="userSpaceOnUse"><feComponentTransfer color-interpolation-filters="sRGB"><feFuncR type="discrete" tableValues="0 0"/><feFuncG type="discrete" tableValues="0 0"/><feFuncB type="discrete" tableValues="0 0"/><feFuncA type="linear" slope="0.4" intercept="0"/></feComponentTransfer><feGaussianBlur stdDeviation="1.77778 1.77778"/></filter><filter id="fx3" x="-10%" y="-10%" width="120%" height="120%" filterUnits="userSpaceOnUse" primitiveUnits="userSpaceOnUse"><feComponentTransfer color-interpolation-filters="sRGB"><feFuncR type="discrete" tableValues="0 0"/><feFuncG type="discrete" tableValues="0 0"/><feFuncB type="discrete" tableValues="0 0"/><feFuncA type="linear" slope="0.4" intercept="0"/></feComponentTransfer><feGaussianBlur stdDeviation="1.25248 1.25248"/></filter><filter id="fx4" x="-10%" y="-10%" width="120%" height="120%" filterUnits="userSpaceOnUse" primitiveUnits="userSpaceOnUse"><feComponentTransfer color-interpolation-filters="sRGB"><feFuncR type="discrete" tableValues="0 0"/><feFuncG type="discrete" tableValues="0 0"/><feFuncB type="discrete" tableValues="0 0"/><feFuncA type="linear" slope="0.4" intercept="0"/></feComponentTransfer><feGaussianBlur stdDeviation="1.25248 1.25248"/></filter><clipPath id="clip5"><rect x="0" y="0" width="1280" height="720"/></clipPath><clipPath id="clip6"><path d="M614.441 317.098 1187.7 103.68 1381.7 624.778 808.439 838.196Z" fill-rule="evenodd" clip-rule="evenodd"/></clipPath><clipPath id="clip7"><path d="M614.441 317.098 1187.7 103.68 1381.7 624.778 808.439 838.196Z" fill-rule="evenodd" clip-rule="evenodd"/></clipPath><clipPath id="clip8"><path d="M614.441 317.098 1187.7 103.68 1381.7 624.778 808.439 838.196Z" fill-rule="evenodd" clip-rule="evenodd"/></clipPath><clipPath id="clip9"><rect x="100" y="50" width="462" height="142"/></clipPath><clipPath id="clip10"><rect x="39" y="29" width="475" height="53"/></clipPath></defs><g clip-path="url(#clip5)"><rect x="0" y="0" width="1280" height="720" fill="#FFFFFF"/><g clip-path="url(#clip6)"><g clip-path="url(#clip7)"><g clip-path="url(#clip8)"><path d="M455.256 181.871C530.553 97.3067 503.33 67.7671 503.33 67.7671 494.063 58.4998 479.583 58.4998 470.316 67.7671L250.796 287.286 59.6583 465.682C46.3365 479.004 46.3365 501.014 59.6583 514.914 72.98 528.236 94.9898 528.236 108.891 514.914L283.232 323.776C291.92 327.831 315.088 339.415 322.039 331.885L455.256 181.871Z" stroke="#FCF8EE" stroke-width="5.79206" fill="#FFFFFF" transform="matrix(1.03097 -0.383819 0.348894 0.937162 614.441 317.098)"/><path d="M514.335 465.682 362.004 321.46 338.836 347.524C334.781 351.578 327.831 356.791 316.826 357.37L465.682 514.914C479.583 528.236 501.593 528.236 514.914 514.914 527.657 501.014 527.657 479.004 514.335 465.682Z" stroke="#FCF8EE" stroke-width="5.79206" fill="#FFFFFF" transform="matrix(1.03097 -0.383819 0.348894 0.937162 614.441 317.098)"/><path d="M207.935 275.702C207.935 275.702 218.361 273.385 229.945 275.123L234.579 270.489 274.544 230.524C272.806 219.519 275.123 208.514 275.123 208.514 279.177 183.608 269.331 154.648 239.791 125.109 191.138 76.4552 121.633 31.2771 121.633 31.2771L111.208 41.7029 228.207 158.703C231.683 162.178 231.683 167.391 228.207 170.866 224.732 174.341 219.519 174.341 216.044 170.866L99.0443 53.8662 82.8265 70.084 199.826 187.084C203.301 190.559 203.301 195.772 199.826 199.247 196.351 202.722 191.138 202.722 187.663 199.247L70.6632 82.2473 54.4454 98.4651 171.445 215.465C174.92 218.94 174.92 224.153 171.445 227.628 167.97 231.103 162.757 231.103 159.282 227.628L41.7029 111.208 31.2771 121.633C31.2771 121.633 80.5097 195.772 124.529 240.371 154.069 269.91 183.029 279.757 207.935 275.702Z" stroke="#FCF8EE" stroke-width="5.79206" fill="#FFFFFF" transform="matrix(1.03097 -0.383819 0.348894 0.937162 614.441 317.098)"/></g></g></g><g filter="url(#fx0)" transform="translate(633 56)"><g><rect x="7" y="7" width="640" height="233" fill="#CF7612"/></g></g><rect x="640" y="59" width="640" height="233" fill="#CF7612"/><g clip-path="url(#clip9)" filter="url(#fx1)" transform="translate(642 48)"><g><path d="M95.8333-106.567C96.9578-105.033 97.52-103.398 97.52-101.66 97.52-93.9933 86.8889-84.1289 65.6267-72.0667 52.7467-64.7067 37.4644-57.2955 19.78-49.8333 18.7578-35.5222 18.2467-24.6867 18.2467-17.3267 18.2467-15.9978 18.4-14.0811 18.7067-11.5767 19.0133-9.07222 19.1667-7.20667 19.1667-5.98 19.1667-1.38 17.4065 0.92 13.8862 0.92 12.1772 0.92 10.9689 0.306667 10.2614-0.92 9.55378-2.14667 9.40444-4.80444 9.81333-8.89333 9.99701-14.9244 10.457-27.0889 11.1933-45.3867 10.58-46.7155 10.2733-47.6867 10.2733-48.3 10.2733-49.5267 10.58-50.5489 11.1933-51.3667 11.7044-57.5 12.3689-66.3422 13.1867-77.8933 13.8-91.1822 13.6467-99.0533 12.7267-101.507 12.5222-102.018 12.42-102.529 12.42-103.04 12.42-104.676 13.0333-106.209 14.26-107.64 15.4867-109.071 16.8156-109.787 18.2467-109.787 19.5756-109.787 20.8022-109.352 21.9267-108.483 23.0511-107.614 24.1756-107.129 25.3-107.027 25.7089-107.027 31.8933-107.589 43.8533-108.713 56.9378-110.042 67.3644-110.707 75.1333-110.707 86.8889-110.707 93.7889-109.327 95.8333-106.567ZM86.48-99.9733C86.48-102.12 82.1867-103.193 73.6-103.193 67.7733-103.193 60.4644-102.733 51.6733-101.813 44.7222-100.996 40.02-100.331 37.5667-99.82 34.1933-99.1044 29.3889-98.5422 23.1533-98.1333L20.8533-59.6467C33.5289-64.7578 44.4156-69.6133 53.5133-74.2133 75.3889-85.1511 86.3778-93.7378 86.48-99.9733ZM134.84-65.0133C136.271-64.5022 136.987-63.1733 136.987-61.0267 136.987-59.1867 135.811-57.96 133.46-57.3467 132.642-57.1422 131.467-57.2955 129.933-57.8067 128.4-58.3178 127.224-58.5733 126.407-58.5733 125.078-58.5733 123.749-58.1644 122.42-57.3467 112.811-51.9289 102.027-40.1222 90.0667-21.9267 87.8178-18.5533 86.4122-14.0044 85.85-8.28 85.2878-2.55556 84.8022 0.562222 84.3933 1.07333 83.4733 2.19778 82.3489 2.76 81.02 2.76 79.3844 2.76 78.0044 2.14667 76.88 0.92 76.0622 0.102222 75.6533-1.32889 75.6533-3.37333 75.6533-4.70222 75.96-7.82 76.5733-12.7267 77.3911-18.3489 77.9022-23.3067 78.1067-27.6 78.3111-31.3822 78.4133-34.8578 78.4133-38.0267 78.4133-45.7956 77.8511-51.98 76.7267-56.58 75.6022-61.18 75.04-63.0711 75.04-62.2533 75.04-62.4578 75.1422-62.7133 75.3467-63.02 76.4711-64.86 77.9022-65.78 79.64-65.78 80.7644-65.78 81.8889-65.2689 83.0133-64.2467 84.8533-62.5089 85.8755-57.5 86.08-49.22 86.1822-45.2333 86.2333-39.0489 86.2333-30.6667 88.38-33.5289 90.5267-36.2378 92.6733-38.7933 97.8867-45.0289 102.538-50.0378 106.627-53.82 111.636-58.5222 114.702-61.2822 115.827-62.1 119.813-64.86 123.8-66.24 127.787-66.24 130.036-66.24 132.387-65.8311 134.84-65.0133ZM172.5-0.766667C172.091-0.255556 171.324-0.0511111 170.2-0.153333 169.076-0.255556 168.207-0.638889 167.593-1.30333 166.98-1.96778 166.469-3.16889 166.06-4.90667 158.393 0.204444 151.596 2.76 145.667 2.76 141.884 2.76 138.92 1.63556 136.773-0.613333 134.627-2.86222 133.553-5.77556 133.553-9.35333 133.553-14.5667 135.444-19.7033 139.227-24.7633 143.009-29.8233 147.353-32.7111 152.26-33.4267 159.824-34.4489 165.396-29.6444 168.973-19.0133 170.609-23.2044 171.427-27.8556 171.427-32.9667 171.427-40.02 169.74-46.6133 166.367-52.7467 164.118-56.9378 160.693-59.0333 156.093-59.0333 153.231-59.0333 150.497-58.2922 147.89-56.81 145.283-55.3278 143.878-53.9733 143.673-52.7467 143.776-52.2355 143.367-51.98 142.447-51.98 139.687-51.98 138.204-53.1555 138-55.5067 137.796-58.0622 139.738-60.49 143.827-62.79 147.916-65.09 152.26-66.24 156.86-66.24 160.336-66.24 163.198-65.5244 165.447-64.0933 174.544-58.3689 179.093-48.0955 179.093-33.2733 179.093-26.3222 178.071-18.9622 176.027-11.1933 174.493-4.75333 173.318-1.27778 172.5-0.766667ZM163.76-13.0333C160.796-22.2333 157.627-26.5267 154.253-25.9133 149.756-25.0956 146.28-22.8978 143.827-19.32 141.782-16.4578 140.76-13.34 140.76-9.96667 140.76-7.61555 141.271-6.13333 142.293-5.52 143.316-4.90667 144.542-4.6 145.973-4.6 150.676-4.6 156.604-7.41111 163.76-13.0333ZM254.3-65.32C254.402-63.2755 253.176-62.2533 250.62-62.2533 250.007-62.2533 249.087-62.33 247.86-62.4833 246.633-62.6367 245.816-62.7133 245.407-62.7133 238.456-62.7133 229.92-61.5889 219.8-59.34 217.551-40.6333 216.427-24.9933 216.427-12.42 216.427-9.66 216.478-7.15555 216.58-4.90667 216.58-4.80444 216.708-4.19111 216.963-3.06667 217.219-1.94222 217.347-1.02222 217.347-0.306667 217.347 2.35111 215.916 3.57778 213.053 3.37333 211.213 3.27111 209.782 2.24889 208.76 0.306667 207.942-1.32889 207.584-3.11778 207.687-5.06 207.687-10.4778 208.249-21.16 209.373-37.1067 209.987-41.8089 210.804-48.6578 211.827-57.6533 209.373-57.04 205.029-55.6089 198.793-53.36 196.442-52.2355 194.04-50.7533 191.587-48.9133 189.951-47.6867 188.827-47.1756 188.213-47.38 185.044-48.1962 183.46-49.6744 183.46-51.8147 183.46-54.4661 186.68-57.0152 193.12-59.4622 196.698-60.8901 203.342-63.0823 213.053-66.0387 213.769-70.2203 214.996-80.0096 216.733-95.4069 216.836-96.0186 216.836-97.0376 216.733-98.464 216.733-100.299 216.733-101.574 216.733-102.288 216.733-106.265 217.865-108.253 220.128-108.253 223.181-108.253 224.707-104.587 224.707-97.2541 224.707-94.9125 224.553-92.1629 224.247-89.0052 223.633-85.1351 222.56-77.9556 221.027-67.4667 229.409-69.1022 237.484-69.7156 245.253-69.3067 248.116-69.2044 250.007-69 250.927-68.6933 253.073-68.1822 254.198-67.0578 254.3-65.32ZM288.44-40.48C288.644-38.7422 288.747-37.0044 288.747-35.2667 288.747-25.1467 284.811-16.4067 276.94-9.04667 269.887-2.60667 262.68 0.613333 255.32 0.613333 253.071 0.613333 251.18 0.204444 249.647-0.613333 246.784-2.04444 244.254-4.83 242.057-8.97 239.859-13.11 238.76-17.6844 238.76-22.6933 238.76-26.8844 239.629-30.9222 241.367-34.8067 249.136-52.4911 257.62-61.6911 266.82-62.4067 270.704-62.7133 274.691-61.2822 278.78-58.1133 284.096-54.1267 287.316-48.2489 288.44-40.48ZM279.087-46.3067C277.86-48.8622 276.684-50.6511 275.56-51.6733 273.924-53.1044 271.522-54.0244 268.353-54.4333L268.507-53.6667C265.969-53.0533 263.533-51.8267 261.199-49.9867 255.719-45.4889 251.355-38.4356 248.106-28.8267 247.498-27.0889 247.193-25.0956 247.193-22.8467 247.193-19.1667 247.906-15.8444 249.33-12.88 251.263-9.2 253.858-7.36 257.114-7.36 260.473-7.36 264.239-8.99555 268.411-12.2667 272.38-15.2311 275.127-18.2467 276.652-21.3133 279.604-27.2422 281.08-32.5067 281.08-37.1067 281.08-40.2756 280.416-43.3422 279.087-46.3067ZM378.8-3.22C377.267-3.22 376.142-3.88444 375.427-5.21333 374.302-7.25778 373.74-12.9311 373.74-22.2333 373.944-28.8778 374.098-35.5222 374.2-42.1667 374.302-52.5933 373.076-58.5222 370.52-59.9533 369.804-60.3622 367.402-57.2956 363.313-50.7533 358.816-43.4956 354.829-35.6756 351.353-27.2933 348.798-21.0578 346.191-12.9311 343.533-2.91333 342.204 2.19778 340.671 4.54889 338.933 4.14 336.173 3.42444 334.538 1.78889 334.027-0.766667 334.027-1.07333 333.822-6.38889 333.413-16.7133 332.493-42.1667 331.369-55.3022 330.04-56.12 328.098-57.3467 324.724-52.5694 319.92-41.7881 314.911-30.6906 311.589-19.9022 309.953-9.42281 309.953-9.11455 309.953-6.75146 309.953-2.33354 309.953 0.749097 309.468 2.62424 308.497 3.29187 307.526 3.95951 306.222 4.24222 304.587 4.14 302.849 4.03778 301.699 3.54983 301.137 2.67615 300.574 1.80247 300.293-0.380139 300.293-3.87167 300.293-7.36479 301.111-17.7403 302.747-34.9983 303.053-38.2854 303.104-41.8808 302.9-45.7844 302.593-50.921 302.44-53.3871 302.44-53.1827 302.44-56.572 304.024-58.2667 307.193-58.2667 308.42-58.2667 309.391-57.8578 310.107-57.04 311.947-55.0978 313.173-51.8267 313.787-47.2267 320.942-62.1511 326.258-69.6133 329.733-69.6133 332.698-69.6133 335.151-67.7733 337.093-64.0933 338.729-61.64 340.058-48.3 341.08-24.0733 344.848-32.6887 348.412-40.0735 351.773-46.2276 359.818-61.2032 366.081-68.9984 370.563-69.6133 372.192-69.8178 374.051-68.8187 376.138-66.6161 378.226-64.4136 379.524-62.3388 380.034-60.3918 380.949-57.1127 381.509-48.9157 381.713-35.8009 381.816-25.4525 381.816-18.4343 381.713-14.7464 381.713-13.927 381.969-12.6208 382.48-10.828 382.991-9.03509 383.247-7.72896 383.247-6.90958 383.247-4.44986 381.764-3.22 378.8-3.22ZM412.753-107.18C412.038-105.647 410.658-102.478 408.613-97.6733 407.898-95.7311 407.387-93.5844 407.08-91.2333 406.876-89.4955 406.467-88.4222 405.853-88.0133 404.32-86.1733 402.889-85.8667 401.56-87.0933 400.742-87.8089 400.333-89.3422 400.333-91.6933 400.333-94.8622 401.202-98.2867 402.94-101.967 403.042-102.171 403.962-104.676 405.7-109.48 406.313-111.218 407.387-112.087 408.92-112.087 411.782-112.087 413.06-110.451 412.753-107.18ZM412.447-55.9667C410.3-36.2378 409.073-23.8178 408.767-18.7067 408.562-14.8222 408.818-11.7811 409.533-9.58333 410.249-7.38556 410.607-6.13333 410.607-5.82667 410.607-5.11111 410.453-4.19111 410.147-3.06667 409.738-1.53333 408.511-0.766667 406.467-0.766667 405.24-0.766667 404.013-1.25222 402.787-2.22333 401.56-3.19444 400.947-6.49111 400.947-12.1133 400.947-12.42 401.458-23.46 402.48-45.2333 402.889-52.3889 403.144-56.3244 403.247-57.04 403.86-60.72 405.24-62.6111 407.387-62.7133 408.92-62.8156 410.198-62.2278 411.22-60.95 412.242-59.6722 412.651-58.0111 412.447-55.9667ZM451.653-109.327C452.471-108.407 452.88-107.027 452.88-105.187 452.88-103.551 452.267-98.6955 451.04-90.62 449.302-78.5578 447.769-67.0067 446.44-55.9667 444.702-41.7578 443.833-27.9578 443.833-14.5667 443.833-9.55778 443.987-5.06 444.293-1.07333 444.702 5.57111 443.476 8.89333 440.613 8.89333 439.489 8.89333 438.288 8.45889 437.01 7.59 435.732 6.72111 435.093 2.50444 435.093-5.06 435.093-16.5089 436.78-39.8156 440.153-74.98 440.869-83.0555 441.584-91.1311 442.3-99.2067 442.913-105.544 443.629-109.071 444.447-109.787 445.776-111.013 446.9-111.627 447.82-111.627 448.944-111.627 450.222-110.86 451.653-109.327Z" fill="#FFFFFF" transform="translate(99.9531 174)"/></g></g><text fill="#FFFFFF" font-family="Marydale,Marydale_MSFontService,sans-serif" font-weight="400" font-size="153.333" transform="translate(738.694 218)">Pratomil</text><g filter="url(#fx2)" transform="translate(-6 367)"><g><rect x="6" y="7" width="864" height="99" fill="#CF7612"/></g></g><rect x="0" y="370" width="864" height="99" fill="#CF7612"/><g clip-path="url(#clip10)" filter="url(#fx3)" transform="translate(30 363)"><g><path d="M29.9922-11.6302C29.9922-9.14757 29.3906-6.98958 28.1875-5.15625 26.9844-3.32292 25.2322-1.90972 22.931-0.916667 20.6298 0.0763889 17.8368 0.572917 14.5521 0.572917 13.1007 0.572917 11.6827 0.477431 10.2982 0.286458 8.91363 0.0954861 7.58637-0.186198 6.31641-0.558594 5.04644-0.93099 3.83854-1.3941 2.69271-1.94792L2.69271-10.1979C4.67882-9.31944 6.74132-8.52691 8.88021-7.82031 11.0191-7.11372 13.1389-6.76042 15.2396-6.76042 16.691-6.76042 17.8607-6.95139 18.7487-7.33333 19.6367-7.71528 20.2812-8.24045 20.6823-8.90885 21.0833-9.57726 21.2839-10.3411 21.2839-11.2005 21.2839-12.2509 20.9306-13.1484 20.224-13.8932 19.5174-14.638 18.5482-15.3351 17.3164-15.9844 16.0846-16.6337 14.6953-17.3307 13.1484-18.0755 12.1745-18.5339 11.1146-19.0924 9.96875-19.7513 8.82292-20.4102 7.73437-21.217 6.70312-22.1719 5.67188-23.1267 4.82682-24.2869 4.16797-25.6523 3.50911-27.0178 3.17969-28.6554 3.17969-30.5651 3.17969-33.0668 3.7526-35.2057 4.89844-36.9818 6.04427-38.7578 7.68186-40.1185 9.8112-41.0638 11.9405-42.0091 14.4566-42.4818 17.3594-42.4818 19.5365-42.4818 21.6133-42.2287 23.5898-41.7227 25.5664-41.2166 27.6337-40.4861 29.7917-39.5312L26.9271-32.6276C24.9983-33.4106 23.27-34.0169 21.7422-34.4466 20.2144-34.8763 18.658-35.0911 17.0729-35.0911 15.9653-35.0911 15.02-34.9145 14.237-34.5612 13.454-34.2079 12.862-33.7114 12.4609-33.0716 12.0599-32.4319 11.8594-31.6918 11.8594-30.8516 11.8594-29.8585 12.1506-29.023 12.7331-28.3451 13.3155-27.6671 14.194-27.013 15.3685-26.3828 16.543-25.7526 18.0087-25.0174 19.7656-24.1771 21.9045-23.1649 23.7331-22.1098 25.2513-21.0117 26.7695-19.9136 27.9392-18.6246 28.7604-17.1445 29.5816-15.6645 29.9922-13.8264 29.9922-11.6302ZM45.6536-32.026 45.6536 0 36.9167 0 36.9167-32.026ZM41.2995-44.5729C42.5981-44.5729 43.7153-44.2721 44.651-43.6706 45.5868-43.069 46.0547-41.947 46.0547-40.3047 46.0547-38.6814 45.5868-37.5595 44.651-36.9388 43.7153-36.3181 42.5981-36.0078 41.2995-36.0078 39.9818-36.0078 38.8598-36.3181 37.9336-36.9388 37.0074-37.5595 36.5443-38.6814 36.5443-40.3047 36.5443-41.947 37.0074-43.069 37.9336-43.6706 38.8598-44.2721 39.9818-44.5729 41.2995-44.5729ZM77.0938-9.51042C77.0938-7.33333 76.5829-5.49523 75.5612-3.99609 74.5395-2.49696 73.0165-1.36068 70.9922-0.58724 68.9679 0.186198 66.4471 0.572917 63.4297 0.572917 61.1953 0.572917 59.2808 0.429688 57.6862 0.143229 56.0916-0.143229 54.4826-0.62066 52.8594-1.28906L52.8594-8.50781C54.5972-7.72483 56.464-7.0803 58.4596-6.57422 60.4553-6.06814 62.2075-5.8151 63.7162-5.8151 65.4158-5.8151 66.6333-6.06814 67.3685-6.57422 68.1037-7.0803 68.4714-7.74392 68.4714-8.5651 68.4714-9.09983 68.3234-9.58203 68.0274-10.0117 67.7313-10.4414 67.0964-10.9284 66.1224-11.4727 65.1484-12.0169 63.6207-12.7283 61.5391-13.6068 59.5339-14.447 57.8867-15.2969 56.5977-16.1562 55.3086-17.0156 54.3537-18.0326 53.7331-19.207 53.1124-20.3815 52.8021-21.8759 52.8021-23.6901 52.8021-26.6502 53.9527-28.8798 56.2539-30.3789 58.5551-31.878 61.6346-32.6276 65.4922-32.6276 67.4783-32.6276 69.3737-32.4271 71.1784-32.026 72.9831-31.625 74.8403-30.9852 76.75-30.1068L74.1146-23.8047C72.5295-24.4922 71.0352-25.0556 69.6315-25.4948 68.2279-25.934 66.8003-26.1536 65.349-26.1536 64.0695-26.1536 63.105-25.9818 62.4557-25.638 61.8064-25.2943 61.4818-24.7691 61.4818-24.0625 61.4818-23.5469 61.6489-23.0885 61.9831-22.6875 62.3173-22.2865 62.9666-21.8424 63.931-21.3555 64.8954-20.8685 66.3134-20.2431 68.1849-19.4792 69.9991-18.7344 71.5747-17.9562 72.9115-17.1445 74.2483-16.3329 75.2795-15.3303 76.0052-14.1367 76.7309-12.9431 77.0938-11.401 77.0938-9.51042ZM97.4089-6.38802C98.3637-6.38802 99.2947-6.48351 100.202-6.67448 101.109-6.86545 102.011-7.10417 102.909-7.39062L102.909-0.888021C101.973-0.467882 100.813-0.119358 99.4284 0.157552 98.0438 0.434462 96.5304 0.572917 94.888 0.572917 92.9783 0.572917 91.2643 0.262587 89.7461-0.358073 88.2279-0.978733 87.0343-2.05773 86.1654-3.59505 85.2964-5.13238 84.862-7.27604 84.862-10.026L84.862-25.4661 80.6797-25.4661 80.6797-29.1615 85.4922-32.0833 88.013-38.8438 93.599-38.8438 93.599-32.026 102.565-32.026 102.565-25.4661 93.599-25.4661 93.599-10.026C93.599-8.80382 93.9475-7.89193 94.6445-7.29036 95.3416-6.6888 96.263-6.38802 97.4089-6.38802ZM122.622-32.6276C125.582-32.6276 128.132-32.0595 130.271-30.9232 132.41-29.7869 134.062-28.1398 135.227-25.9818 136.391-23.8238 136.974-21.1884 136.974-18.0755L136.974-13.8359 116.32-13.8359C116.416-11.3724 117.156-9.4388 118.54-8.03516 119.925-6.63151 121.849-5.92969 124.313-5.92969 126.356-5.92969 128.227-6.13976 129.927-6.5599 131.627-6.98003 133.374-7.61024 135.169-8.45052L135.169-1.6901C133.584-0.907118 131.928-0.334201 130.199 0.0286458 128.471 0.391493 126.375 0.572917 123.911 0.572917 120.703 0.572917 117.862-0.0190972 115.389-1.20312 112.916-2.38715 110.978-4.19184 109.574-6.61719 108.171-9.04253 107.469-12.0981 107.469-15.7839 107.469-19.5269 108.104-22.6445 109.374-25.1367 110.644-27.6289 112.415-29.5004 114.688-30.7513 116.96-32.0022 119.605-32.6276 122.622-32.6276ZM122.68-26.4115C120.98-26.4115 119.572-25.8672 118.454-24.7786 117.337-23.6901 116.693-21.9809 116.521-19.651L128.781-19.651C128.762-20.9497 128.528-22.105 128.079-23.1172 127.631-24.1293 126.962-24.9314 126.074-25.5234 125.186-26.1154 124.055-26.4115 122.68-26.4115ZM181.695-32.6276C185.324-32.6276 188.069-31.6966 189.931-29.8346 191.793-27.9727 192.724-24.9887 192.724-20.8828L192.724 0 183.958 0 183.958-18.7057C183.958-20.9974 183.567-22.7257 182.784-23.8906 182.001-25.0556 180.788-25.638 179.146-25.638 176.835-25.638 175.193-24.8121 174.219-23.1602 173.245-21.5082 172.758-19.145 172.758-16.0703L172.758 0 164.021 0 164.021-18.7057C164.021-20.2335 163.849-21.513 163.505-22.5443 163.161-23.5755 162.636-24.349 161.93-24.8646 161.223-25.3802 160.316-25.638 159.208-25.638 157.585-25.638 156.31-25.2322 155.384-24.4206 154.458-23.6089 153.799-22.4154 153.408-20.8398 153.016-19.2643 152.82-17.3403 152.82-15.0677L152.82 0 144.083 0 144.083-32.026 150.758-32.026 151.932-27.9297 152.419-27.9297C153.069-29.0373 153.885-29.9349 154.868-30.6224 155.852-31.3099 156.936-31.816 158.12-32.1406 159.304-32.4653 160.507-32.6276 161.729-32.6276 164.078-32.6276 166.069-32.2457 167.702-31.4818 169.335-30.7179 170.59-29.5339 171.469-27.9297L172.242-27.9297C173.197-29.572 174.548-30.7656 176.296-31.5104 178.043-32.2552 179.843-32.6276 181.695-32.6276ZM214.87-32.6849C219.167-32.6849 222.461-31.7491 224.753-29.8776 227.044-28.0061 228.19-25.1606 228.19-21.3411L228.19 0 222.089 0 220.398-4.35417 220.169-4.35417C219.253-3.20833 218.317-2.27257 217.362-1.54688 216.407-0.821181 215.309-0.286458 214.068 0.0572917 212.826 0.401042 211.318 0.572917 209.542 0.572917 207.651 0.572917 205.956 0.210069 204.457-0.515625 202.958-1.24132 201.779-2.35373 200.919-3.85286 200.06-5.352 199.63-7.25694 199.63-9.56771 199.63-12.967 200.824-15.4735 203.211-17.0872 205.598-18.701 209.179-19.5938 213.953-19.7656L219.51-19.9375 219.51-21.3411C219.51-23.0217 219.071-24.2535 218.193-25.0365 217.314-25.8194 216.092-26.2109 214.526-26.2109 212.979-26.2109 211.461-25.9913 209.971-25.5521 208.482-25.1128 206.992-24.559 205.503-23.8906L202.609-29.7917C204.309-30.6892 206.214-31.3958 208.324-31.9115 210.434-32.4271 212.616-32.6849 214.87-32.6849ZM219.51-14.8385 216.13-14.724C213.304-14.6476 211.342-14.1415 210.244-13.2057 209.145-12.27 208.596-11.0382 208.596-9.51042 208.596-8.17361 208.988-7.22352 209.771-6.66016 210.554-6.09679 211.576-5.8151 212.836-5.8151 214.707-5.8151 216.288-6.36892 217.577-7.47656 218.866-8.5842 219.51-10.1597 219.51-12.2031ZM269.26 0 260.38 0 260.38-34.4896 249.008-34.4896 249.008-41.8802 280.633-41.8802 280.633-34.4896 269.26-34.4896ZM299.622-32.6276C302.582-32.6276 305.132-32.0595 307.271-30.9232 309.41-29.7869 311.062-28.1398 312.227-25.9818 313.392-23.8238 313.974-21.1884 313.974-18.0755L313.974-13.8359 293.32-13.8359C293.416-11.3724 294.156-9.4388 295.54-8.03516 296.925-6.63151 298.849-5.92969 301.313-5.92969 303.356-5.92969 305.227-6.13976 306.927-6.5599 308.627-6.98003 310.374-7.61024 312.169-8.45052L312.169-1.6901C310.584-0.907118 308.928-0.334201 307.199 0.0286458 305.471 0.391493 303.375 0.572917 300.911 0.572917 297.703 0.572917 294.862-0.0190972 292.389-1.20312 289.916-2.38715 287.978-4.19184 286.574-6.61719 285.171-9.04253 284.469-12.0981 284.469-15.7839 284.469-19.5269 285.104-22.6445 286.374-25.1367 287.644-27.6289 289.415-29.5004 291.688-30.7513 293.96-32.0022 296.605-32.6276 299.622-32.6276ZM299.68-26.4115C297.98-26.4115 296.572-25.8672 295.454-24.7786 294.337-23.6901 293.693-21.9809 293.521-19.651L305.781-19.651C305.762-20.9497 305.528-22.105 305.079-23.1172 304.631-24.1293 303.962-24.9314 303.074-25.5234 302.186-26.1154 301.055-26.4115 299.68-26.4115ZM329.82-44.5729 329.82-24.6354C329.82-23.4323 329.773-22.2292 329.677-21.026 329.582-19.8229 329.477-18.6198 329.362-17.4167L329.477-17.4167C330.069-18.2569 330.675-19.0877 331.296-19.9089 331.916-20.73 332.58-21.5226 333.286-22.2865L342.253-32.026 352.107-32.026 339.388-18.1328 352.88 0 342.797 0 333.573-12.9766 329.82-9.96875 329.82 0 321.083 0 321.083-44.5729ZM375.607-32.6276C379.025-32.6276 381.775-31.6966 383.857-29.8346 385.938-27.9727 386.979-24.9887 386.979-20.8828L386.979 0 378.242 0 378.242-18.7057C378.242-20.9974 377.827-22.7257 376.996-23.8906 376.165-25.0556 374.862-25.638 373.086-25.638 370.412-25.638 368.589-24.7309 367.615-22.9167 366.641-21.1024 366.154-18.4861 366.154-15.0677L366.154 0 357.417 0 357.417-32.026 364.091-32.026 365.266-27.9297 365.753-27.9297C366.44-29.0373 367.295-29.9349 368.316-30.6224 369.338-31.3099 370.474-31.816 371.725-32.1406 372.976-32.4653 374.27-32.6276 375.607-32.6276ZM404.654-32.026 404.654 0 395.917 0 395.917-32.026ZM400.3-44.5729C401.598-44.5729 402.715-44.2721 403.651-43.6706 404.587-43.069 405.055-41.947 405.055-40.3047 405.055-38.6814 404.587-37.5595 403.651-36.9388 402.715-36.3181 401.598-36.0078 400.3-36.0078 398.982-36.0078 397.86-36.3181 396.934-36.9388 396.007-37.5595 395.544-38.6814 395.544-40.3047 395.544-41.947 396.007-43.069 396.934-43.6706 397.86-44.2721 398.982-44.5729 400.3-44.5729ZM436.094-9.51042C436.094-7.33333 435.583-5.49523 434.561-3.99609 433.54-2.49696 432.017-1.36068 429.992-0.58724 427.968 0.186198 425.447 0.572917 422.43 0.572917 420.195 0.572917 418.281 0.429688 416.686 0.143229 415.092-0.143229 413.483-0.62066 411.859-1.28906L411.859-8.50781C413.597-7.72483 415.464-7.0803 417.46-6.57422 419.455-6.06814 421.207-5.8151 422.716-5.8151 424.416-5.8151 425.633-6.06814 426.369-6.57422 427.104-7.0803 427.471-7.74392 427.471-8.5651 427.471-9.09983 427.323-9.58203 427.027-10.0117 426.731-10.4414 426.096-10.9284 425.122-11.4727 424.148-12.0169 422.621-12.7283 420.539-13.6068 418.534-14.447 416.887-15.2969 415.598-16.1562 414.309-17.0156 413.354-18.0326 412.733-19.207 412.112-20.3815 411.802-21.8759 411.802-23.6901 411.802-26.6502 412.953-28.8798 415.254-30.3789 417.555-31.878 420.635-32.6276 424.492-32.6276 426.478-32.6276 428.374-32.4271 430.178-32.026 431.983-31.625 433.84-30.9852 435.75-30.1068L433.115-23.8047C431.53-24.4922 430.035-25.0556 428.632-25.4948 427.228-25.934 425.8-26.1536 424.349-26.1536 423.069-26.1536 422.105-25.9818 421.456-25.638 420.806-25.2943 420.482-24.7691 420.482-24.0625 420.482-23.5469 420.649-23.0885 420.983-22.6875 421.317-22.2865 421.967-21.8424 422.931-21.3555 423.895-20.8685 425.313-20.2431 427.185-19.4792 428.999-18.7344 430.575-17.9562 431.911-17.1445 433.248-16.3329 434.28-15.3303 435.005-14.1367 435.731-12.9431 436.094-11.401 436.094-9.51042ZM456.036-32.6849C460.333-32.6849 463.628-31.7491 465.919-29.8776 468.211-28.0061 469.357-25.1606 469.357-21.3411L469.357 0 463.255 0 461.565-4.35417 461.336-4.35417C460.419-3.20833 459.484-2.27257 458.529-1.54688 457.574-0.821181 456.476-0.286458 455.234 0.0572917 453.993 0.401042 452.484 0.572917 450.708 0.572917 448.818 0.572917 447.123 0.210069 445.624-0.515625 444.125-1.24132 442.945-2.35373 442.086-3.85286 441.227-5.352 440.797-7.25694 440.797-9.56771 440.797-12.967 441.99-15.4735 444.378-17.0872 446.765-18.701 450.346-19.5938 455.12-19.7656L460.677-19.9375 460.677-21.3411C460.677-23.0217 460.238-24.2535 459.359-25.0365 458.481-25.8194 457.259-26.2109 455.693-26.2109 454.146-26.2109 452.628-25.9913 451.138-25.5521 449.648-25.1128 448.159-24.559 446.669-23.8906L443.776-29.7917C445.476-30.6892 447.381-31.3958 449.491-31.9115 451.601-32.4271 453.783-32.6849 456.036-32.6849ZM460.677-14.8385 457.297-14.724C454.471-14.6476 452.508-14.1415 451.41-13.2057 450.312-12.27 449.763-11.0382 449.763-9.51042 449.763-8.17361 450.155-7.22352 450.938-6.66016 451.721-6.09679 452.742-5.8151 454.003-5.8151 455.874-5.8151 457.454-6.36892 458.744-7.47656 460.033-8.5842 460.677-10.1597 460.677-12.2031Z" fill="#FFFFFF" transform="translate(40.3048 78)"/></g></g><path d="M29.9922-11.6302C29.9922-9.14757 29.3906-6.98958 28.1875-5.15625 26.9844-3.32292 25.2322-1.90972 22.931-0.916667 20.6298 0.0763889 17.8368 0.572917 14.5521 0.572917 13.1007 0.572917 11.6827 0.477431 10.2982 0.286458 8.91363 0.0954861 7.58637-0.186198 6.31641-0.558594 5.04644-0.93099 3.83854-1.3941 2.69271-1.94792L2.69271-10.1979C4.67882-9.31944 6.74132-8.52691 8.88021-7.82031 11.0191-7.11372 13.1389-6.76042 15.2396-6.76042 16.691-6.76042 17.8607-6.95139 18.7487-7.33333 19.6367-7.71528 20.2812-8.24045 20.6823-8.90885 21.0833-9.57726 21.2839-10.3411 21.2839-11.2005 21.2839-12.2509 20.9306-13.1484 20.224-13.8932 19.5174-14.638 18.5482-15.3351 17.3164-15.9844 16.0846-16.6337 14.6953-17.3307 13.1484-18.0755 12.1745-18.5339 11.1146-19.0924 9.96875-19.7513 8.82292-20.4102 7.73437-21.217 6.70312-22.1719 5.67188-23.1267 4.82682-24.2869 4.16797-25.6523 3.50911-27.0178 3.17969-28.6554 3.17969-30.5651 3.17969-33.0668 3.7526-35.2057 4.89844-36.9818 6.04427-38.7578 7.68186-40.1185 9.8112-41.0638 11.9405-42.0091 14.4566-42.4818 17.3594-42.4818 19.5365-42.4818 21.6133-42.2287 23.5898-41.7227 25.5664-41.2166 27.6337-40.4861 29.7917-39.5312L26.9271-32.6276C24.9983-33.4106 23.27-34.0169 21.7422-34.4466 20.2144-34.8763 18.658-35.0911 17.0729-35.0911 15.9653-35.0911 15.02-34.9145 14.237-34.5612 13.454-34.2079 12.862-33.7114 12.4609-33.0716 12.0599-32.4319 11.8594-31.6918 11.8594-30.8516 11.8594-29.8585 12.1506-29.023 12.7331-28.3451 13.3155-27.6671 14.194-27.013 15.3685-26.3828 16.543-25.7526 18.0087-25.0174 19.7656-24.1771 21.9045-23.1649 23.7331-22.1098 25.2513-21.0117 26.7695-19.9136 27.9392-18.6246 28.7604-17.1445 29.5816-15.6645 29.9922-13.8264 29.9922-11.6302ZM45.6536-32.026 45.6536 0 36.9167 0 36.9167-32.026ZM41.2995-44.5729C42.5981-44.5729 43.7153-44.2721 44.651-43.6706 45.5868-43.069 46.0547-41.947 46.0547-40.3047 46.0547-38.6814 45.5868-37.5595 44.651-36.9388 43.7153-36.3181 42.5981-36.0078 41.2995-36.0078 39.9818-36.0078 38.8598-36.3181 37.9336-36.9388 37.0074-37.5595 36.5443-38.6814 36.5443-40.3047 36.5443-41.947 37.0074-43.069 37.9336-43.6706 38.8598-44.2721 39.9818-44.5729 41.2995-44.5729ZM77.0938-9.51042C77.0938-7.33333 76.5829-5.49523 75.5612-3.99609 74.5395-2.49696 73.0165-1.36068 70.9922-0.58724 68.9679 0.186198 66.4471 0.572917 63.4297 0.572917 61.1953 0.572917 59.2808 0.429688 57.6862 0.143229 56.0916-0.143229 54.4826-0.62066 52.8594-1.28906L52.8594-8.50781C54.5972-7.72483 56.464-7.0803 58.4596-6.57422 60.4553-6.06814 62.2075-5.8151 63.7162-5.8151 65.4158-5.8151 66.6333-6.06814 67.3685-6.57422 68.1037-7.0803 68.4714-7.74392 68.4714-8.5651 68.4714-9.09983 68.3234-9.58203 68.0274-10.0117 67.7313-10.4414 67.0964-10.9284 66.1224-11.4727 65.1484-12.0169 63.6207-12.7283 61.5391-13.6068 59.5339-14.447 57.8867-15.2969 56.5977-16.1562 55.3086-17.0156 54.3537-18.0326 53.7331-19.207 53.1124-20.3815 52.8021-21.8759 52.8021-23.6901 52.8021-26.6502 53.9527-28.8798 56.2539-30.3789 58.5551-31.878 61.6346-32.6276 65.4922-32.6276 67.4783-32.6276 69.3737-32.4271 71.1784-32.026 72.9831-31.625 74.8403-30.9852 76.75-30.1068L74.1146-23.8047C72.5295-24.4922 71.0352-25.0556 69.6315-25.4948 68.2279-25.934 66.8003-26.1536 65.349-26.1536 64.0695-26.1536 63.105-25.9818 62.4557-25.638 61.8064-25.2943 61.4818-24.7691 61.4818-24.0625 61.4818-23.5469 61.6489-23.0885 61.9831-22.6875 62.3173-22.2865 62.9666-21.8424 63.931-21.3555 64.8954-20.8685 66.3134-20.2431 68.1849-19.4792 69.9991-18.7344 71.5747-17.9562 72.9115-17.1445 74.2483-16.3329 75.2795-15.3303 76.0052-14.1367 76.7309-12.9431 77.0938-11.401 77.0938-9.51042ZM97.4089-6.38802C98.3637-6.38802 99.2947-6.48351 100.202-6.67448 101.109-6.86545 102.011-7.10417 102.909-7.39062L102.909-0.888021C101.973-0.467882 100.813-0.119358 99.4284 0.157552 98.0438 0.434462 96.5304 0.572917 94.888 0.572917 92.9783 0.572917 91.2643 0.262587 89.7461-0.358073 88.2279-0.978733 87.0343-2.05773 86.1654-3.59505 85.2964-5.13238 84.862-7.27604 84.862-10.026L84.862-25.4661 80.6797-25.4661 80.6797-29.1615 85.4922-32.0833 88.013-38.8438 93.599-38.8438 93.599-32.026 102.565-32.026 102.565-25.4661 93.599-25.4661 93.599-10.026C93.599-8.80382 93.9475-7.89193 94.6445-7.29036 95.3416-6.6888 96.263-6.38802 97.4089-6.38802ZM122.622-32.6276C125.582-32.6276 128.132-32.0595 130.271-30.9232 132.41-29.7869 134.062-28.1398 135.227-25.9818 136.391-23.8238 136.974-21.1884 136.974-18.0755L136.974-13.8359 116.32-13.8359C116.416-11.3724 117.156-9.4388 118.54-8.03516 119.925-6.63151 121.849-5.92969 124.313-5.92969 126.356-5.92969 128.227-6.13976 129.927-6.5599 131.627-6.98003 133.374-7.61024 135.169-8.45052L135.169-1.6901C133.584-0.907118 131.928-0.334201 130.199 0.0286458 128.471 0.391493 126.375 0.572917 123.911 0.572917 120.703 0.572917 117.862-0.0190972 115.389-1.20312 112.916-2.38715 110.978-4.19184 109.574-6.61719 108.171-9.04253 107.469-12.0981 107.469-15.7839 107.469-19.5269 108.104-22.6445 109.374-25.1367 110.644-27.6289 112.415-29.5004 114.688-30.7513 116.96-32.0022 119.605-32.6276 122.622-32.6276ZM122.68-26.4115C120.98-26.4115 119.572-25.8672 118.454-24.7786 117.337-23.6901 116.693-21.9809 116.521-19.651L128.781-19.651C128.762-20.9497 128.528-22.105 128.079-23.1172 127.631-24.1293 126.962-24.9314 126.074-25.5234 125.186-26.1154 124.055-26.4115 122.68-26.4115ZM181.695-32.6276C185.324-32.6276 188.069-31.6966 189.931-29.8346 191.793-27.9727 192.724-24.9887 192.724-20.8828L192.724 0 183.958 0 183.958-18.7057C183.958-20.9974 183.567-22.7257 182.784-23.8906 182.001-25.0556 180.788-25.638 179.146-25.638 176.835-25.638 175.193-24.8121 174.219-23.1602 173.245-21.5082 172.758-19.145 172.758-16.0703L172.758 0 164.021 0 164.021-18.7057C164.021-20.2335 163.849-21.513 163.505-22.5443 163.161-23.5755 162.636-24.349 161.93-24.8646 161.223-25.3802 160.316-25.638 159.208-25.638 157.585-25.638 156.31-25.2322 155.384-24.4206 154.458-23.6089 153.799-22.4154 153.408-20.8398 153.016-19.2643 152.82-17.3403 152.82-15.0677L152.82 0 144.083 0 144.083-32.026 150.758-32.026 151.932-27.9297 152.419-27.9297C153.069-29.0373 153.885-29.9349 154.868-30.6224 155.852-31.3099 156.936-31.816 158.12-32.1406 159.304-32.4653 160.507-32.6276 161.729-32.6276 164.078-32.6276 166.069-32.2457 167.702-31.4818 169.335-30.7179 170.59-29.5339 171.469-27.9297L172.242-27.9297C173.197-29.572 174.548-30.7656 176.296-31.5104 178.043-32.2552 179.843-32.6276 181.695-32.6276ZM214.87-32.6849C219.167-32.6849 222.461-31.7491 224.753-29.8776 227.044-28.0061 228.19-25.1606 228.19-21.3411L228.19 0 222.089 0 220.398-4.35417 220.169-4.35417C219.253-3.20833 218.317-2.27257 217.362-1.54688 216.407-0.821181 215.309-0.286458 214.068 0.0572917 212.826 0.401042 211.318 0.572917 209.542 0.572917 207.651 0.572917 205.956 0.210069 204.457-0.515625 202.958-1.24132 201.779-2.35373 200.919-3.85286 200.06-5.352 199.63-7.25694 199.63-9.56771 199.63-12.967 200.824-15.4735 203.211-17.0872 205.598-18.701 209.179-19.5938 213.953-19.7656L219.51-19.9375 219.51-21.3411C219.51-23.0217 219.071-24.2535 218.193-25.0365 217.314-25.8194 216.092-26.2109 214.526-26.2109 212.979-26.2109 211.461-25.9913 209.971-25.5521 208.482-25.1128 206.992-24.559 205.503-23.8906L202.609-29.7917C204.309-30.6892 206.214-31.3958 208.324-31.9115 210.434-32.4271 212.616-32.6849 214.87-32.6849ZM219.51-14.8385 216.13-14.724C213.304-14.6476 211.342-14.1415 210.244-13.2057 209.145-12.27 208.596-11.0382 208.596-9.51042 208.596-8.17361 208.988-7.22352 209.771-6.66016 210.554-6.09679 211.576-5.8151 212.836-5.8151 214.707-5.8151 216.288-6.36892 217.577-7.47656 218.866-8.5842 219.51-10.1597 219.51-12.2031ZM269.26 0 260.38 0 260.38-34.4896 249.008-34.4896 249.008-41.8802 280.633-41.8802 280.633-34.4896 269.26-34.4896ZM299.622-32.6276C302.582-32.6276 305.132-32.0595 307.271-30.9232 309.41-29.7869 311.062-28.1398 312.227-25.9818 313.392-23.8238 313.974-21.1884 313.974-18.0755L313.974-13.8359 293.32-13.8359C293.416-11.3724 294.156-9.4388 295.54-8.03516 296.925-6.63151 298.849-5.92969 301.313-5.92969 303.356-5.92969 305.227-6.13976 306.927-6.5599 308.627-6.98003 310.374-7.61024 312.169-8.45052L312.169-1.6901C310.584-0.907118 308.928-0.334201 307.199 0.0286458 305.471 0.391493 303.375 0.572917 300.911 0.572917 297.703 0.572917 294.862-0.0190972 292.389-1.20312 289.916-2.38715 287.978-4.19184 286.574-6.61719 285.171-9.04253 284.469-12.0981 284.469-15.7839 284.469-19.5269 285.104-22.6445 286.374-25.1367 287.644-27.6289 289.415-29.5004 291.688-30.7513 293.96-32.0022 296.605-32.6276 299.622-32.6276ZM299.68-26.4115C297.98-26.4115 296.572-25.8672 295.454-24.7786 294.337-23.6901 293.693-21.9809 293.521-19.651L305.781-19.651C305.762-20.9497 305.528-22.105 305.079-23.1172 304.631-24.1293 303.962-24.9314 303.074-25.5234 302.186-26.1154 301.055-26.4115 299.68-26.4115ZM329.82-44.5729 329.82-24.6354C329.82-23.4323 329.773-22.2292 329.677-21.026 329.582-19.8229 329.477-18.6198 329.362-17.4167L329.477-17.4167C330.069-18.2569 330.675-19.0877 331.296-19.9089 331.916-20.73 332.58-21.5226 333.286-22.2865L342.253-32.026 352.107-32.026 339.388-18.1328 352.88 0 342.797 0 333.573-12.9766 329.82-9.96875 329.82 0 321.083 0 321.083-44.5729ZM375.607-32.6276C379.025-32.6276 381.775-31.6966 383.857-29.8346 385.938-27.9727 386.979-24.9887 386.979-20.8828L386.979 0 378.242 0 378.242-18.7057C378.242-20.9974 377.827-22.7257 376.996-23.8906 376.165-25.0556 374.862-25.638 373.086-25.638 370.412-25.638 368.589-24.7309 367.615-22.9167 366.641-21.1024 366.154-18.4861 366.154-15.0677L366.154 0 357.417 0 357.417-32.026 364.091-32.026 365.266-27.9297 365.753-27.9297C366.44-29.0373 367.295-29.9349 368.316-30.6224 369.338-31.3099 370.474-31.816 371.725-32.1406 372.976-32.4653 374.27-32.6276 375.607-32.6276ZM404.654-32.026 404.654 0 395.917 0 395.917-32.026ZM400.3-44.5729C401.598-44.5729 402.715-44.2721 403.651-43.6706 404.587-43.069 405.055-41.947 405.055-40.3047 405.055-38.6814 404.587-37.5595 403.651-36.9388 402.715-36.3181 401.598-36.0078 400.3-36.0078 398.982-36.0078 397.86-36.3181 396.934-36.9388 396.007-37.5595 395.544-38.6814 395.544-40.3047 395.544-41.947 396.007-43.069 396.934-43.6706 397.86-44.2721 398.982-44.5729 400.3-44.5729ZM436.094-9.51042C436.094-7.33333 435.583-5.49523 434.561-3.99609 433.54-2.49696 432.017-1.36068 429.992-0.58724 427.968 0.186198 425.447 0.572917 422.43 0.572917 420.195 0.572917 418.281 0.429688 416.686 0.143229 415.092-0.143229 413.483-0.62066 411.859-1.28906L411.859-8.50781C413.597-7.72483 415.464-7.0803 417.46-6.57422 419.455-6.06814 421.207-5.8151 422.716-5.8151 424.416-5.8151 425.633-6.06814 426.369-6.57422 427.104-7.0803 427.471-7.74392 427.471-8.5651 427.471-9.09983 427.323-9.58203 427.027-10.0117 426.731-10.4414 426.096-10.9284 425.122-11.4727 424.148-12.0169 422.621-12.7283 420.539-13.6068 418.534-14.447 416.887-15.2969 415.598-16.1562 414.309-17.0156 413.354-18.0326 412.733-19.207 412.112-20.3815 411.802-21.8759 411.802-23.6901 411.802-26.6502 412.953-28.8798 415.254-30.3789 417.555-31.878 420.635-32.6276 424.492-32.6276 426.478-32.6276 428.374-32.4271 430.178-32.026 431.983-31.625 433.84-30.9852 435.75-30.1068L433.115-23.8047C431.53-24.4922 430.035-25.0556 428.632-25.4948 427.228-25.934 425.8-26.1536 424.349-26.1536 423.069-26.1536 422.105-25.9818 421.456-25.638 420.806-25.2943 420.482-24.7691 420.482-24.0625 420.482-23.5469 420.649-23.0885 420.983-22.6875 421.317-22.2865 421.967-21.8424 422.931-21.3555 423.895-20.8685 425.313-20.2431 427.185-19.4792 428.999-18.7344 430.575-17.9562 431.911-17.1445 433.248-16.3329 434.28-15.3303 435.005-14.1367 435.731-12.9431 436.094-11.401 436.094-9.51042ZM456.036-32.6849C460.333-32.6849 463.628-31.7491 465.919-29.8776 468.211-28.0061 469.357-25.1606 469.357-21.3411L469.357 0 463.255 0 461.565-4.35417 461.336-4.35417C460.419-3.20833 459.484-2.27257 458.529-1.54688 457.574-0.821181 456.476-0.286458 455.234 0.0572917 453.993 0.401042 452.484 0.572917 450.708 0.572917 448.818 0.572917 447.123 0.210069 445.624-0.515625 444.125-1.24132 442.945-2.35373 442.086-3.85286 441.227-5.352 440.797-7.25694 440.797-9.56771 440.797-12.967 441.99-15.4735 444.378-17.0872 446.765-18.701 450.346-19.5938 455.12-19.7656L460.677-19.9375 460.677-21.3411C460.677-23.0217 460.238-24.2535 459.359-25.0365 458.481-25.8194 457.259-26.2109 455.693-26.2109 454.146-26.2109 452.628-25.9913 451.138-25.5521 449.648-25.1128 448.159-24.559 446.669-23.8906L443.776-29.7917C445.476-30.6892 447.381-31.3958 449.491-31.9115 451.601-32.4271 453.783-32.6849 456.036-32.6849ZM460.677-14.8385 457.297-14.724C454.471-14.6476 452.508-14.1415 451.41-13.2057 450.312-12.27 449.763-11.0382 449.763-9.51042 449.763-8.17361 450.155-7.22352 450.938-6.66016 451.721-6.09679 452.742-5.8151 454.003-5.8151 455.874-5.8151 457.454-6.36892 458.744-7.47656 460.033-8.5842 460.677-10.1597 460.677-12.2031Z" fill="#FFFFFF" transform="translate(68.2896 439)"/><text fill="#000000" fill-opacity="0" font-family="Arial,Arial_MSFontService,sans-serif" font-size="45.1458" x="2.69271" y="-5.07031">Sistema Teknisa</text><g filter="url(#fx4)" transform="translate(504 363)"><g><path d="" fill="#FFFFFF" transform="translate(40.1382 78)"/></g></g><text fill="#FFFFFF" font-family="Open Sans,Open Sans_MSFontService,sans-serif" font-weight="700" font-size="58.6667" transform="translate(542.123 439)"></text><path d="M566 43.5 456.237 75.5741 456.237 11.4259ZM486.314-114.544 436.315-28.0801 381.113-73.4391ZM294-180 333.034-89.8086 254.966-89.8086ZM101.661-114.544 206.887-73.4391 151.685-28.0801ZM22 43.5 131.763 11.4259 131.763 75.5741ZM101.661 201.523 151.685 115.08 206.887 160.439ZM294 267 254.966 176.809 333.034 176.809ZM486.314 201.523 381.113 160.439 436.315 115.08ZM158 43.5C158-18.2178 218.889-68.25 294-68.25 369.111-68.25 430-18.2178 430 43.5 430 105.218 369.111 155.25 294 155.25 218.889 155.25 158 105.218 158 43.5Z" stroke="#FCF8EE" stroke-width="4" stroke-miterlimit="8" fill="#FFFFFF" fill-rule="evenodd"/><text fill="#898989" font-family="Open Sans,Open Sans_MSFontService,sans-serif" font-weight="400" font-size="13.3333" transform="translate(450.25 684)">Pratomil</text><text fill="#898989" font-family="Open Sans,Open Sans_MSFontService,sans-serif" font-weight="400" font-size="13.3333" transform="translate(502.917 684)"></text><text fill="#898989" font-family="Open Sans,Open Sans_MSFontService,sans-serif" font-weight="400" font-size="13.3333" transform="translate(506.417 684)">Serviços de Alimentação LTDA Setor de Tecnologia e</text><text fill="#898989" font-family="Open Sans,Open Sans_MSFontService,sans-serif" font-weight="400" font-size="13.3333" transform="translate(498.417 700)">Suporte</text><text fill="#898989" font-family="Open Sans,Open Sans_MSFontService,sans-serif" font-weight="400" font-size="13.3333" transform="translate(551.417 700)">-</text><text fill="#898989" font-family="Open Sans,Open Sans_MSFontService,sans-serif" font-weight="400" font-size="13.3333" transform="translate(555.75 700)"></text><text fill="#898989" font-family="Open Sans,Open Sans_MSFontService,sans-serif" font-weight="400" font-size="13.3333" transform="translate(559.25 700)">suportesistema@capratomil.com.br</text><text fill="#898989" font-family="Open Sans,Open Sans_MSFontService,sans-serif" font-weight="400" font-size="13.3333" transform="translate(781.583 700)"></text></g></svg>
