<svg width="1280" height="720" xmlns="http://www.w3.org/2000/svg" xmlns:xlink="http://www.w3.org/1999/xlink" overflow="hidden"><defs><filter id="fx0" x="-10%" y="-10%" width="120%" height="120%" filterUnits="userSpaceOnUse" primitiveUnits="userSpaceOnUse"><feComponentTransfer color-interpolation-filters="sRGB"><feFuncR type="discrete" tableValues="0 0"/><feFuncG type="discrete" tableValues="0 0"/><feFuncB type="discrete" tableValues="0 0"/><feFuncA type="linear" slope="0.4" intercept="0"/></feComponentTransfer><feGaussianBlur stdDeviation="1.77778 1.77778"/></filter><filter id="fx1" x="-10%" y="-10%" width="120%" height="120%" filterUnits="userSpaceOnUse" primitiveUnits="userSpaceOnUse"><feComponentTransfer color-interpolation-filters="sRGB"><feFuncR type="discrete" tableValues="0 0"/><feFuncG type="discrete" tableValues="0 0"/><feFuncB type="discrete" tableValues="0 0"/><feFuncA type="linear" slope="0.4" intercept="0"/></feComponentTransfer><feGaussianBlur stdDeviation="1.77778 1.77778"/></filter><filter id="fx2" x="-10%" y="-10%" width="120%" height="120%" filterUnits="userSpaceOnUse" primitiveUnits="userSpaceOnUse"><feComponentTransfer color-interpolation-filters="sRGB"><feFuncR type="discrete" tableValues="0 0"/><feFuncG type="discrete" tableValues="0 0"/><feFuncB type="discrete" tableValues="0 0"/><feFuncA type="linear" slope="0.4" intercept="0"/></feComponentTransfer><feGaussianBlur stdDeviation="0.658552 0.658552"/></filter><filter id="fx3" x="-10%" y="-10%" width="120%" height="120%" filterUnits="userSpaceOnUse" primitiveUnits="userSpaceOnUse"><feComponentTransfer color-interpolation-filters="sRGB"><feFuncR type="discrete" tableValues="0 0"/><feFuncG type="discrete" tableValues="0 0"/><feFuncB type="discrete" tableValues="0 0"/><feFuncA type="linear" slope="0.4" intercept="0"/></feComponentTransfer><feGaussianBlur stdDeviation="1.25248 1.25248"/></filter><filter id="fx4" x="-10%" y="-10%" width="120%" height="120%" filterUnits="userSpaceOnUse" primitiveUnits="userSpaceOnUse"><feComponentTransfer color-interpolation-filters="sRGB"><feFuncR type="discrete" tableValues="0 0"/><feFuncG type="discrete" tableValues="0 0"/><feFuncB type="discrete" tableValues="0 0"/><feFuncA type="linear" slope="0.4" intercept="0"/></feComponentTransfer><feGaussianBlur stdDeviation="1.25248 1.25248"/></filter><clipPath id="clip5"><rect x="0" y="0" width="1280" height="720"/></clipPath><clipPath id="clip6"><path d="M614.441 317.098 1187.7 103.68 1381.7 624.778 808.439 838.196Z" fill-rule="evenodd" clip-rule="evenodd"/></clipPath><clipPath id="clip7"><path d="M614.441 317.098 1187.7 103.68 1381.7 624.778 808.439 838.196Z" fill-rule="evenodd" clip-rule="evenodd"/></clipPath><clipPath id="clip8"><path d="M614.441 317.098 1187.7 103.68 1381.7 624.778 808.439 838.196Z" fill-rule="evenodd" clip-rule="evenodd"/></clipPath><clipPath id="clip9"><rect x="15" y="8" width="77" height="25"/></clipPath><clipPath id="clip10"><rect x="39" y="29" width="701" height="67"/></clipPath></defs><g clip-path="url(#clip5)"><rect x="0" y="0" width="1280" height="720" fill="#FFFFFF"/><path d="M108.5 653.5 1186.58 656.521" stroke="#ED7D31" stroke-width="0.666667" stroke-miterlimit="8" fill="none" fill-rule="evenodd"/><g clip-path="url(#clip6)"><g clip-path="url(#clip7)"><g clip-path="url(#clip8)"><path d="M455.256 181.871C530.553 97.3067 503.33 67.7671 503.33 67.7671 494.063 58.4998 479.583 58.4998 470.316 67.7671L250.796 287.286 59.6583 465.682C46.3365 479.004 46.3365 501.014 59.6583 514.914 72.98 528.236 94.9898 528.236 108.891 514.914L283.232 323.776C291.92 327.831 315.088 339.415 322.039 331.885L455.256 181.871Z" stroke="#FCF8EE" stroke-width="5.79206" fill="#FFFFFF" transform="matrix(1.03097 -0.383819 0.348894 0.937162 614.441 317.098)"/><path d="M514.335 465.682 362.004 321.46 338.836 347.524C334.781 351.578 327.831 356.791 316.826 357.37L465.682 514.914C479.583 528.236 501.593 528.236 514.914 514.914 527.657 501.014 527.657 479.004 514.335 465.682Z" stroke="#FCF8EE" stroke-width="5.79206" fill="#FFFFFF" transform="matrix(1.03097 -0.383819 0.348894 0.937162 614.441 317.098)"/><path d="M207.935 275.702C207.935 275.702 218.361 273.385 229.945 275.123L234.579 270.489 274.544 230.524C272.806 219.519 275.123 208.514 275.123 208.514 279.177 183.608 269.331 154.648 239.791 125.109 191.138 76.4552 121.633 31.2771 121.633 31.2771L111.208 41.7029 228.207 158.703C231.683 162.178 231.683 167.391 228.207 170.866 224.732 174.341 219.519 174.341 216.044 170.866L99.0443 53.8662 82.8265 70.084 199.826 187.084C203.301 190.559 203.301 195.772 199.826 199.247 196.351 202.722 191.138 202.722 187.663 199.247L70.6632 82.2473 54.4454 98.4651 171.445 215.465C174.92 218.94 174.92 224.153 171.445 227.628 167.97 231.103 162.757 231.103 159.282 227.628L41.7029 111.208 31.2771 121.633C31.2771 121.633 80.5097 195.772 124.529 240.371 154.069 269.91 183.029 279.757 207.935 275.702Z" stroke="#FCF8EE" stroke-width="5.79206" fill="#FFFFFF" transform="matrix(1.03097 -0.383819 0.348894 0.937162 614.441 317.098)"/></g></g></g><g filter="url(#fx0)" transform="translate(-6 367)"><g><rect x="6" y="7" width="1031" height="99" fill="#CF7612"/></g></g><rect x="0" y="370" width="1031" height="99" fill="#CF7612"/><path d="M566 43.5 456.237 75.5741 456.237 11.4259ZM486.314-114.544 436.315-28.0801 381.113-73.4391ZM294-180 333.034-89.8086 254.966-89.8086ZM101.661-114.544 206.887-73.4391 151.685-28.0801ZM22 43.5 131.763 11.4259 131.763 75.5741ZM101.661 201.523 151.685 115.08 206.887 160.439ZM294 267 254.966 176.809 333.034 176.809ZM486.314 201.523 381.113 160.439 436.315 115.08ZM158 43.5C158-18.2178 218.889-68.25 294-68.25 369.111-68.25 430-18.2178 430 43.5 430 105.218 369.111 155.25 294 155.25 218.889 155.25 158 105.218 158 43.5Z" stroke="#FCF8EE" stroke-width="4" stroke-miterlimit="8" fill="#FFFFFF" fill-rule="evenodd"/><text fill="#898989" font-family="Open Sans,Open Sans_MSFontService,sans-serif" font-weight="400" font-size="13.3333" transform="translate(450.25 684)">Pratomil</text><text fill="#898989" font-family="Open Sans,Open Sans_MSFontService,sans-serif" font-weight="400" font-size="13.3333" transform="translate(502.917 684)"></text><text fill="#898989" font-family="Open Sans,Open Sans_MSFontService,sans-serif" font-weight="400" font-size="13.3333" transform="translate(506.417 684)">Serviços de Alimentação LTDA Setor de Tecnologia e</text><text fill="#898989" font-family="Open Sans,Open Sans_MSFontService,sans-serif" font-weight="400" font-size="13.3333" transform="translate(498.417 700)">Suporte</text><text fill="#898989" font-family="Open Sans,Open Sans_MSFontService,sans-serif" font-weight="400" font-size="13.3333" transform="translate(551.417 700)">-</text><text fill="#898989" font-family="Open Sans,Open Sans_MSFontService,sans-serif" font-weight="400" font-size="13.3333" transform="translate(555.75 700)"></text><text fill="#898989" font-family="Open Sans,Open Sans_MSFontService,sans-serif" font-weight="400" font-size="13.3333" transform="translate(559.25 700)">suportesistema@capratomil.com.br</text><text fill="#898989" font-family="Open Sans,Open Sans_MSFontService,sans-serif" font-weight="400" font-size="13.3333" transform="translate(781.583 700)"></text><g filter="url(#fx1)" transform="translate(1150 633)"><g><rect x="7" y="7" width="101" height="39" fill="#CF7612"/></g></g><rect x="1157" y="636" width="101" height="39" fill="#CF7612"/><g clip-path="url(#clip9)" filter="url(#fx2)" transform="translate(1155 635)"><g><path d="M15-16.68C15.176-16.44 15.264-16.184 15.264-15.912 15.264-14.712 13.6-13.168 10.272-11.28 8.256-10.128 5.864-8.968 3.096-7.8 2.936-5.56 2.856-3.864 2.856-2.712 2.856-2.504 2.88-2.204 2.928-1.812 2.976-1.42 3-1.128 3-0.936 3-0.216 2.7245 0.144 2.1735 0.144 1.906 0.144 1.71687 0.048 1.60612-0.144 1.49537-0.336 1.472-0.752 1.536-1.392 1.56475-2.336 1.63675-4.24 1.752-7.104 1.656-7.312 1.608-7.464 1.608-7.56 1.608-7.752 1.656-7.912 1.752-8.04 1.832-9 1.936-10.384 2.064-12.192 2.16-14.272 2.136-15.504 1.992-15.888 1.96-15.968 1.944-16.048 1.944-16.128 1.944-16.384 2.04-16.624 2.232-16.848 2.424-17.072 2.632-17.184 2.856-17.184 3.064-17.184 3.256-17.116 3.432-16.98 3.608-16.844 3.784-16.768 3.96-16.752 4.024-16.752 4.992-16.84 6.864-17.016 8.912-17.224 10.544-17.328 11.76-17.328 13.6-17.328 14.68-17.112 15-16.68ZM13.536-15.648C13.536-15.984 12.864-16.152 11.52-16.152 10.608-16.152 9.464-16.08 8.088-15.936 7-15.808 6.264-15.704 5.88-15.624 5.352-15.512 4.6-15.424 3.624-15.36L3.264-9.336C5.248-10.136 6.952-10.896 8.376-11.616 11.8-13.328 13.52-14.672 13.536-15.648ZM21.1547-10.176C21.3787-10.096 21.4907-9.888 21.4907-9.552 21.4907-9.264 21.3067-9.072 20.9387-8.976 20.8107-8.944 20.6267-8.968 20.3867-9.048 20.1467-9.128 19.9627-9.168 19.8347-9.168 19.6267-9.168 19.4187-9.104 19.2107-8.976 17.7067-8.128 16.0187-6.28 14.1467-3.432 13.7947-2.904 13.5747-2.192 13.4867-1.296 13.3987-0.4 13.3227 0.088 13.2587 0.168 13.1147 0.344 12.9387 0.432 12.7307 0.432 12.4747 0.432 12.2587 0.336 12.0827 0.144 11.9547 0.016 11.8907-0.208 11.8907-0.528 11.8907-0.736 11.9387-1.224 12.0347-1.992 12.1627-2.872 12.2427-3.648 12.2747-4.32 12.3067-4.912 12.3227-5.456 12.3227-5.952 12.3227-7.168 12.2347-8.136 12.0587-8.856 11.8827-9.576 11.7947-9.872 11.7947-9.744 11.7947-9.776 11.8107-9.816 11.8427-9.864 12.0187-10.152 12.2427-10.296 12.5147-10.296 12.6907-10.296 12.8667-10.216 13.0427-10.056 13.3307-9.784 13.4907-9 13.5227-7.704 13.5387-7.08 13.5467-6.112 13.5467-4.8 13.8827-5.248 14.2187-5.672 14.5547-6.072 15.3707-7.048 16.0987-7.832 16.7387-8.424 17.5227-9.16 18.0027-9.592 18.1787-9.72 18.8027-10.152 19.4267-10.368 20.0507-10.368 20.4027-10.368 20.7707-10.304 21.1547-10.176ZM27.0987-0.12C27.0347-0.04 26.9147-0.008 26.7387-0.024 26.5627-0.04 26.4267-0.1 26.3307-0.204 26.2347-0.308 26.1547-0.496 26.0907-0.768 24.8907 0.032 23.8267 0.432 22.8987 0.432 22.3067 0.432 21.8427 0.256 21.5067-0.096 21.1707-0.448 21.0027-0.904 21.0027-1.464 21.0027-2.28 21.2987-3.084 21.8907-3.876 22.4827-4.668 23.1627-5.12 23.9307-5.232 25.1147-5.392 25.9867-4.64 26.5467-2.976 26.8027-3.632 26.9307-4.36 26.9307-5.16 26.9307-6.264 26.6667-7.296 26.1387-8.256 25.7867-8.912 25.2507-9.24 24.5307-9.24 24.0827-9.24 23.6547-9.124 23.2467-8.892 22.8387-8.66 22.6187-8.448 22.5867-8.256 22.6027-8.176 22.5387-8.136 22.3947-8.136 21.9627-8.136 21.7307-8.32 21.6987-8.688 21.6667-9.088 21.9707-9.468 22.6107-9.828 23.2507-10.188 23.9307-10.368 24.6507-10.368 25.1947-10.368 25.6427-10.256 25.9947-10.032 27.4187-9.136 28.1307-7.528 28.1307-5.208 28.1307-4.12 27.9707-2.968 27.6507-1.752 27.4107-0.744 27.2267-0.2 27.0987-0.12ZM25.7307-2.04C25.2667-3.48 24.7707-4.152 24.2427-4.056 23.5387-3.928 22.9947-3.584 22.6107-3.024 22.2907-2.576 22.1307-2.088 22.1307-1.56 22.1307-1.192 22.2107-0.96 22.3707-0.864 22.5307-0.768 22.7227-0.72 22.9467-0.72 23.6827-0.72 24.6107-1.16 25.7307-2.04ZM39.892-10.224C39.908-9.904 39.716-9.744 39.316-9.744 39.22-9.744 39.076-9.756 38.884-9.78 38.692-9.804 38.564-9.816 38.5-9.816 37.412-9.816 36.076-9.64 34.492-9.288 34.14-6.36 33.964-3.912 33.964-1.944 33.964-1.512 33.972-1.12 33.988-0.768 33.988-0.752 34.008-0.656 34.048-0.48 34.088-0.304 34.108-0.16 34.108-0.048 34.108 0.368 33.884 0.56 33.436 0.528 33.148 0.512 32.924 0.352 32.764 0.048 32.636-0.208 32.58-0.488 32.596-0.792 32.596-1.64 32.684-3.312 32.86-5.808 32.956-6.544 33.084-7.616 33.244-9.024 32.86-8.928 32.18-8.704 31.204-8.352 30.836-8.176 30.46-7.944 30.076-7.656 29.82-7.464 29.644-7.384 29.548-7.416 29.052-7.54375 28.804-7.77513 28.804-8.11013 28.804-8.52513 29.308-8.92412 30.316-9.30713 30.876-9.53062 31.916-9.87375 33.436-10.3365 33.548-10.991 33.74-12.5232 34.012-14.9333 34.028-15.029 34.028-15.1885 34.012-15.4117 34.012-15.699 34.012-15.8985 34.012-16.0103 34.012-16.6327 34.1891-16.944 34.5434-16.944 35.0211-16.944 35.26-16.3701 35.26-15.2224 35.26-14.8559 35.236-14.4255 35.188-13.9313 35.092-13.3255 34.924-12.2017 34.684-10.56 35.996-10.816 37.26-10.912 38.476-10.848 38.924-10.832 39.22-10.8 39.364-10.752 39.7-10.672 39.876-10.496 39.892-10.224ZM45.2387-6.336C45.2707-6.064 45.2867-5.792 45.2867-5.52 45.2867-3.936 44.6707-2.568 43.4387-1.416 42.3347-0.408 41.2067 0.096 40.0547 0.096 39.7027 0.096 39.4067 0.032 39.1667-0.096 38.7187-0.32 38.3227-0.756 37.9787-1.404 37.6347-2.052 37.4627-2.768 37.4627-3.552 37.4627-4.208 37.5987-4.84 37.8707-5.448 39.0867-8.216 40.4147-9.656 41.8547-9.768 42.4627-9.816 43.0867-9.592 43.7267-9.096 44.5587-8.472 45.0627-7.552 45.2387-6.336ZM43.7747-7.248C43.5827-7.648 43.3987-7.928 43.2227-8.088 42.9667-8.312 42.5907-8.456 42.0947-8.52L42.1187-8.4C41.7214-8.304 41.3402-8.112 40.9749-7.824 40.1172-7.12 39.434-6.016 38.9255-4.512 38.8303-4.24 38.7827-3.928 38.7827-3.576 38.7827-3 38.8942-2.48 39.1172-2.016 39.4197-1.44 39.8258-1.152 40.3355-1.152 40.8613-1.152 41.4507-1.408 42.1037-1.92 42.7249-2.384 43.1549-2.856 43.3937-3.336 43.8557-4.264 44.0867-5.088 44.0867-5.808 44.0867-6.304 43.9827-6.784 43.7747-7.248ZM59.424-0.504C59.184-0.504 59.008-0.608 58.896-0.816 58.72-1.136 58.632-2.024 58.632-3.48 58.664-4.52 58.688-5.56 58.704-6.6 58.72-8.232 58.528-9.16 58.128-9.384 58.016-9.448 57.64-8.968 57-7.944 56.296-6.808 55.672-5.584 55.128-4.272 54.728-3.296 54.32-2.024 53.904-0.456 53.696 0.344 53.456 0.712 53.184 0.648 52.752 0.536 52.496 0.28 52.416-0.12 52.416-0.168 52.384-1 52.32-2.616 52.176-6.6 52-8.656 51.792-8.784 51.488-8.976 50.96-8.22825 50.208-6.54075 49.424-4.80375 48.904-3.11512 48.648-1.47487 48.648-1.42663 48.648-1.05675 48.648-0.36525 48.648 0.11725 48.572 0.41075 48.42 0.51525 48.268 0.61975 48.064 0.664 47.808 0.648 47.536 0.632 47.356 0.555625 47.268 0.418875 47.18 0.282125 47.136-0.0595 47.136-0.606 47.136-1.15275 47.264-2.77675 47.52-5.478 47.568-5.9925 47.576-6.55525 47.544-7.16625 47.496-7.97025 47.472-8.35625 47.472-8.32425 47.472-8.85475 47.72-9.12 48.216-9.12 48.408-9.12 48.56-9.056 48.672-8.928 48.96-8.624 49.152-8.112 49.248-7.392 50.368-9.728 51.2-10.896 51.744-10.896 52.208-10.896 52.592-10.608 52.896-10.032 53.152-9.648 53.36-7.56 53.52-3.768 54.1097-5.1165 54.6676-6.27238 55.1936-7.23563 56.4529-9.57962 57.4333-10.7997 58.1348-10.896 58.3898-10.928 58.6806-10.7716 59.0074-10.4269 59.3341-10.0821 59.5374-9.75737 59.6171-9.45263 59.7604-8.93937 59.848-7.65637 59.88-5.60362 59.896-3.98387 59.896-2.88538 59.88-2.30813 59.88-2.17987 59.92-1.97544 60-1.69481 60.08-1.41419 60.12-1.20975 60.12-1.0815 60.12-0.6965 59.888-0.504 59.424-0.504ZM64.7747-16.776C64.6627-16.536 64.4467-16.04 64.1267-15.288 64.0147-14.984 63.9347-14.648 63.8867-14.28 63.8547-14.008 63.7907-13.84 63.6947-13.776 63.4547-13.488 63.2307-13.44 63.0227-13.632 62.8947-13.744 62.8307-13.984 62.8307-14.352 62.8307-14.848 62.9667-15.384 63.2387-15.96 63.2547-15.992 63.3987-16.384 63.6707-17.136 63.7667-17.408 63.9347-17.544 64.1747-17.544 64.6227-17.544 64.8227-17.288 64.7747-16.776ZM64.7267-8.76C64.3907-5.672 64.1987-3.728 64.1507-2.928 64.1187-2.32 64.1587-1.844 64.2707-1.5 64.3827-1.156 64.4387-0.96 64.4387-0.912 64.4387-0.8 64.4147-0.656 64.3667-0.48 64.3027-0.24 64.1107-0.12 63.7907-0.12 63.5987-0.12 63.4067-0.196 63.2147-0.348 63.0227-0.5 62.9267-1.016 62.9267-1.896 62.9267-1.944 63.0067-3.672 63.1667-7.08 63.2307-8.2 63.2707-8.816 63.2867-8.928 63.3827-9.504 63.5987-9.8 63.9347-9.816 64.1747-9.832 64.3747-9.74 64.5347-9.54 64.6947-9.34 64.7587-9.08 64.7267-8.76ZM70.9213-17.112C71.0493-16.968 71.1133-16.752 71.1133-16.464 71.1133-16.208 71.0173-15.448 70.8253-14.184 70.5533-12.296 70.3133-10.488 70.1053-8.76 69.8333-6.536 69.6973-4.376 69.6973-2.28 69.6973-1.496 69.7213-0.792 69.7693-0.168 69.8333 0.872 69.6413 1.392 69.1933 1.392 69.0173 1.392 68.8293 1.324 68.6293 1.188 68.4293 1.052 68.3293 0.392 68.3293-0.792 68.3293-2.584 68.5933-6.232 69.1213-11.736 69.2333-13 69.3453-14.264 69.4573-15.528 69.5533-16.52 69.6653-17.072 69.7933-17.184 70.0013-17.376 70.1773-17.472 70.3213-17.472 70.4973-17.472 70.6973-17.352 70.9213-17.112Z" fill="#FFFFFF" transform="translate(17.8704 29)"/></g></g><text fill="#FFFFFF" font-family="Marydale,Marydale_MSFontService,sans-serif" font-weight="400" font-size="24" transform="translate(1171.77 663)">Pratomil</text><g clip-path="url(#clip10)" filter="url(#fx3)" transform="translate(17 363)"><g><path d="M23.0599-35.0911C21.3602-35.0911 19.8563-34.7617 18.5482-34.1029 17.24-33.444 16.1419-32.4939 15.2539-31.2526 14.3659-30.0113 13.6927-28.5122 13.2344-26.7552 12.776-24.9983 12.5469-23.0217 12.5469-20.8255 12.5469-17.8655 12.9145-15.3398 13.6497-13.2487 14.385-11.1576 15.526-9.56293 17.0729-8.46484 18.6198-7.36675 20.6155-6.81771 23.0599-6.81771 24.7595-6.81771 26.464-7.00868 28.1732-7.39062 29.8824-7.77257 31.7396-8.31684 33.7448-9.02344L33.7448-1.57552C31.8924-0.811632 30.0686-0.262587 28.2734 0.0716146 26.4783 0.405816 24.4635 0.572917 22.2292 0.572917 17.9132 0.572917 14.3659-0.319878 11.5872-2.10547 8.80859-3.89106 6.75087-6.3928 5.41406-9.61068 4.07726-12.8286 3.40885-16.5859 3.40885-20.8828 3.40885-24.0529 3.83854-26.9557 4.69792-29.5911 5.55729-32.2266 6.81771-34.5087 8.47917-36.4375 10.1406-38.3663 12.1936-39.8559 14.638-40.9062 17.0825-41.9566 19.8898-42.4818 23.0599-42.4818 25.1415-42.4818 27.2279-42.2192 29.319-41.694 31.4102-41.1688 33.4106-40.4479 35.3203-39.5312L32.4557-32.3125C30.8898-33.0573 29.3142-33.7066 27.7292-34.2604 26.1441-34.8142 24.5877-35.0911 23.0599-35.0911ZM71.0208-16.0703C71.0208-13.3967 70.6628-11.0286 69.9466-8.96615 69.2305-6.90365 68.1897-5.16102 66.8242-3.73828 65.4588-2.31554 63.8164-1.24132 61.8971-0.515625 59.9779 0.210069 57.8151 0.572917 55.4089 0.572917 53.1554 0.572917 51.0881 0.210069 49.207-0.515625 47.326-1.24132 45.6931-2.31554 44.3086-3.73828 42.924-5.16102 41.8546-6.90365 41.1003-8.96615 40.3459-11.0286 39.9688-13.3967 39.9688-16.0703 39.9688-19.6224 40.599-22.6302 41.8594-25.0938 43.1198-27.5573 44.9149-29.4288 47.2448-30.7083 49.5747-31.9878 52.3533-32.6276 55.5807-32.6276 58.579-32.6276 61.2383-31.9878 63.5586-30.7083 65.8789-29.4288 67.7027-27.5573 69.03-25.0938 70.3572-22.6302 71.0208-19.6224 71.0208-16.0703ZM48.8776-16.0703C48.8776-13.9696 49.1068-12.2031 49.5651-10.7708 50.0234-9.33854 50.7396-8.25955 51.7135-7.53385 52.6875-6.80816 53.9575-6.44531 55.5234-6.44531 57.0703-6.44531 58.326-6.80816 59.2904-7.53385 60.2548-8.25955 60.9614-9.33854 61.4102-10.7708 61.8589-12.2031 62.0833-13.9696 62.0833-16.0703 62.0833-18.1901 61.8589-19.9518 61.4102-21.3555 60.9614-22.7591 60.25-23.8142 59.276-24.5208 58.3021-25.2274 57.0321-25.5807 55.4661-25.5807 53.1554-25.5807 51.4796-24.7882 50.4388-23.2031 49.398-21.6181 48.8776-19.2405 48.8776-16.0703ZM115.862-32.6276C119.49-32.6276 122.236-31.6966 124.098-29.8346 125.96-27.9727 126.891-24.9887 126.891-20.8828L126.891 0 118.125 0 118.125-18.7057C118.125-20.9974 117.734-22.7257 116.951-23.8906 116.168-25.0556 114.955-25.638 113.313-25.638 111.002-25.638 109.359-24.8121 108.385-23.1602 107.411-21.5082 106.924-19.145 106.924-16.0703L106.924 0 98.1875 0 98.1875-18.7057C98.1875-20.2335 98.0156-21.513 97.6719-22.5443 97.3281-23.5755 96.803-24.349 96.0964-24.8646 95.3898-25.3802 94.4827-25.638 93.375-25.638 91.7517-25.638 90.477-25.2322 89.5508-24.4206 88.6246-23.6089 87.9657-22.4154 87.5742-20.8398 87.1827-19.2643 86.987-17.3403 86.987-15.0677L86.987 0 78.25 0 78.25-32.026 84.9245-32.026 86.099-27.9297 86.5859-27.9297C87.2352-29.0373 88.0517-29.9349 89.0352-30.6224 90.0187-31.3099 91.1024-31.816 92.2865-32.1406 93.4705-32.4653 94.6736-32.6276 95.8958-32.6276 98.2448-32.6276 100.236-32.2457 101.868-31.4818 103.501-30.7179 104.757-29.5339 105.635-27.9297L106.409-27.9297C107.364-29.572 108.715-30.7656 110.462-31.5104 112.21-32.2552 114.01-32.6276 115.862-32.6276ZM153.734-32.6276C157.344-32.6276 160.261-31.224 162.486-28.4167 164.711-25.6094 165.823-21.4939 165.823-16.0703 165.823-12.4418 165.298-9.39106 164.247-6.91797 163.197-4.44488 161.746-2.57812 159.893-1.31771 158.041-0.0572917 155.911 0.572917 153.505 0.572917 151.958 0.572917 150.631 0.37717 149.523-0.0143229 148.416-0.405816 147.47-0.911892 146.688-1.53255 145.905-2.15321 145.227-2.81684 144.654-3.52344L144.195-3.52344C144.348-2.75955 144.463-1.97656 144.539-1.17448 144.615-0.372396 144.654 0.41059 144.654 1.17448L144.654 14.0938 135.917 14.0938 135.917-32.026 143.021-32.026 144.253-27.8724 144.654-27.8724C145.227-28.7318 145.924-29.5243 146.745-30.25 147.566-30.9757 148.554-31.5534 149.71-31.9831 150.865-32.4128 152.207-32.6276 153.734-32.6276ZM150.927-25.638C149.399-25.638 148.187-25.3229 147.289-24.6927 146.392-24.0625 145.737-23.1172 145.327-21.8568 144.916-20.5964 144.692-19.0017 144.654-17.0729L144.654-16.1276C144.654-14.0651 144.849-12.3177 145.241-10.8854 145.632-9.45312 146.291-8.36458 147.217-7.61979 148.144-6.875 149.418-6.5026 151.042-6.5026 152.378-6.5026 153.477-6.875 154.336-7.61979 155.195-8.36458 155.84-9.4579 156.27-10.8997 156.699-12.3416 156.914-14.1033 156.914-16.1849 156.914-19.3168 156.427-21.6753 155.453-23.2604 154.479-24.8455 152.97-25.638 150.927-25.638ZM190.958-32.6276C191.398-32.6276 191.908-32.6037 192.491-32.556 193.073-32.5082 193.546-32.4462 193.909-32.3698L193.25-24.1771C192.964-24.2726 192.558-24.3442 192.033-24.3919 191.507-24.4397 191.054-24.4635 190.672-24.4635 189.545-24.4635 188.452-24.3203 187.392-24.0339 186.332-23.7474 185.382-23.2843 184.542-22.6445 183.701-22.0048 183.038-21.1645 182.551-20.1237 182.064-19.0829 181.82-17.8082 181.82-16.2995L181.82 0 173.083 0 173.083-32.026 179.701-32.026 180.99-26.6406 181.419-26.6406C182.049-27.7292 182.837-28.727 183.783-29.6341 184.728-30.5412 185.807-31.2669 187.02-31.8112 188.232-32.3555 189.545-32.6276 190.958-32.6276ZM212.87-32.6849C217.167-32.6849 220.461-31.7491 222.753-29.8776 225.044-28.0061 226.19-25.1606 226.19-21.3411L226.19 0 220.089 0 218.398-4.35417 218.169-4.35417C217.253-3.20833 216.317-2.27257 215.362-1.54688 214.407-0.821181 213.309-0.286458 212.068 0.0572917 210.826 0.401042 209.318 0.572917 207.542 0.572917 205.651 0.572917 203.956 0.210069 202.457-0.515625 200.958-1.24132 199.779-2.35373 198.919-3.85286 198.06-5.352 197.63-7.25694 197.63-9.56771 197.63-12.967 198.824-15.4735 201.211-17.0872 203.598-18.701 207.179-19.5938 211.953-19.7656L217.51-19.9375 217.51-21.3411C217.51-23.0217 217.071-24.2535 216.193-25.0365 215.314-25.8194 214.092-26.2109 212.526-26.2109 210.979-26.2109 209.461-25.9913 207.971-25.5521 206.482-25.1128 204.992-24.559 203.503-23.8906L200.609-29.7917C202.309-30.6892 204.214-31.3958 206.324-31.9115 208.434-32.4271 210.616-32.6849 212.87-32.6849ZM217.51-14.8385 214.13-14.724C211.304-14.6476 209.342-14.1415 208.244-13.2057 207.145-12.27 206.596-11.0382 206.596-9.51042 206.596-8.17361 206.988-7.22352 207.771-6.66016 208.554-6.09679 209.576-5.8151 210.836-5.8151 212.707-5.8151 214.288-6.36892 215.577-7.47656 216.866-8.5842 217.51-10.1597 217.51-12.2031ZM257.594-9.51042C257.594-7.33333 257.083-5.49523 256.061-3.99609 255.04-2.49696 253.517-1.36068 251.492-0.58724 249.468 0.186198 246.947 0.572917 243.93 0.572917 241.695 0.572917 239.781 0.429688 238.186 0.143229 236.592-0.143229 234.983-0.62066 233.359-1.28906L233.359-8.50781C235.097-7.72483 236.964-7.0803 238.96-6.57422 240.955-6.06814 242.707-5.8151 244.216-5.8151 245.916-5.8151 247.133-6.06814 247.869-6.57422 248.604-7.0803 248.971-7.74392 248.971-8.5651 248.971-9.09983 248.823-9.58203 248.527-10.0117 248.231-10.4414 247.596-10.9284 246.622-11.4727 245.648-12.0169 244.121-12.7283 242.039-13.6068 240.034-14.447 238.387-15.2969 237.098-16.1562 235.809-17.0156 234.854-18.0326 234.233-19.207 233.612-20.3815 233.302-21.8759 233.302-23.6901 233.302-26.6502 234.453-28.8798 236.754-30.3789 239.055-31.878 242.135-32.6276 245.992-32.6276 247.978-32.6276 249.874-32.4271 251.678-32.026 253.483-31.625 255.34-30.9852 257.25-30.1068L254.615-23.8047C253.03-24.4922 251.535-25.0556 250.132-25.4948 248.728-25.934 247.3-26.1536 245.849-26.1536 244.569-26.1536 243.605-25.9818 242.956-25.638 242.306-25.2943 241.982-24.7691 241.982-24.0625 241.982-23.5469 242.149-23.0885 242.483-22.6875 242.817-22.2865 243.467-21.8424 244.431-21.3555 245.395-20.8685 246.813-20.2431 248.685-19.4792 250.499-18.7344 252.075-17.9562 253.411-17.1445 254.748-16.3329 255.78-15.3303 256.505-14.1367 257.231-12.9431 257.594-11.401 257.594-9.51042ZM292.789-32.6276C295.749-32.6276 298.299-32.0595 300.438-30.9232 302.576-29.7869 304.228-28.1398 305.393-25.9818 306.558-23.8238 307.141-21.1884 307.141-18.0755L307.141-13.8359 286.487-13.8359C286.582-11.3724 287.322-9.4388 288.707-8.03516 290.092-6.63151 292.016-5.92969 294.479-5.92969 296.523-5.92969 298.394-6.13976 300.094-6.5599 301.793-6.98003 303.541-7.61024 305.336-8.45052L305.336-1.6901C303.751-0.907118 302.094-0.334201 300.366 0.0286458 298.638 0.391493 296.542 0.572917 294.078 0.572917 290.87 0.572917 288.029-0.0190972 285.556-1.20312 283.083-2.38715 281.145-4.19184 279.741-6.61719 278.337-9.04253 277.635-12.0981 277.635-15.7839 277.635-19.5269 278.27-22.6445 279.54-25.1367 280.81-27.6289 282.582-29.5004 284.854-30.7513 287.127-32.0022 289.772-32.6276 292.789-32.6276ZM292.846-26.4115C291.147-26.4115 289.738-25.8672 288.621-24.7786 287.504-23.6901 286.859-21.9809 286.688-19.651L298.948-19.651C298.929-20.9497 298.695-22.105 298.246-23.1172 297.797-24.1293 297.129-24.9314 296.241-25.5234 295.353-26.1154 294.221-26.4115 292.846-26.4115ZM354.826-11.6302C354.826-9.14757 354.224-6.98958 353.021-5.15625 351.818-3.32292 350.066-1.90972 347.764-0.916667 345.463 0.0763889 342.67 0.572917 339.385 0.572917 337.934 0.572917 336.516 0.477431 335.132 0.286458 333.747 0.0954861 332.42-0.186198 331.15-0.558594 329.88-0.93099 328.672-1.3941 327.526-1.94792L327.526-10.1979C329.512-9.31944 331.575-8.52691 333.714-7.82031 335.852-7.11372 337.972-6.76042 340.073-6.76042 341.524-6.76042 342.694-6.95139 343.582-7.33333 344.47-7.71528 345.115-8.24045 345.516-8.90885 345.917-9.57726 346.117-10.3411 346.117-11.2005 346.117-12.2509 345.764-13.1484 345.057-13.8932 344.351-14.638 343.381-15.3351 342.15-15.9844 340.918-16.6337 339.529-17.3307 337.982-18.0755 337.008-18.5339 335.948-19.0924 334.802-19.7513 333.656-20.4102 332.568-21.217 331.536-22.1719 330.505-23.1267 329.66-24.2869 329.001-25.6523 328.342-27.0178 328.013-28.6554 328.013-30.5651 328.013-33.0668 328.586-35.2057 329.732-36.9818 330.878-38.7578 332.515-40.1185 334.645-41.0638 336.774-42.0091 339.29-42.4818 342.193-42.4818 344.37-42.4818 346.447-42.2287 348.423-41.7227 350.4-41.2166 352.467-40.4861 354.625-39.5312L351.76-32.6276C349.832-33.4106 348.103-34.0169 346.576-34.4466 345.048-34.8763 343.491-35.0911 341.906-35.0911 340.799-35.0911 339.853-34.9145 339.07-34.5612 338.287-34.2079 337.695-33.7114 337.294-33.0716 336.893-32.4319 336.693-31.6918 336.693-30.8516 336.693-29.8585 336.984-29.023 337.566-28.3451 338.149-27.6671 339.027-27.013 340.202-26.3828 341.376-25.7526 342.842-25.0174 344.599-24.1771 346.738-23.1649 348.566-22.1098 350.085-21.0117 351.603-19.9136 352.773-18.6246 353.594-17.1445 354.415-15.6645 354.826-13.8264 354.826-11.6302ZM391.141-32.026 391.141 0 384.438 0 383.263-4.09635 382.805-4.09635C382.117-3.00781 381.258-2.11979 380.227-1.43229 379.195-0.744792 378.059-0.238715 376.818 0.0859375 375.576 0.41059 374.287 0.572917 372.951 0.572917 370.659 0.572917 368.663 0.167101 366.964-0.644531 365.264-1.45616 363.941-2.72135 362.996-4.4401 362.051-6.15885 361.578-8.39323 361.578-11.1432L361.578-32.026 370.315-32.026 370.315-13.3203C370.315-11.0286 370.726-9.30035 371.547-8.13542 372.368-6.97049 373.676-6.38802 375.471-6.38802 377.247-6.38802 378.641-6.79384 379.654-7.60547 380.666-8.4171 381.377-9.61068 381.788-11.1862 382.198-12.7617 382.404-14.6858 382.404-16.9583L382.404-32.026ZM418.068-32.6276C421.677-32.6276 424.594-31.224 426.819-28.4167 429.044-25.6094 430.156-21.4939 430.156-16.0703 430.156-12.4418 429.631-9.39106 428.581-6.91797 427.53-4.44488 426.079-2.57812 424.227-1.31771 422.374-0.0572917 420.245 0.572917 417.839 0.572917 416.292 0.572917 414.964 0.37717 413.857-0.0143229 412.749-0.405816 411.804-0.911892 411.021-1.53255 410.238-2.15321 409.56-2.81684 408.987-3.52344L408.529-3.52344C408.681-2.75955 408.796-1.97656 408.872-1.17448 408.949-0.372396 408.987 0.41059 408.987 1.17448L408.987 14.0938 400.25 14.0938 400.25-32.026 407.354-32.026 408.586-27.8724 408.987-27.8724C409.56-28.7318 410.257-29.5243 411.078-30.25 411.899-30.9757 412.888-31.5534 414.043-31.9831 415.198-32.4128 416.54-32.6276 418.068-32.6276ZM415.26-25.638C413.733-25.638 412.52-25.3229 411.622-24.6927 410.725-24.0625 410.071-23.1172 409.66-21.8568 409.25-20.5964 409.025-19.0017 408.987-17.0729L408.987-16.1276C408.987-14.0651 409.183-12.3177 409.574-10.8854 409.966-9.45312 410.625-8.36458 411.551-7.61979 412.477-6.875 413.752-6.5026 415.375-6.5026 416.712-6.5026 417.81-6.875 418.669-7.61979 419.529-8.36458 420.173-9.4579 420.603-10.8997 421.033-12.3416 421.247-14.1033 421.247-16.1849 421.247-19.3168 420.76-21.6753 419.786-23.2604 418.812-24.8455 417.304-25.638 415.26-25.638ZM455.292-32.6276C455.731-32.6276 456.242-32.6037 456.824-32.556 457.407-32.5082 457.879-32.4462 458.242-32.3698L457.583-24.1771C457.297-24.2726 456.891-24.3442 456.366-24.3919 455.841-24.4397 455.387-24.4635 455.005-24.4635 453.878-24.4635 452.785-24.3203 451.725-24.0339 450.665-23.7474 449.715-23.2843 448.875-22.6445 448.035-22.0048 447.371-21.1645 446.884-20.1237 446.397-19.0829 446.154-17.8082 446.154-16.2995L446.154 0 437.417 0 437.417-32.026 444.034-32.026 445.323-26.6406 445.753-26.6406C446.383-27.7292 447.171-28.727 448.116-29.6341 449.061-30.5412 450.14-31.2669 451.353-31.8112 452.565-32.3555 453.878-32.6276 455.292-32.6276ZM472.82-32.026 472.82 0 464.083 0 464.083-32.026ZM468.466-44.5729C469.765-44.5729 470.882-44.2721 471.818-43.6706 472.753-43.069 473.221-41.947 473.221-40.3047 473.221-38.6814 472.753-37.5595 471.818-36.9388 470.882-36.3181 469.765-36.0078 468.466-36.0078 467.148-36.0078 466.026-36.3181 465.1-36.9388 464.174-37.5595 463.711-38.6814 463.711-40.3047 463.711-41.947 464.174-43.069 465.1-43.6706 466.026-44.2721 467.148-44.5729 468.466-44.5729ZM519.529-32.6276C523.157-32.6276 525.902-31.6966 527.764-29.8346 529.626-27.9727 530.557-24.9887 530.557-20.8828L530.557 0 521.792 0 521.792-18.7057C521.792-20.9974 521.4-22.7257 520.617-23.8906 519.834-25.0556 518.621-25.638 516.979-25.638 514.668-25.638 513.026-24.8121 512.052-23.1602 511.078-21.5082 510.591-19.145 510.591-16.0703L510.591 0 501.854 0 501.854-18.7057C501.854-20.2335 501.682-21.513 501.339-22.5443 500.995-23.5755 500.47-24.349 499.763-24.8646 499.056-25.3802 498.149-25.638 497.042-25.638 495.418-25.638 494.144-25.2322 493.217-24.4206 492.291-23.6089 491.632-22.4154 491.241-20.8398 490.849-19.2643 490.654-17.3403 490.654-15.0677L490.654 0 481.917 0 481.917-32.026 488.591-32.026 489.766-27.9297 490.253-27.9297C490.902-29.0373 491.718-29.9349 492.702-30.6224 493.685-31.3099 494.769-31.816 495.953-32.1406 497.137-32.4653 498.34-32.6276 499.562-32.6276 501.911-32.6276 503.902-32.2457 505.535-31.4818 507.168-30.7179 508.424-29.5339 509.302-27.9297L510.076-27.9297C511.03-29.572 512.381-30.7656 514.129-31.5104 515.876-32.2552 517.676-32.6276 519.529-32.6276ZM552.789-32.6276C555.749-32.6276 558.299-32.0595 560.438-30.9232 562.576-29.7869 564.228-28.1398 565.393-25.9818 566.558-23.8238 567.141-21.1884 567.141-18.0755L567.141-13.8359 546.487-13.8359C546.582-11.3724 547.322-9.4388 548.707-8.03516 550.092-6.63151 552.016-5.92969 554.479-5.92969 556.523-5.92969 558.394-6.13976 560.094-6.5599 561.793-6.98003 563.541-7.61024 565.336-8.45052L565.336-1.6901C563.751-0.907118 562.094-0.334201 560.366 0.0286458 558.638 0.391493 556.542 0.572917 554.078 0.572917 550.87 0.572917 548.029-0.0190972 545.556-1.20312 543.083-2.38715 541.145-4.19184 539.741-6.61719 538.337-9.04253 537.635-12.0981 537.635-15.7839 537.635-19.5269 538.27-22.6445 539.54-25.1367 540.81-27.6289 542.582-29.5004 544.854-30.7513 547.127-32.0022 549.772-32.6276 552.789-32.6276ZM552.846-26.4115C551.147-26.4115 549.738-25.8672 548.621-24.7786 547.504-23.6901 546.859-21.9809 546.688-19.651L558.948-19.651C558.929-20.9497 558.695-22.105 558.246-23.1172 557.797-24.1293 557.129-24.9314 556.241-25.5234 555.353-26.1154 554.221-26.4115 552.846-26.4115ZM592.44-32.6276C595.859-32.6276 598.609-31.6966 600.69-29.8346 602.772-27.9727 603.812-24.9887 603.812-20.8828L603.812 0 595.076 0 595.076-18.7057C595.076-20.9974 594.66-22.7257 593.829-23.8906 592.999-25.0556 591.695-25.638 589.919-25.638 587.246-25.638 585.422-24.7309 584.448-22.9167 583.474-21.1024 582.987-18.4861 582.987-15.0677L582.987 0 574.25 0 574.25-32.026 580.924-32.026 582.099-27.9297 582.586-27.9297C583.273-29.0373 584.128-29.9349 585.15-30.6224 586.171-31.3099 587.308-31.816 588.559-32.1406 589.809-32.4653 591.103-32.6276 592.44-32.6276ZM626.242-6.38802C627.197-6.38802 628.128-6.48351 629.035-6.67448 629.942-6.86545 630.845-7.10417 631.742-7.39062L631.742-0.888021C630.806-0.467882 629.646-0.119358 628.262 0.157552 626.877 0.434462 625.364 0.572917 623.721 0.572917 621.812 0.572917 620.098 0.262587 618.579-0.358073 617.061-0.978733 615.868-2.05773 614.999-3.59505 614.13-5.13238 613.695-7.27604 613.695-10.026L613.695-25.4661 609.513-25.4661 609.513-29.1615 614.326-32.0833 616.846-38.8438 622.432-38.8438 622.432-32.026 631.398-32.026 631.398-25.4661 622.432-25.4661 622.432-10.026C622.432-8.80382 622.781-7.89193 623.478-7.29036 624.175-6.6888 625.096-6.38802 626.242-6.38802ZM667.354-16.0703C667.354-13.3967 666.996-11.0286 666.28-8.96615 665.564-6.90365 664.523-5.16102 663.158-3.73828 661.792-2.31554 660.15-1.24132 658.23-0.515625 656.311 0.210069 654.148 0.572917 651.742 0.572917 649.489 0.572917 647.421 0.210069 645.54-0.515625 643.659-1.24132 642.026-2.31554 640.642-3.73828 639.257-5.16102 638.188-6.90365 637.434-8.96615 636.679-11.0286 636.302-13.3967 636.302-16.0703 636.302-19.6224 636.932-22.6302 638.193-25.0938 639.453-27.5573 641.248-29.4288 643.578-30.7083 645.908-31.9878 648.687-32.6276 651.914-32.6276 654.912-32.6276 657.572-31.9878 659.892-30.7083 662.212-29.4288 664.036-27.5573 665.363-25.0938 666.691-22.6302 667.354-19.6224 667.354-16.0703ZM645.211-16.0703C645.211-13.9696 645.44-12.2031 645.898-10.7708 646.357-9.33854 647.073-8.25955 648.047-7.53385 649.021-6.80816 650.291-6.44531 651.857-6.44531 653.404-6.44531 654.659-6.80816 655.624-7.53385 656.588-8.25955 657.295-9.33854 657.744-10.7708 658.192-12.2031 658.417-13.9696 658.417-16.0703 658.417-18.1901 658.192-19.9518 657.744-21.3555 657.295-22.7591 656.583-23.8142 655.609-24.5208 654.635-25.2274 653.365-25.5807 651.799-25.5807 649.489-25.5807 647.813-24.7882 646.772-23.2031 645.731-21.6181 645.211-19.2405 645.211-16.0703ZM696.927-9.51042C696.927-7.33333 696.416-5.49523 695.395-3.99609 694.373-2.49696 692.85-1.36068 690.826-0.58724 688.801 0.186198 686.28 0.572917 683.263 0.572917 681.029 0.572917 679.114 0.429688 677.52 0.143229 675.925-0.143229 674.316-0.62066 672.693-1.28906L672.693-8.50781C674.431-7.72483 676.297-7.0803 678.293-6.57422 680.289-6.06814 682.041-5.8151 683.549-5.8151 685.249-5.8151 686.467-6.06814 687.202-6.57422 687.937-7.0803 688.305-7.74392 688.305-8.5651 688.305-9.09983 688.157-9.58203 687.861-10.0117 687.565-10.4414 686.93-10.9284 685.956-11.4727 684.982-12.0169 683.454-12.7283 681.372-13.6068 679.367-14.447 677.72-15.2969 676.431-16.1562 675.142-17.0156 674.187-18.0326 673.566-19.207 672.946-20.3815 672.635-21.8759 672.635-23.6901 672.635-26.6502 673.786-28.8798 676.087-30.3789 678.388-31.878 681.468-32.6276 685.326-32.6276 687.312-32.6276 689.207-32.4271 691.012-32.026 692.816-31.625 694.674-30.9852 696.583-30.1068L693.948-23.8047C692.363-24.4922 690.868-25.0556 689.465-25.4948 688.061-25.934 686.634-26.1536 685.182-26.1536 683.903-26.1536 682.938-25.9818 682.289-25.638 681.64-25.2943 681.315-24.7691 681.315-24.0625 681.315-23.5469 681.482-23.0885 681.816-22.6875 682.151-22.2865 682.8-21.8424 683.764-21.3555 684.729-20.8685 686.147-20.2431 688.018-19.4792 689.832-18.7344 691.408-17.9562 692.745-17.1445 694.082-16.3329 695.113-15.3303 695.839-14.1367 696.564-12.9431 696.927-11.401 696.927-9.51042Z" fill="#FFFFFF" transform="translate(39.8648 78)"/></g></g><path d="M23.0599-35.0911C21.3602-35.0911 19.8563-34.7617 18.5482-34.1029 17.24-33.444 16.1419-32.4939 15.2539-31.2526 14.3659-30.0113 13.6927-28.5122 13.2344-26.7552 12.776-24.9983 12.5469-23.0217 12.5469-20.8255 12.5469-17.8655 12.9145-15.3398 13.6497-13.2487 14.385-11.1576 15.526-9.56293 17.0729-8.46484 18.6198-7.36675 20.6155-6.81771 23.0599-6.81771 24.7595-6.81771 26.464-7.00868 28.1732-7.39062 29.8824-7.77257 31.7396-8.31684 33.7448-9.02344L33.7448-1.57552C31.8924-0.811632 30.0686-0.262587 28.2734 0.0716146 26.4783 0.405816 24.4635 0.572917 22.2292 0.572917 17.9132 0.572917 14.3659-0.319878 11.5872-2.10547 8.80859-3.89106 6.75087-6.3928 5.41406-9.61068 4.07726-12.8286 3.40885-16.5859 3.40885-20.8828 3.40885-24.0529 3.83854-26.9557 4.69792-29.5911 5.55729-32.2266 6.81771-34.5087 8.47917-36.4375 10.1406-38.3663 12.1936-39.8559 14.638-40.9062 17.0825-41.9566 19.8898-42.4818 23.0599-42.4818 25.1415-42.4818 27.2279-42.2192 29.319-41.694 31.4102-41.1688 33.4106-40.4479 35.3203-39.5312L32.4557-32.3125C30.8898-33.0573 29.3142-33.7066 27.7292-34.2604 26.1441-34.8142 24.5877-35.0911 23.0599-35.0911ZM71.0208-16.0703C71.0208-13.3967 70.6628-11.0286 69.9466-8.96615 69.2305-6.90365 68.1897-5.16102 66.8242-3.73828 65.4588-2.31554 63.8164-1.24132 61.8971-0.515625 59.9779 0.210069 57.8151 0.572917 55.4089 0.572917 53.1554 0.572917 51.0881 0.210069 49.207-0.515625 47.326-1.24132 45.6931-2.31554 44.3086-3.73828 42.924-5.16102 41.8546-6.90365 41.1003-8.96615 40.3459-11.0286 39.9688-13.3967 39.9688-16.0703 39.9688-19.6224 40.599-22.6302 41.8594-25.0938 43.1198-27.5573 44.9149-29.4288 47.2448-30.7083 49.5747-31.9878 52.3533-32.6276 55.5807-32.6276 58.579-32.6276 61.2383-31.9878 63.5586-30.7083 65.8789-29.4288 67.7027-27.5573 69.03-25.0938 70.3572-22.6302 71.0208-19.6224 71.0208-16.0703ZM48.8776-16.0703C48.8776-13.9696 49.1068-12.2031 49.5651-10.7708 50.0234-9.33854 50.7396-8.25955 51.7135-7.53385 52.6875-6.80816 53.9575-6.44531 55.5234-6.44531 57.0703-6.44531 58.326-6.80816 59.2904-7.53385 60.2548-8.25955 60.9614-9.33854 61.4102-10.7708 61.8589-12.2031 62.0833-13.9696 62.0833-16.0703 62.0833-18.1901 61.8589-19.9518 61.4102-21.3555 60.9614-22.7591 60.25-23.8142 59.276-24.5208 58.3021-25.2274 57.0321-25.5807 55.4661-25.5807 53.1554-25.5807 51.4796-24.7882 50.4388-23.2031 49.398-21.6181 48.8776-19.2405 48.8776-16.0703ZM115.862-32.6276C119.49-32.6276 122.236-31.6966 124.098-29.8346 125.96-27.9727 126.891-24.9887 126.891-20.8828L126.891 0 118.125 0 118.125-18.7057C118.125-20.9974 117.734-22.7257 116.951-23.8906 116.168-25.0556 114.955-25.638 113.313-25.638 111.002-25.638 109.359-24.8121 108.385-23.1602 107.411-21.5082 106.924-19.145 106.924-16.0703L106.924 0 98.1875 0 98.1875-18.7057C98.1875-20.2335 98.0156-21.513 97.6719-22.5443 97.3281-23.5755 96.803-24.349 96.0964-24.8646 95.3898-25.3802 94.4827-25.638 93.375-25.638 91.7517-25.638 90.477-25.2322 89.5508-24.4206 88.6246-23.6089 87.9657-22.4154 87.5742-20.8398 87.1827-19.2643 86.987-17.3403 86.987-15.0677L86.987 0 78.25 0 78.25-32.026 84.9245-32.026 86.099-27.9297 86.5859-27.9297C87.2352-29.0373 88.0517-29.9349 89.0352-30.6224 90.0187-31.3099 91.1024-31.816 92.2865-32.1406 93.4705-32.4653 94.6736-32.6276 95.8958-32.6276 98.2448-32.6276 100.236-32.2457 101.868-31.4818 103.501-30.7179 104.757-29.5339 105.635-27.9297L106.409-27.9297C107.364-29.572 108.715-30.7656 110.462-31.5104 112.21-32.2552 114.01-32.6276 115.862-32.6276ZM153.734-32.6276C157.344-32.6276 160.261-31.224 162.486-28.4167 164.711-25.6094 165.823-21.4939 165.823-16.0703 165.823-12.4418 165.298-9.39106 164.247-6.91797 163.197-4.44488 161.746-2.57812 159.893-1.31771 158.041-0.0572917 155.911 0.572917 153.505 0.572917 151.958 0.572917 150.631 0.37717 149.523-0.0143229 148.416-0.405816 147.47-0.911892 146.688-1.53255 145.905-2.15321 145.227-2.81684 144.654-3.52344L144.195-3.52344C144.348-2.75955 144.463-1.97656 144.539-1.17448 144.615-0.372396 144.654 0.41059 144.654 1.17448L144.654 14.0938 135.917 14.0938 135.917-32.026 143.021-32.026 144.253-27.8724 144.654-27.8724C145.227-28.7318 145.924-29.5243 146.745-30.25 147.566-30.9757 148.554-31.5534 149.71-31.9831 150.865-32.4128 152.207-32.6276 153.734-32.6276ZM150.927-25.638C149.399-25.638 148.187-25.3229 147.289-24.6927 146.392-24.0625 145.737-23.1172 145.327-21.8568 144.916-20.5964 144.692-19.0017 144.654-17.0729L144.654-16.1276C144.654-14.0651 144.849-12.3177 145.241-10.8854 145.632-9.45312 146.291-8.36458 147.217-7.61979 148.144-6.875 149.418-6.5026 151.042-6.5026 152.378-6.5026 153.477-6.875 154.336-7.61979 155.195-8.36458 155.84-9.4579 156.27-10.8997 156.699-12.3416 156.914-14.1033 156.914-16.1849 156.914-19.3168 156.427-21.6753 155.453-23.2604 154.479-24.8455 152.97-25.638 150.927-25.638ZM190.958-32.6276C191.398-32.6276 191.908-32.6037 192.491-32.556 193.073-32.5082 193.546-32.4462 193.909-32.3698L193.25-24.1771C192.964-24.2726 192.558-24.3442 192.033-24.3919 191.507-24.4397 191.054-24.4635 190.672-24.4635 189.545-24.4635 188.452-24.3203 187.392-24.0339 186.332-23.7474 185.382-23.2843 184.542-22.6445 183.701-22.0048 183.038-21.1645 182.551-20.1237 182.064-19.0829 181.82-17.8082 181.82-16.2995L181.82 0 173.083 0 173.083-32.026 179.701-32.026 180.99-26.6406 181.419-26.6406C182.049-27.7292 182.837-28.727 183.783-29.6341 184.728-30.5412 185.807-31.2669 187.02-31.8112 188.232-32.3555 189.545-32.6276 190.958-32.6276ZM212.87-32.6849C217.167-32.6849 220.461-31.7491 222.753-29.8776 225.044-28.0061 226.19-25.1606 226.19-21.3411L226.19 0 220.089 0 218.398-4.35417 218.169-4.35417C217.253-3.20833 216.317-2.27257 215.362-1.54688 214.407-0.821181 213.309-0.286458 212.068 0.0572917 210.826 0.401042 209.318 0.572917 207.542 0.572917 205.651 0.572917 203.956 0.210069 202.457-0.515625 200.958-1.24132 199.779-2.35373 198.919-3.85286 198.06-5.352 197.63-7.25694 197.63-9.56771 197.63-12.967 198.824-15.4735 201.211-17.0872 203.598-18.701 207.179-19.5938 211.953-19.7656L217.51-19.9375 217.51-21.3411C217.51-23.0217 217.071-24.2535 216.193-25.0365 215.314-25.8194 214.092-26.2109 212.526-26.2109 210.979-26.2109 209.461-25.9913 207.971-25.5521 206.482-25.1128 204.992-24.559 203.503-23.8906L200.609-29.7917C202.309-30.6892 204.214-31.3958 206.324-31.9115 208.434-32.4271 210.616-32.6849 212.87-32.6849ZM217.51-14.8385 214.13-14.724C211.304-14.6476 209.342-14.1415 208.244-13.2057 207.145-12.27 206.596-11.0382 206.596-9.51042 206.596-8.17361 206.988-7.22352 207.771-6.66016 208.554-6.09679 209.576-5.8151 210.836-5.8151 212.707-5.8151 214.288-6.36892 215.577-7.47656 216.866-8.5842 217.51-10.1597 217.51-12.2031ZM257.594-9.51042C257.594-7.33333 257.083-5.49523 256.061-3.99609 255.04-2.49696 253.517-1.36068 251.492-0.58724 249.468 0.186198 246.947 0.572917 243.93 0.572917 241.695 0.572917 239.781 0.429688 238.186 0.143229 236.592-0.143229 234.983-0.62066 233.359-1.28906L233.359-8.50781C235.097-7.72483 236.964-7.0803 238.96-6.57422 240.955-6.06814 242.707-5.8151 244.216-5.8151 245.916-5.8151 247.133-6.06814 247.869-6.57422 248.604-7.0803 248.971-7.74392 248.971-8.5651 248.971-9.09983 248.823-9.58203 248.527-10.0117 248.231-10.4414 247.596-10.9284 246.622-11.4727 245.648-12.0169 244.121-12.7283 242.039-13.6068 240.034-14.447 238.387-15.2969 237.098-16.1562 235.809-17.0156 234.854-18.0326 234.233-19.207 233.612-20.3815 233.302-21.8759 233.302-23.6901 233.302-26.6502 234.453-28.8798 236.754-30.3789 239.055-31.878 242.135-32.6276 245.992-32.6276 247.978-32.6276 249.874-32.4271 251.678-32.026 253.483-31.625 255.34-30.9852 257.25-30.1068L254.615-23.8047C253.03-24.4922 251.535-25.0556 250.132-25.4948 248.728-25.934 247.3-26.1536 245.849-26.1536 244.569-26.1536 243.605-25.9818 242.956-25.638 242.306-25.2943 241.982-24.7691 241.982-24.0625 241.982-23.5469 242.149-23.0885 242.483-22.6875 242.817-22.2865 243.467-21.8424 244.431-21.3555 245.395-20.8685 246.813-20.2431 248.685-19.4792 250.499-18.7344 252.075-17.9562 253.411-17.1445 254.748-16.3329 255.78-15.3303 256.505-14.1367 257.231-12.9431 257.594-11.401 257.594-9.51042ZM292.789-32.6276C295.749-32.6276 298.299-32.0595 300.438-30.9232 302.576-29.7869 304.228-28.1398 305.393-25.9818 306.558-23.8238 307.141-21.1884 307.141-18.0755L307.141-13.8359 286.487-13.8359C286.582-11.3724 287.322-9.4388 288.707-8.03516 290.092-6.63151 292.016-5.92969 294.479-5.92969 296.523-5.92969 298.394-6.13976 300.094-6.5599 301.793-6.98003 303.541-7.61024 305.336-8.45052L305.336-1.6901C303.751-0.907118 302.094-0.334201 300.366 0.0286458 298.638 0.391493 296.542 0.572917 294.078 0.572917 290.87 0.572917 288.029-0.0190972 285.556-1.20312 283.083-2.38715 281.145-4.19184 279.741-6.61719 278.337-9.04253 277.635-12.0981 277.635-15.7839 277.635-19.5269 278.27-22.6445 279.54-25.1367 280.81-27.6289 282.582-29.5004 284.854-30.7513 287.127-32.0022 289.772-32.6276 292.789-32.6276ZM292.846-26.4115C291.147-26.4115 289.738-25.8672 288.621-24.7786 287.504-23.6901 286.859-21.9809 286.688-19.651L298.948-19.651C298.929-20.9497 298.695-22.105 298.246-23.1172 297.797-24.1293 297.129-24.9314 296.241-25.5234 295.353-26.1154 294.221-26.4115 292.846-26.4115ZM354.826-11.6302C354.826-9.14757 354.224-6.98958 353.021-5.15625 351.818-3.32292 350.066-1.90972 347.764-0.916667 345.463 0.0763889 342.67 0.572917 339.385 0.572917 337.934 0.572917 336.516 0.477431 335.132 0.286458 333.747 0.0954861 332.42-0.186198 331.15-0.558594 329.88-0.93099 328.672-1.3941 327.526-1.94792L327.526-10.1979C329.512-9.31944 331.575-8.52691 333.714-7.82031 335.852-7.11372 337.972-6.76042 340.073-6.76042 341.524-6.76042 342.694-6.95139 343.582-7.33333 344.47-7.71528 345.115-8.24045 345.516-8.90885 345.917-9.57726 346.117-10.3411 346.117-11.2005 346.117-12.2509 345.764-13.1484 345.057-13.8932 344.351-14.638 343.381-15.3351 342.15-15.9844 340.918-16.6337 339.529-17.3307 337.982-18.0755 337.008-18.5339 335.948-19.0924 334.802-19.7513 333.656-20.4102 332.568-21.217 331.536-22.1719 330.505-23.1267 329.66-24.2869 329.001-25.6523 328.342-27.0178 328.013-28.6554 328.013-30.5651 328.013-33.0668 328.586-35.2057 329.732-36.9818 330.878-38.7578 332.515-40.1185 334.645-41.0638 336.774-42.0091 339.29-42.4818 342.193-42.4818 344.37-42.4818 346.447-42.2287 348.423-41.7227 350.4-41.2166 352.467-40.4861 354.625-39.5312L351.76-32.6276C349.832-33.4106 348.103-34.0169 346.576-34.4466 345.048-34.8763 343.491-35.0911 341.906-35.0911 340.799-35.0911 339.853-34.9145 339.07-34.5612 338.287-34.2079 337.695-33.7114 337.294-33.0716 336.893-32.4319 336.693-31.6918 336.693-30.8516 336.693-29.8585 336.984-29.023 337.566-28.3451 338.149-27.6671 339.027-27.013 340.202-26.3828 341.376-25.7526 342.842-25.0174 344.599-24.1771 346.738-23.1649 348.566-22.1098 350.085-21.0117 351.603-19.9136 352.773-18.6246 353.594-17.1445 354.415-15.6645 354.826-13.8264 354.826-11.6302ZM391.141-32.026 391.141 0 384.438 0 383.263-4.09635 382.805-4.09635C382.117-3.00781 381.258-2.11979 380.227-1.43229 379.195-0.744792 378.059-0.238715 376.818 0.0859375 375.576 0.41059 374.287 0.572917 372.951 0.572917 370.659 0.572917 368.663 0.167101 366.964-0.644531 365.264-1.45616 363.941-2.72135 362.996-4.4401 362.051-6.15885 361.578-8.39323 361.578-11.1432L361.578-32.026 370.315-32.026 370.315-13.3203C370.315-11.0286 370.726-9.30035 371.547-8.13542 372.368-6.97049 373.676-6.38802 375.471-6.38802 377.247-6.38802 378.641-6.79384 379.654-7.60547 380.666-8.4171 381.377-9.61068 381.788-11.1862 382.198-12.7617 382.404-14.6858 382.404-16.9583L382.404-32.026ZM418.068-32.6276C421.677-32.6276 424.594-31.224 426.819-28.4167 429.044-25.6094 430.156-21.4939 430.156-16.0703 430.156-12.4418 429.631-9.39106 428.581-6.91797 427.53-4.44488 426.079-2.57812 424.227-1.31771 422.374-0.0572917 420.245 0.572917 417.839 0.572917 416.292 0.572917 414.964 0.37717 413.857-0.0143229 412.749-0.405816 411.804-0.911892 411.021-1.53255 410.238-2.15321 409.56-2.81684 408.987-3.52344L408.529-3.52344C408.681-2.75955 408.796-1.97656 408.872-1.17448 408.949-0.372396 408.987 0.41059 408.987 1.17448L408.987 14.0938 400.25 14.0938 400.25-32.026 407.354-32.026 408.586-27.8724 408.987-27.8724C409.56-28.7318 410.257-29.5243 411.078-30.25 411.899-30.9757 412.888-31.5534 414.043-31.9831 415.198-32.4128 416.54-32.6276 418.068-32.6276ZM415.26-25.638C413.733-25.638 412.52-25.3229 411.622-24.6927 410.725-24.0625 410.071-23.1172 409.66-21.8568 409.25-20.5964 409.025-19.0017 408.987-17.0729L408.987-16.1276C408.987-14.0651 409.183-12.3177 409.574-10.8854 409.966-9.45312 410.625-8.36458 411.551-7.61979 412.477-6.875 413.752-6.5026 415.375-6.5026 416.712-6.5026 417.81-6.875 418.669-7.61979 419.529-8.36458 420.173-9.4579 420.603-10.8997 421.033-12.3416 421.247-14.1033 421.247-16.1849 421.247-19.3168 420.76-21.6753 419.786-23.2604 418.812-24.8455 417.304-25.638 415.26-25.638ZM455.292-32.6276C455.731-32.6276 456.242-32.6037 456.824-32.556 457.407-32.5082 457.879-32.4462 458.242-32.3698L457.583-24.1771C457.297-24.2726 456.891-24.3442 456.366-24.3919 455.841-24.4397 455.387-24.4635 455.005-24.4635 453.878-24.4635 452.785-24.3203 451.725-24.0339 450.665-23.7474 449.715-23.2843 448.875-22.6445 448.035-22.0048 447.371-21.1645 446.884-20.1237 446.397-19.0829 446.154-17.8082 446.154-16.2995L446.154 0 437.417 0 437.417-32.026 444.034-32.026 445.323-26.6406 445.753-26.6406C446.383-27.7292 447.171-28.727 448.116-29.6341 449.061-30.5412 450.14-31.2669 451.353-31.8112 452.565-32.3555 453.878-32.6276 455.292-32.6276ZM472.82-32.026 472.82 0 464.083 0 464.083-32.026ZM468.466-44.5729C469.765-44.5729 470.882-44.2721 471.818-43.6706 472.753-43.069 473.221-41.947 473.221-40.3047 473.221-38.6814 472.753-37.5595 471.818-36.9388 470.882-36.3181 469.765-36.0078 468.466-36.0078 467.148-36.0078 466.026-36.3181 465.1-36.9388 464.174-37.5595 463.711-38.6814 463.711-40.3047 463.711-41.947 464.174-43.069 465.1-43.6706 466.026-44.2721 467.148-44.5729 468.466-44.5729ZM519.529-32.6276C523.157-32.6276 525.902-31.6966 527.764-29.8346 529.626-27.9727 530.557-24.9887 530.557-20.8828L530.557 0 521.792 0 521.792-18.7057C521.792-20.9974 521.4-22.7257 520.617-23.8906 519.834-25.0556 518.621-25.638 516.979-25.638 514.668-25.638 513.026-24.8121 512.052-23.1602 511.078-21.5082 510.591-19.145 510.591-16.0703L510.591 0 501.854 0 501.854-18.7057C501.854-20.2335 501.682-21.513 501.339-22.5443 500.995-23.5755 500.47-24.349 499.763-24.8646 499.056-25.3802 498.149-25.638 497.042-25.638 495.418-25.638 494.144-25.2322 493.217-24.4206 492.291-23.6089 491.632-22.4154 491.241-20.8398 490.849-19.2643 490.654-17.3403 490.654-15.0677L490.654 0 481.917 0 481.917-32.026 488.591-32.026 489.766-27.9297 490.253-27.9297C490.902-29.0373 491.718-29.9349 492.702-30.6224 493.685-31.3099 494.769-31.816 495.953-32.1406 497.137-32.4653 498.34-32.6276 499.562-32.6276 501.911-32.6276 503.902-32.2457 505.535-31.4818 507.168-30.7179 508.424-29.5339 509.302-27.9297L510.076-27.9297C511.03-29.572 512.381-30.7656 514.129-31.5104 515.876-32.2552 517.676-32.6276 519.529-32.6276ZM552.789-32.6276C555.749-32.6276 558.299-32.0595 560.438-30.9232 562.576-29.7869 564.228-28.1398 565.393-25.9818 566.558-23.8238 567.141-21.1884 567.141-18.0755L567.141-13.8359 546.487-13.8359C546.582-11.3724 547.322-9.4388 548.707-8.03516 550.092-6.63151 552.016-5.92969 554.479-5.92969 556.523-5.92969 558.394-6.13976 560.094-6.5599 561.793-6.98003 563.541-7.61024 565.336-8.45052L565.336-1.6901C563.751-0.907118 562.094-0.334201 560.366 0.0286458 558.638 0.391493 556.542 0.572917 554.078 0.572917 550.87 0.572917 548.029-0.0190972 545.556-1.20312 543.083-2.38715 541.145-4.19184 539.741-6.61719 538.337-9.04253 537.635-12.0981 537.635-15.7839 537.635-19.5269 538.27-22.6445 539.54-25.1367 540.81-27.6289 542.582-29.5004 544.854-30.7513 547.127-32.0022 549.772-32.6276 552.789-32.6276ZM552.846-26.4115C551.147-26.4115 549.738-25.8672 548.621-24.7786 547.504-23.6901 546.859-21.9809 546.688-19.651L558.948-19.651C558.929-20.9497 558.695-22.105 558.246-23.1172 557.797-24.1293 557.129-24.9314 556.241-25.5234 555.353-26.1154 554.221-26.4115 552.846-26.4115ZM592.44-32.6276C595.859-32.6276 598.609-31.6966 600.69-29.8346 602.772-27.9727 603.812-24.9887 603.812-20.8828L603.812 0 595.076 0 595.076-18.7057C595.076-20.9974 594.66-22.7257 593.829-23.8906 592.999-25.0556 591.695-25.638 589.919-25.638 587.246-25.638 585.422-24.7309 584.448-22.9167 583.474-21.1024 582.987-18.4861 582.987-15.0677L582.987 0 574.25 0 574.25-32.026 580.924-32.026 582.099-27.9297 582.586-27.9297C583.273-29.0373 584.128-29.9349 585.15-30.6224 586.171-31.3099 587.308-31.816 588.559-32.1406 589.809-32.4653 591.103-32.6276 592.44-32.6276ZM626.242-6.38802C627.197-6.38802 628.128-6.48351 629.035-6.67448 629.942-6.86545 630.845-7.10417 631.742-7.39062L631.742-0.888021C630.806-0.467882 629.646-0.119358 628.262 0.157552 626.877 0.434462 625.364 0.572917 623.721 0.572917 621.812 0.572917 620.098 0.262587 618.579-0.358073 617.061-0.978733 615.868-2.05773 614.999-3.59505 614.13-5.13238 613.695-7.27604 613.695-10.026L613.695-25.4661 609.513-25.4661 609.513-29.1615 614.326-32.0833 616.846-38.8438 622.432-38.8438 622.432-32.026 631.398-32.026 631.398-25.4661 622.432-25.4661 622.432-10.026C622.432-8.80382 622.781-7.89193 623.478-7.29036 624.175-6.6888 625.096-6.38802 626.242-6.38802ZM667.354-16.0703C667.354-13.3967 666.996-11.0286 666.28-8.96615 665.564-6.90365 664.523-5.16102 663.158-3.73828 661.792-2.31554 660.15-1.24132 658.23-0.515625 656.311 0.210069 654.148 0.572917 651.742 0.572917 649.489 0.572917 647.421 0.210069 645.54-0.515625 643.659-1.24132 642.026-2.31554 640.642-3.73828 639.257-5.16102 638.188-6.90365 637.434-8.96615 636.679-11.0286 636.302-13.3967 636.302-16.0703 636.302-19.6224 636.932-22.6302 638.193-25.0938 639.453-27.5573 641.248-29.4288 643.578-30.7083 645.908-31.9878 648.687-32.6276 651.914-32.6276 654.912-32.6276 657.572-31.9878 659.892-30.7083 662.212-29.4288 664.036-27.5573 665.363-25.0938 666.691-22.6302 667.354-19.6224 667.354-16.0703ZM645.211-16.0703C645.211-13.9696 645.44-12.2031 645.898-10.7708 646.357-9.33854 647.073-8.25955 648.047-7.53385 649.021-6.80816 650.291-6.44531 651.857-6.44531 653.404-6.44531 654.659-6.80816 655.624-7.53385 656.588-8.25955 657.295-9.33854 657.744-10.7708 658.192-12.2031 658.417-13.9696 658.417-16.0703 658.417-18.1901 658.192-19.9518 657.744-21.3555 657.295-22.7591 656.583-23.8142 655.609-24.5208 654.635-25.2274 653.365-25.5807 651.799-25.5807 649.489-25.5807 647.813-24.7882 646.772-23.2031 645.731-21.6181 645.211-19.2405 645.211-16.0703ZM696.927-9.51042C696.927-7.33333 696.416-5.49523 695.395-3.99609 694.373-2.49696 692.85-1.36068 690.826-0.58724 688.801 0.186198 686.28 0.572917 683.263 0.572917 681.029 0.572917 679.114 0.429688 677.52 0.143229 675.925-0.143229 674.316-0.62066 672.693-1.28906L672.693-8.50781C674.431-7.72483 676.297-7.0803 678.293-6.57422 680.289-6.06814 682.041-5.8151 683.549-5.8151 685.249-5.8151 686.467-6.06814 687.202-6.57422 687.937-7.0803 688.305-7.74392 688.305-8.5651 688.305-9.09983 688.157-9.58203 687.861-10.0117 687.565-10.4414 686.93-10.9284 685.956-11.4727 684.982-12.0169 683.454-12.7283 681.372-13.6068 679.367-14.447 677.72-15.2969 676.431-16.1562 675.142-17.0156 674.187-18.0326 673.566-19.207 672.946-20.3815 672.635-21.8759 672.635-23.6901 672.635-26.6502 673.786-28.8798 676.087-30.3789 678.388-31.878 681.468-32.6276 685.326-32.6276 687.312-32.6276 689.207-32.4271 691.012-32.026 692.816-31.625 694.674-30.9852 696.583-30.1068L693.948-23.8047C692.363-24.4922 690.868-25.0556 689.465-25.4948 688.061-25.934 686.634-26.1536 685.182-26.1536 683.903-26.1536 682.938-25.9818 682.289-25.638 681.64-25.2943 681.315-24.7691 681.315-24.0625 681.315-23.5469 681.482-23.0885 681.816-22.6875 682.151-22.2865 682.8-21.8424 683.764-21.3555 684.729-20.8685 686.147-20.2431 688.018-19.4792 689.832-18.7344 691.408-17.9562 692.745-17.1445 694.082-16.3329 695.113-15.3303 695.839-14.1367 696.564-12.9431 696.927-11.401 696.927-9.51042Z" fill="#FFFFFF" transform="translate(54.8496 439)"/><text fill="#000000" fill-opacity="0" font-family="Arial,Arial_MSFontService,sans-serif" font-size="58.6667" x="3.40885" y="6.76042">Compras e Suprimentos</text><g filter="url(#fx4)" transform="translate(716 363)"><g><path d="" fill="#FFFFFF" transform="translate(40.0315 78)"/></g></g><text fill="#FFFFFF" font-family="Open Sans,Open Sans_MSFontService,sans-serif" font-weight="700" font-size="58.6667" transform="translate(754.016 439)"></text></g></svg>